{"glyphs":{"0":{"ha":713,"x_min":35,"x_max":685,"o":"m 108 861 q 209 956 133 917 q 355 994 285 994 q 495 954 425 994 q 614 844 565 914 q 685 539 685 740 q 644 250 685 379 q 586 120 622 175 q 489 30 550 65 q 351 -6 428 -6 q 208 26 274 -6 q 104 117 142 58 q 35 464 35 224 q 49 717 35 642 q 108 861 63 793 m 49 556 q 50 473 49 515 q 52 401 51 431 q 53 363 53 372 q 56 326 54 353 q 59 287 57 300 q 65 251 61 274 q 72 213 68 228 q 210 44 108 99 q 354 6 279 6 q 490 44 429 6 q 671 519 671 160 q 603 838 671 738 q 491 943 557 906 q 359 981 425 981 q 221 945 293 981 q 121 856 149 910 l 119 854 q 49 556 49 744 m 456 553 l 449 365 q 422 267 449 315 q 353 218 396 218 q 318 228 336 218 q 236 533 236 231 q 350 772 236 772 q 432 706 408 772 q 456 553 456 640 m 436 379 l 442 525 q 353 758 442 758 q 298 740 318 758 q 273 701 278 721 q 260 614 268 682 q 253 490 253 546 q 318 242 253 260 l 321 242 l 325 240 q 358 232 339 232 q 396 252 378 232 q 422 300 414 272 q 436 379 436 353 z "},"1":{"ha":508,"x_min":-4,"x_max":456,"o":"m 167 994 l 333 999 q 450 986 438 999 q 456 822 456 924 q 447 479 456 721 q 439 154 439 238 q 443 25 439 71 q 336 -10 443 -10 q 208 11 229 -10 q 217 350 208 124 q 225 690 225 576 q 198 637 213 651 q 160 622 183 622 q 66 641 136 622 q -4 683 -4 660 q 25 756 -4 697 q 167 994 114 943 m 310 985 l 174 982 q 107 875 157 963 q 10 685 32 750 l 10 679 q 83 651 24 669 q 169 633 143 633 q 199 672 182 633 q 231 711 217 711 l 238 704 l 238 701 q 242 617 242 693 q 232 331 242 540 q 222 15 222 122 q 300 7 260 7 q 429 24 429 7 q 425 147 425 69 q 435 441 425 225 q 444 765 444 657 l 439 883 q 438 979 439 964 l 310 985 z "},"2":{"ha":692,"x_min":32,"x_max":665,"o":"m 644 3 l 638 -1 q 106 -8 547 -1 l 43 -8 q 36 -4 36 -8 q 35 1 36 0 l 35 4 l 32 6 l 35 6 l 35 85 q 86 353 35 301 q 308 515 150 422 q 417 607 400 567 q 426 660 426 628 q 407 723 426 693 q 357 753 388 753 q 267 588 267 753 q 138 569 249 569 l 51 574 q 35 682 35 590 q 142 936 35 840 q 361 994 207 994 q 498 973 440 994 q 587 919 556 951 q 637 835 618 886 q 660 738 656 783 q 665 625 665 692 q 634 508 665 558 q 555 431 603 458 q 458 381 507 403 q 296 256 328 322 l 285 210 q 342 203 285 203 l 626 208 q 647 94 647 188 q 642 47 647 63 q 646 10 642 18 q 644 3 644 7 m 126 583 l 253 594 q 292 736 253 689 q 355 768 317 768 q 417 731 393 768 q 442 659 442 694 q 431 601 442 624 q 397 558 419 578 q 338 515 364 531 q 287 486 311 500 q 256 468 263 472 q 228 451 250 464 q 198 431 207 438 q 172 413 189 425 q 144 390 154 400 q 85 328 94 344 q 72 303 76 313 q 65 278 68 293 q 59 253 61 263 q 56 224 57 243 q 53 197 54 206 q 52 169 53 189 q 51 143 51 149 l 51 40 q 49 6 51 17 l 106 6 q 629 13 539 13 q 626 33 626 18 l 631 121 q 621 194 631 167 l 439 190 l 301 190 q 271 211 271 190 q 325 314 271 274 q 428 377 361 343 q 521 426 494 411 q 621 517 592 468 q 650 642 650 565 q 375 982 650 982 q 150 925 214 982 q 50 676 50 836 l 58 588 q 126 583 125 583 z "},"3":{"ha":683,"x_min":29,"x_max":640,"o":"m 639 532 l 640 406 q 586 97 640 174 q 333 -8 513 -8 q 96 51 154 -8 q 38 213 38 110 q 32 303 38 285 l 39 311 l 224 324 q 238 303 229 317 q 284 252 251 272 q 346 232 317 232 q 396 256 375 232 q 417 315 417 281 q 387 375 417 349 q 313 401 357 401 q 238 394 269 401 q 217 472 217 406 l 224 571 l 222 593 l 226 601 q 300 608 244 607 q 387 624 356 608 q 418 678 418 639 q 397 736 418 717 q 344 756 375 756 q 278 731 314 756 q 229 676 243 707 q 174 667 219 667 l 39 669 q 29 714 29 678 l 31 746 q 123 925 31 857 q 344 993 215 993 q 596 893 514 993 q 640 761 640 839 l 639 694 l 639 532 m 218 310 l 71 296 q 47 297 56 296 q 52 221 50 276 q 65 129 54 165 q 103 65 75 93 l 103 63 q 335 4 183 4 q 531 57 472 4 q 582 117 563 85 q 611 200 601 149 q 626 414 626 281 l 625 533 l 625 749 q 549 922 625 864 q 347 979 474 979 q 132 915 219 979 q 44 746 44 851 l 46 683 l 154 681 q 218 685 186 681 q 273 744 235 718 q 347 769 311 769 q 408 747 383 769 q 432 685 432 724 q 410 626 432 646 q 363 602 389 606 q 297 596 338 599 q 236 589 256 593 l 238 567 l 229 464 q 239 410 229 433 q 299 415 275 415 q 396 383 361 415 q 431 308 431 351 q 343 221 431 221 q 267 248 306 221 q 218 310 228 275 m 92 57 l 90 60 q 92 57 90 58 z "},"4":{"ha":651,"x_min":10,"x_max":635,"o":"m 547 849 q 538 563 538 644 q 540 465 538 481 l 543 465 q 586 467 549 467 q 635 456 624 467 q 631 355 633 422 q 626 254 628 288 q 596 243 621 243 l 556 246 q 540 244 546 246 q 534 166 539 235 q 528 76 529 97 q 522 6 522 28 q 414 -14 522 -14 q 315 -11 414 -14 q 308 -7 308 -11 q 307 -1 308 -3 l 307 1 l 306 3 l 307 3 q 313 110 307 24 q 318 220 318 197 q 322 256 318 243 l 107 258 l 64 257 q 31 261 38 257 q 10 419 10 292 q 69 572 10 490 q 315 975 178 771 l 315 974 l 322 982 l 544 985 l 551 978 q 547 849 547 919 m 621 449 l 544 451 l 536 450 q 524 496 524 456 l 533 850 q 536 971 533 924 l 326 968 q 83 567 185 758 q 26 468 49 500 q 25 380 25 460 q 39 274 25 300 q 99 268 63 268 l 257 274 q 338 263 326 274 q 329 132 338 218 q 321 3 321 46 q 444 -1 408 -1 q 508 8 479 -1 q 517 110 508 10 q 528 251 524 235 q 552 260 536 260 q 581 256 568 260 q 613 260 601 256 q 617 354 614 292 q 621 449 619 417 m 379 751 q 375 454 375 601 q 281 442 369 442 q 178 457 193 442 q 197 494 181 472 q 219 526 214 517 q 250 583 225 536 q 338 722 308 693 q 371 761 357 761 l 378 757 l 379 753 l 379 751 m 194 461 q 283 456 232 456 q 361 460 333 456 q 365 740 361 599 q 328 689 340 711 q 275 597 297 632 q 194 461 253 563 z "},"5":{"ha":699,"x_min":43,"x_max":668,"o":"m 504 757 l 267 753 q 274 708 267 724 q 374 717 315 717 q 490 690 433 717 q 579 620 546 663 q 633 517 613 578 q 668 288 668 417 q 629 111 668 158 q 335 -21 521 -21 q 133 35 221 -21 q 46 199 46 92 q 58 307 46 307 q 257 314 90 307 l 264 307 l 264 304 q 269 278 265 303 q 328 224 278 224 q 406 262 379 224 q 433 356 433 300 q 289 488 433 488 q 181 482 247 488 q 86 476 115 476 q 46 488 57 476 l 43 965 l 50 974 l 643 982 l 650 975 l 650 974 q 653 890 653 965 q 646 797 653 815 l 646 769 q 582 756 640 756 l 504 757 m 67 293 l 60 196 q 140 47 60 99 q 311 -6 221 -6 q 585 82 492 -6 q 642 176 629 124 q 654 306 654 228 q 641 447 654 383 q 597 571 628 510 q 505 667 567 632 q 357 703 443 703 l 271 694 q 251 754 251 694 l 251 758 l 258 767 l 501 771 l 569 769 q 632 775 606 769 l 638 968 l 57 960 l 60 493 l 300 499 q 410 456 375 499 q 446 353 446 414 q 414 251 446 292 q 329 211 382 211 q 251 297 264 211 q 250 300 250 299 l 67 293 z "},"6":{"ha":699,"x_min":38,"x_max":676,"o":"m 675 282 q 676 254 675 282 q 577 56 676 124 q 331 -12 478 -12 q 39 390 53 -12 q 38 489 38 431 q 40 583 38 547 q 43 668 42 618 q 60 804 46 776 q 128 900 69 856 q 397 990 249 990 q 584 917 515 990 q 653 735 653 843 q 640 667 653 679 q 453 657 579 657 l 446 665 q 426 740 446 707 q 368 772 407 772 q 285 613 285 772 q 288 516 285 560 q 290 464 290 472 q 458 506 374 506 q 639 418 579 506 q 675 282 667 378 m 663 253 l 661 281 q 628 411 654 360 q 554 469 608 447 q 449 490 500 490 q 288 446 360 490 q 276 453 286 446 l 268 619 q 299 746 268 704 q 368 788 331 788 q 432 754 406 788 q 460 671 458 721 q 633 679 585 671 q 642 742 642 710 q 568 910 642 843 q 382 978 494 978 q 171 915 269 978 q 63 747 72 853 q 50 478 50 547 q 54 353 50 410 q 76 228 58 297 q 122 112 93 158 q 205 33 151 65 q 332 1 258 1 q 568 65 474 1 q 663 253 663 129 m 510 283 q 482 224 510 246 q 420 201 454 201 q 360 221 386 201 q 333 274 333 240 q 368 331 333 308 q 443 353 403 353 q 510 283 510 353 m 496 282 l 496 293 q 486 309 489 300 q 478 325 483 318 q 472 333 474 332 q 464 339 469 335 q 434 343 458 343 q 380 319 410 343 q 350 272 350 294 q 367 232 350 249 q 417 215 385 215 q 472 233 449 215 q 496 282 496 250 z "},"7":{"ha":661,"x_min":17,"x_max":650,"o":"m 378 772 l 31 785 l 24 793 q 29 889 29 836 l 29 956 l 31 981 q 34 985 32 982 q 38 989 36 988 q 419 996 38 989 q 643 986 538 996 q 646 983 644 985 q 649 979 647 981 l 650 828 l 650 782 q 435 361 586 628 q 240 7 283 94 q 233 3 235 4 l 89 -7 q 17 13 17 -7 q 193 381 69 126 q 378 772 317 635 m 415 981 l 44 975 q 43 890 43 950 q 39 799 43 831 l 383 786 l 388 794 l 388 786 l 394 776 q 199 361 329 629 q 32 14 69 93 q 90 6 58 6 l 229 17 q 424 374 276 113 q 636 786 571 636 l 635 972 q 415 981 546 981 z "},"8":{"ha":681,"x_min":25,"x_max":651,"o":"m 650 713 q 651 690 650 713 q 546 479 651 572 q 643 267 643 404 q 563 51 643 129 q 335 -26 482 -26 q 107 60 189 -26 q 25 274 25 146 q 111 489 25 403 q 38 689 38 563 q 76 855 38 775 q 178 963 114 935 q 364 992 243 992 q 650 713 650 992 m 344 981 q 125 903 197 981 q 53 696 53 826 q 126 493 53 565 l 126 485 q 39 265 39 397 q 124 60 39 132 q 343 -12 210 -12 q 553 62 476 -12 q 631 257 631 136 q 606 378 631 331 q 529 479 582 426 q 531 483 531 481 q 532 486 531 485 q 619 607 599 540 q 626 642 619 608 q 636 679 633 675 l 636 732 q 624 778 632 740 q 617 832 617 817 q 344 981 569 981 m 425 293 l 422 289 q 398 247 422 263 q 338 231 374 231 q 276 251 303 231 q 250 310 250 271 q 275 369 250 349 q 338 390 300 390 q 401 368 375 390 q 426 307 426 346 q 425 297 426 300 l 425 293 m 263 682 l 264 703 q 267 706 265 704 q 295 734 267 721 q 347 747 324 747 q 390 724 369 747 q 411 670 411 700 q 389 620 411 640 q 336 600 367 600 q 284 623 306 600 q 263 682 263 646 m 264 311 q 284 263 264 279 q 335 246 304 246 q 393 260 367 246 l 396 263 q 403 281 399 268 q 410 297 408 293 q 413 303 411 301 l 413 313 q 411 318 411 314 q 374 366 392 354 q 315 378 357 378 q 264 311 283 368 m 278 701 l 276 683 q 293 637 276 660 q 337 614 310 614 q 380 631 364 614 q 396 669 396 647 q 383 710 396 690 q 346 729 371 729 q 281 704 321 729 l 278 701 m 265 706 l 265 704 l 267 706 l 265 706 z "},"9":{"ha":713,"x_min":32,"x_max":669,"o":"m 668 449 q 669 342 668 449 q 592 67 669 151 q 503 10 560 32 q 363 -12 447 -12 q 194 22 279 -12 q 36 229 46 82 q 35 280 35 251 q 42 315 35 308 l 200 322 q 267 314 258 322 q 324 253 276 271 l 351 253 q 414 361 410 271 q 414 408 414 376 q 314 389 367 389 q 116 473 200 389 q 32 674 32 557 q 61 844 32 790 q 185 955 101 919 q 344 990 268 990 q 447 989 419 990 q 518 976 475 988 q 593 940 561 964 q 660 765 650 896 q 668 449 665 701 m 656 342 l 654 447 q 646 764 651 701 q 585 924 638 872 q 426 976 532 976 q 317 974 358 976 q 219 953 276 971 q 125 903 163 936 q 46 701 46 833 q 120 487 46 569 q 317 404 194 404 q 414 424 367 404 l 414 426 l 414 424 l 417 425 l 425 422 l 426 421 q 428 417 426 419 q 343 236 428 236 q 287 256 314 236 q 254 304 260 276 q 196 308 225 308 l 49 301 q 46 256 46 286 q 142 67 46 135 q 376 0 238 0 q 501 22 449 0 q 583 76 554 43 q 629 156 613 108 q 656 342 656 232 m 454 667 q 453 664 453 667 q 451 661 453 661 q 428 615 451 632 q 365 597 404 597 q 272 690 272 597 q 298 746 272 725 q 360 767 324 767 q 427 747 396 767 q 458 689 458 728 q 454 672 458 681 l 454 667 m 442 678 q 417 735 442 714 q 365 757 393 757 q 310 742 336 757 q 285 693 285 726 q 304 634 285 660 q 369 608 324 608 q 431 643 414 608 q 440 671 431 656 q 442 678 440 676 z "}," ":{"ha":278,"x_min":0,"x_max":0,"o":""},"!":{"ha":304,"x_min":50,"x_max":251,"o":"m 71 982 q 192 990 71 982 q 249 978 242 990 q 242 613 242 788 q 250 243 242 439 q 165 228 242 228 q 53 235 88 228 l 50 686 q 58 982 50 867 l 71 982 m 64 679 l 69 243 q 157 240 119 240 q 236 249 194 240 q 228 615 228 442 q 235 972 228 788 q 189 978 214 978 q 72 968 189 978 q 64 679 64 825 m 190 -4 l 71 -6 l 69 -6 q 63 64 63 -3 l 68 147 l 68 164 q 145 178 86 178 q 251 168 204 178 q 249 -3 249 131 q 210 -4 222 -4 q 190 -4 197 -4 m 82 161 l 74 10 l 74 8 l 185 10 q 233 8 192 10 q 238 161 233 111 l 126 167 q 82 161 103 167 z "},"\"":{"ha":525,"x_min":40,"x_max":485,"o":"m 44 631 l 40 890 q 54 985 40 971 l 56 985 l 167 996 q 211 985 200 996 l 217 635 q 169 633 215 633 q 44 631 124 633 m 313 639 l 308 890 q 322 985 308 971 l 324 985 l 435 996 q 479 985 468 996 l 485 633 q 475 632 483 632 l 454 632 l 374 628 q 313 639 324 628 m 469 646 l 467 976 l 329 971 l 324 838 l 326 644 l 469 646 m 201 646 l 199 976 l 61 971 l 56 839 l 58 644 l 201 646 z "},"#":{"ha":929,"x_min":24,"x_max":904,"o":"m 769 890 l 818 892 q 864 882 858 892 q 840 765 864 833 q 810 678 815 696 l 818 678 q 828 676 824 678 l 888 676 q 904 591 904 639 q 903 532 904 543 q 829 529 879 532 l 754 525 q 701 363 738 479 q 739 360 726 360 l 818 363 q 883 338 876 363 l 888 244 q 885 219 888 226 q 778 207 847 207 l 694 210 q 643 207 669 210 q 611 107 638 194 q 563 -3 585 19 q 481 -11 524 -11 q 390 0 438 -11 q 393 22 389 0 q 424 115 397 43 q 457 211 450 186 q 417 213 444 213 l 314 211 l 308 211 q 292 163 303 196 q 271 103 281 129 q 250 50 261 78 q 203 -8 226 -8 l 200 -8 q 157 -6 186 -6 l 104 -7 q 53 1 64 -7 q 121 208 65 71 q 78 206 117 208 q 36 213 36 201 q 24 291 24 225 q 36 369 24 357 l 157 363 q 183 364 172 363 l 188 372 q 210 458 188 394 q 235 525 233 522 l 53 524 q 42 614 42 529 l 43 674 q 289 682 118 682 q 317 769 301 714 q 363 892 351 888 q 442 889 376 889 q 531 879 507 889 q 503 781 531 861 q 471 682 476 701 q 519 681 493 681 l 624 682 q 656 753 642 707 q 690 889 690 876 l 697 894 l 769 890 m 890 543 q 881 661 881 660 l 856 661 q 821 664 828 661 l 800 664 q 823 765 796 686 q 850 871 850 844 q 801 879 835 879 l 744 878 q 703 881 719 878 q 633 671 660 711 q 566 667 608 667 q 456 676 524 667 q 456 678 456 678 l 486 764 q 515 872 513 843 q 496 871 511 871 l 374 876 q 364 876 368 876 q 333 756 357 831 q 299 672 308 682 l 299 674 q 272 664 294 664 q 58 660 129 664 l 58 599 q 60 538 58 560 q 96 536 75 536 l 232 540 q 250 540 243 540 q 228 464 242 517 q 210 398 214 411 q 204 377 206 385 q 201 367 203 369 q 197 360 200 365 q 190 354 194 356 q 179 351 186 353 q 161 347 172 349 q 97 346 128 346 q 42 354 65 346 l 39 254 q 64 218 39 218 l 131 222 q 99 115 128 188 q 68 7 71 43 q 147 13 111 13 q 214 7 183 13 q 299 221 281 182 q 381 229 315 229 q 467 225 447 229 q 438 113 468 188 q 404 8 408 39 l 454 7 l 554 8 q 603 124 582 42 q 636 219 624 207 q 746 222 663 221 q 875 225 829 222 l 867 344 l 861 344 q 818 347 849 347 l 751 346 q 685 358 699 346 q 744 535 719 471 q 750 539 747 538 q 890 543 796 540 m 413 543 l 583 540 q 588 513 588 532 q 559 440 588 494 q 533 357 531 385 l 532 356 l 532 357 l 526 351 l 353 350 l 346 358 l 372 438 q 413 543 406 536 m 363 364 l 488 367 q 521 365 508 367 q 547 455 522 394 q 575 526 572 515 l 418 529 q 363 364 415 513 m 519 360 l 519 358 l 521 360 l 519 360 z "},"$":{"ha":618,"x_min":21,"x_max":601,"o":"m 422 1 l 425 -65 q 374 -140 425 -140 l 322 -140 q 279 -143 315 -143 q 226 -128 243 -143 q 210 -82 210 -114 l 210 -60 q 197 -9 210 -19 q 178 5 185 1 q 157 14 172 8 q 135 22 142 19 q 21 240 21 69 q 33 326 21 308 q 93 344 46 344 q 222 332 196 344 q 249 257 249 319 q 252 231 249 254 q 265 198 256 207 q 299 189 275 189 q 341 202 322 189 q 360 235 360 215 q 353 271 360 254 q 338 301 347 288 q 314 333 329 315 q 287 361 299 350 q 256 389 275 372 q 228 413 236 406 q 183 447 186 447 q 31 708 31 567 q 67 814 31 767 q 188 899 113 874 q 213 908 204 904 q 206 990 206 942 q 219 1046 206 1038 q 267 1054 233 1054 l 304 1054 q 418 1028 418 1054 l 418 908 l 419 906 l 422 903 q 601 665 601 861 q 585 616 601 626 q 551 606 569 606 q 517 607 532 607 q 472 603 503 607 q 375 644 385 603 q 369 678 371 661 q 358 706 368 694 q 324 718 349 718 q 283 700 299 718 q 268 649 268 682 q 300 581 268 615 q 400 505 332 546 q 476 457 468 464 q 561 356 531 415 q 592 233 592 297 q 488 42 592 111 q 422 1 431 3 m 282 -129 l 365 -122 q 383 -124 375 -122 q 408 -69 408 -121 l 408 -4 q 417 15 408 10 l 418 15 q 579 224 579 96 q 548 347 579 286 q 468 446 517 408 q 419 478 451 458 q 361 515 386 499 q 311 554 336 532 q 256 658 256 601 q 274 710 256 689 q 324 731 292 731 q 367 713 356 731 q 380 674 379 694 q 396 635 381 653 q 446 617 411 617 l 519 622 q 581 631 572 622 q 585 656 585 638 q 474 874 585 800 q 440 884 463 881 q 408 899 418 888 q 397 944 397 911 l 404 1025 q 306 1039 390 1039 q 218 1025 222 1039 l 226 906 q 200 888 226 896 q 84 813 122 864 q 46 703 46 763 q 74 591 46 643 q 134 510 101 539 q 222 436 167 481 q 304 363 276 392 q 372 243 372 294 q 351 192 372 211 q 303 174 331 174 q 233 267 233 174 l 235 285 q 181 324 235 324 q 143 327 169 324 q 103 330 117 331 q 83 329 90 329 q 66 328 75 329 q 55 324 57 326 q 47 318 53 322 q 39 307 40 314 q 35 291 38 300 q 33 269 33 282 l 33 242 q 83 75 33 118 q 160 27 124 40 q 211 -5 197 14 q 225 -54 225 -24 l 224 -103 q 282 -129 231 -129 z "},"%":{"ha":839,"x_min":18,"x_max":821,"o":"m 529 986 l 614 990 q 675 971 665 990 l 671 963 q 656 903 671 944 q 640 861 640 863 q 339 7 543 538 l 338 6 q 332 -1 336 3 l 332 0 q 268 -11 321 -11 l 143 -7 l 142 -6 q 146 26 138 4 q 331 551 219 242 q 453 897 442 860 q 486 992 476 988 q 529 986 504 986 m 604 978 l 521 974 q 490 976 510 974 q 456 860 482 928 q 426 774 431 792 q 371 606 421 756 q 252 281 265 324 q 228 215 239 239 q 189 108 218 192 q 156 6 160 22 q 274 3 231 3 q 326 13 317 3 q 633 885 496 444 q 658 969 658 965 q 604 978 639 978 m 18 711 l 18 714 q 103 933 32 892 q 183 954 135 954 q 306 885 267 954 q 344 725 344 817 q 314 565 344 646 q 265 495 299 522 q 185 468 231 468 q 18 711 18 468 m 494 271 l 494 274 q 578 494 508 451 q 660 514 611 514 q 782 445 743 514 q 821 285 821 376 q 792 125 821 206 q 741 55 775 82 q 661 28 707 28 q 494 271 494 28 m 172 482 q 269 523 232 482 q 319 615 307 564 q 331 737 331 665 q 296 874 331 808 q 187 940 261 940 q 67 879 113 940 q 43 825 47 854 q 36 783 39 796 q 33 713 32 751 q 35 651 33 674 q 46 592 38 629 q 67 535 54 556 q 108 499 81 515 q 172 482 135 482 m 649 42 q 746 83 708 42 q 795 174 783 124 q 807 297 807 225 q 772 434 807 368 q 663 500 738 500 q 543 439 589 500 q 519 385 524 414 q 514 342 515 356 q 509 272 508 311 q 512 211 510 233 q 522 152 514 189 q 544 95 531 115 q 584 58 557 75 q 649 42 611 42 m 604 222 l 603 344 q 617 390 603 368 q 656 411 631 411 q 697 372 686 411 q 708 276 708 333 q 706 198 708 218 q 690 156 704 178 q 650 135 676 135 q 604 222 604 135 m 128 689 l 126 744 l 126 774 q 186 851 126 851 q 232 690 232 851 q 230 638 232 658 q 214 597 228 618 q 174 575 200 575 q 128 664 128 575 l 128 689 m 142 803 l 140 699 q 142 665 140 669 q 165 590 142 593 q 207 618 196 590 q 218 704 218 646 q 185 838 218 822 q 158 829 178 838 l 150 821 q 142 803 143 807 m 647 146 q 649 146 647 146 q 685 174 676 146 q 694 260 694 201 q 661 397 694 383 q 635 389 654 397 l 626 381 q 618 363 619 367 q 619 225 618 243 q 647 146 619 146 m 321 4 l 321 3 l 322 4 l 321 4 z "},"&":{"ha":785,"x_min":17,"x_max":775,"o":"m 774 38 q 656 -11 757 -11 q 501 44 556 -11 q 301 -8 421 -8 q 99 82 181 -8 q 17 306 17 172 q 57 447 17 375 q 154 571 97 519 q 50 801 50 697 q 139 963 50 906 q 322 1021 228 1021 q 494 963 417 1021 q 571 804 571 906 q 552 719 571 761 q 500 628 533 678 q 454 553 467 578 q 506 432 454 500 q 515 470 511 444 q 526 510 519 496 q 558 536 532 524 q 612 549 585 549 q 665 549 639 549 q 710 547 692 549 q 743 528 728 544 q 758 487 758 511 q 756 449 758 463 q 751 424 754 436 q 738 390 747 413 q 722 351 729 367 q 699 295 715 335 q 669 226 682 256 q 688 201 674 215 q 704 183 701 188 q 721 162 707 179 q 741 135 735 144 q 757 111 747 126 q 775 62 775 81 q 774 38 775 43 m 760 42 l 761 54 q 683 189 761 106 q 657 225 657 215 q 701 338 657 235 q 746 482 746 442 q 700 532 746 532 l 601 532 q 548 516 563 532 q 528 464 533 500 q 515 411 524 428 q 467 470 496 418 q 439 554 439 522 l 483 629 q 514 682 492 647 q 557 806 557 753 q 485 953 557 900 q 317 1007 413 1007 q 144 949 222 1007 q 65 796 65 892 q 169 574 65 700 l 168 564 q 69 442 108 513 q 31 301 31 372 q 110 86 31 165 q 314 7 190 7 q 508 57 401 7 q 572 11 538 17 q 631 4 614 4 l 707 7 q 750 24 717 7 l 753 26 q 760 42 758 39 m 411 301 l 403 207 q 323 182 363 182 q 254 215 283 182 q 225 295 225 247 q 251 376 225 343 q 318 410 278 410 q 385 378 358 410 q 411 301 411 346 m 392 217 l 397 300 q 317 393 397 393 q 269 377 279 393 q 255 356 258 361 q 247 331 251 350 q 242 308 243 311 l 242 282 q 281 211 242 232 q 324 197 304 197 q 361 204 344 197 l 365 204 l 392 217 m 325 865 q 363 804 363 865 q 347 731 363 767 q 310 689 332 694 q 308 690 310 690 l 301 690 q 272 729 285 690 q 258 792 258 768 q 325 865 258 865 m 325 851 q 272 794 272 851 q 304 704 272 736 l 308 703 q 335 740 326 711 q 345 784 344 768 q 346 835 346 800 l 340 846 l 336 850 q 325 851 332 851 z "},"'":{"ha":257,"x_min":40,"x_max":215,"o":"m 44 639 l 40 890 q 54 985 40 971 l 56 985 l 167 996 q 211 985 200 996 l 215 639 l 208 632 l 169 632 q 105 626 153 626 q 44 639 57 626 m 201 646 l 199 976 l 61 971 l 56 839 l 58 644 l 163 644 q 179 647 174 647 l 201 646 z "},"(":{"ha":436,"x_min":39,"x_max":410,"o":"m 251 442 l 250 396 q 260 303 250 346 q 308 223 271 260 q 403 186 344 186 q 410 101 410 171 q 403 11 410 31 q 365 -8 397 -8 q 146 51 221 -8 q 39 319 39 132 l 46 497 l 42 665 q 94 890 42 808 q 300 993 161 993 l 353 994 q 406 969 396 994 q 410 931 410 954 l 404 807 q 359 781 401 800 q 305 749 317 761 q 284 719 293 738 q 269 674 275 700 q 260 626 264 649 q 255 572 257 604 q 252 523 253 540 q 251 476 251 506 l 251 442 m 60 504 l 50 311 q 154 63 50 142 q 363 6 226 6 q 392 14 383 6 l 393 44 l 392 115 q 396 172 392 153 q 314 203 357 172 q 252 281 267 233 q 238 447 238 329 q 251 644 238 564 q 295 758 264 724 q 390 813 326 792 l 393 919 q 390 972 393 954 q 286 981 335 981 q 192 960 238 981 q 121 908 146 939 q 81 831 96 876 q 57 653 57 758 l 60 504 m 397 972 l 393 972 l 397 972 z "},")":{"ha":435,"x_min":25,"x_max":396,"o":"m 40 172 l 38 67 q 43 19 38 32 q 71 6 49 6 q 282 63 213 6 q 357 158 329 94 q 385 285 385 222 l 375 518 l 376 653 q 314 908 376 829 q 244 960 289 939 q 149 981 199 981 q 44 972 100 981 q 42 901 42 947 q 46 813 42 854 q 140 758 114 788 q 199 488 199 694 l 201 383 q 185 282 201 326 q 126 205 168 238 q 40 172 83 172 m 389 515 l 396 315 q 290 51 396 131 q 69 -8 217 -8 q 33 10 40 -8 q 25 103 25 28 q 33 186 25 178 q 101 201 74 186 q 141 235 129 217 q 160 265 153 253 q 174 302 168 276 q 182 340 179 328 q 186 380 185 351 q 188 417 188 408 l 188 481 q 121 758 188 697 q 36 800 99 779 q 25 881 25 822 l 25 944 q 31 976 25 969 q 63 990 42 990 l 133 992 q 392 661 392 992 l 389 515 z "},"*":{"ha":510,"x_min":19,"x_max":490,"o":"m 154 506 l 150 503 q 124 519 139 503 q 106 538 110 535 q 78 561 103 542 q 22 622 22 608 q 117 729 44 657 q 50 810 111 749 q 32 833 42 818 q 19 850 22 847 q 54 889 28 858 q 143 972 117 960 l 144 974 q 152 975 147 975 q 175 956 157 975 q 257 878 240 888 q 357 971 288 908 q 367 965 365 967 l 364 971 q 423 913 383 951 q 483 853 463 874 q 485 849 485 850 q 440 785 485 825 q 394 736 394 744 q 438 681 404 726 q 490 625 472 635 q 474 590 490 606 q 446 565 458 575 q 407 536 433 556 q 357 497 381 517 q 349 494 351 494 q 343 501 346 496 l 346 496 l 247 588 q 211 551 246 586 q 154 506 176 515 m 254 601 l 350 510 q 390 546 353 511 q 451 592 428 581 l 471 611 q 475 621 475 615 q 428 674 458 638 q 390 721 399 711 q 381 733 381 731 q 379 736 381 735 q 426 790 385 754 q 471 846 468 825 q 360 954 396 918 q 309 909 343 938 q 260 864 275 881 q 205 908 256 864 q 151 958 154 951 q 150 959 150 958 q 149 960 150 960 q 114 924 136 947 q 36 847 65 872 q 86 790 42 839 q 131 726 131 742 q 86 674 131 718 q 36 621 42 629 l 149 517 q 244 603 215 583 q 254 601 247 601 m 350 510 l 349 508 l 350 510 z "},"+":{"ha":618,"x_min":19,"x_max":594,"o":"m 342 144 l 197 151 l 190 160 q 182 214 182 160 l 185 325 q 124 325 150 325 q 84 327 97 325 q 58 331 71 329 q 25 349 32 336 l 19 532 l 28 540 q 59 539 31 539 q 196 553 88 539 l 196 639 q 221 732 196 722 q 288 724 238 724 l 417 729 l 424 722 l 418 585 q 438 554 418 554 l 513 558 q 594 544 588 558 q 592 469 592 519 l 593 403 q 587 342 593 356 q 557 328 581 328 l 424 329 l 425 311 l 414 160 q 342 144 399 144 m 203 165 l 344 158 q 400 164 383 158 q 410 293 400 263 l 410 332 q 439 346 415 346 l 543 342 q 572 349 565 342 q 579 375 579 357 l 576 488 q 579 539 576 506 l 549 539 l 458 542 q 417 547 426 542 q 407 568 407 553 l 410 628 l 410 715 l 288 710 q 219 718 242 710 q 208 610 208 678 l 210 547 q 33 525 188 525 l 39 350 q 122 341 54 343 q 196 332 189 339 l 196 335 q 199 329 199 332 l 199 318 l 203 165 m 424 554 l 422 556 l 424 554 z "},",":{"ha":261,"x_min":36,"x_max":225,"o":"m 39 0 l 36 7 q 42 167 36 167 l 42 165 q 133 181 57 181 q 225 165 210 181 q 199 -87 222 69 q 190 -115 196 -94 q 176 -144 185 -136 l 175 -144 q 133 -142 156 -142 l 85 -143 q 78 -138 78 -142 q 76 -133 78 -135 l 76 -129 l 74 -129 l 76 -129 q 103 -7 79 -82 l 40 -1 l 39 0 m 211 158 l 101 167 q 56 161 76 167 q 50 11 50 121 q 119 -4 114 11 q 103 -67 113 -22 q 90 -125 94 -111 l 90 -128 l 132 -126 q 174 -129 151 -126 q 185 -83 174 -106 q 211 158 204 15 z "},"-":{"ha":724,"x_min":43,"x_max":681,"o":"m 676 503 l 672 368 q 681 274 672 319 l 674 264 l 50 274 l 43 282 l 47 501 q 51 506 49 503 q 54 510 53 508 l 669 510 l 676 503 m 658 363 l 663 496 l 61 496 q 56 399 56 453 l 57 288 q 360 283 157 288 q 665 278 564 278 q 658 363 658 313 z "},".":{"ha":263,"x_min":33,"x_max":226,"o":"m 211 -7 l 51 -6 l 47 -6 q 33 53 33 0 l 39 161 l 43 169 q 144 183 74 183 q 226 163 215 183 q 218 0 218 111 l 211 -7 m 51 8 l 204 7 q 211 161 204 119 q 145 169 182 169 q 53 158 108 169 l 46 50 q 51 8 46 24 z "},"/":{"ha":572,"x_min":21,"x_max":553,"o":"m 407 986 l 492 990 q 553 971 543 990 l 549 963 q 533 903 549 944 q 518 861 518 863 q 217 7 421 538 l 215 6 q 210 -1 214 3 l 210 0 q 146 -11 199 -11 l 25 -7 q 22 -2 22 -4 q 22 10 22 0 q 27 42 21 21 q 44 87 33 63 q 60 125 56 111 q 175 446 115 306 q 249 655 203 519 q 307 825 294 790 q 331 897 319 860 q 364 992 354 988 q 407 986 382 986 m 482 978 l 399 974 q 368 976 388 974 q 334 860 360 928 q 303 774 308 792 q 249 606 299 756 q 35 11 82 163 l 35 6 q 152 3 110 3 q 204 13 194 3 q 511 885 374 444 q 536 969 536 965 q 482 978 517 978 m 199 4 l 199 3 l 200 4 l 199 4 z "},":":{"ha":285,"x_min":44,"x_max":238,"o":"m 222 -7 l 63 -6 l 58 -6 q 44 53 44 0 l 50 161 l 54 169 q 156 183 85 183 q 238 163 226 183 q 229 0 229 111 l 222 -7 m 222 460 l 63 461 l 58 461 q 44 519 44 467 l 50 628 l 54 636 q 156 650 85 650 q 238 629 226 650 q 229 467 229 578 l 222 460 m 63 8 l 215 7 q 222 161 215 119 q 156 169 193 169 q 64 158 119 169 l 57 50 q 63 8 57 24 m 63 475 l 215 474 q 222 628 215 576 q 161 635 203 635 q 64 625 119 635 l 57 517 q 63 475 57 490 z "},";":{"ha":285,"x_min":44,"x_max":238,"o":"m 93 -142 l 89 -133 l 89 -129 l 86 -129 l 89 -129 q 115 -7 92 -82 l 53 -1 q 50 3 50 1 q 49 86 50 6 q 54 167 49 167 l 54 165 q 146 181 69 181 q 238 165 222 181 q 235 85 236 139 q 232 6 233 32 q 211 -87 224 -3 q 203 -115 208 -94 q 189 -144 197 -136 l 188 -144 q 146 -142 168 -142 l 97 -143 q 93 -142 94 -142 m 224 158 l 114 167 q 68 161 89 167 q 63 11 63 121 q 129 -7 129 11 l 129 -10 l 103 -125 l 103 -128 l 144 -126 q 186 -129 164 -126 q 197 -83 186 -106 q 203 -61 197 -81 q 215 4 215 -17 l 218 7 q 224 158 221 110 m 222 460 l 63 461 l 58 461 q 44 519 44 467 l 50 628 l 54 636 q 156 650 85 650 q 238 629 226 650 q 229 467 229 578 l 222 460 m 63 475 l 215 474 q 222 628 215 576 q 161 635 203 635 q 64 625 119 635 l 57 517 q 63 475 57 490 m 215 6 q 217 8 215 11 q 215 6 217 6 z "},"<":{"ha":504,"x_min":13,"x_max":481,"o":"m 481 124 q 450 92 474 117 q 372 21 403 43 l 364 21 q 230 147 319 65 q 88 282 140 229 q 13 372 35 335 l 13 378 q 63 440 40 418 q 107 484 85 463 q 149 526 129 506 q 241 622 168 546 q 354 739 314 699 l 363 739 q 425 684 381 729 q 469 633 469 639 q 347 499 432 583 q 229 372 263 414 q 347 258 263 342 q 481 135 431 175 l 481 124 m 465 129 q 333 252 417 169 q 215 365 250 335 l 215 376 q 332 503 249 419 q 453 635 415 586 q 401 681 432 647 q 360 725 371 715 q 214 576 288 653 q 117 476 140 499 q 83 442 94 454 q 26 375 42 399 q 83 303 53 333 q 135 252 113 274 q 163 225 157 231 l 164 225 q 368 35 303 100 q 424 86 400 60 q 465 129 449 113 z "},"=":{"ha":647,"x_min":50,"x_max":599,"o":"m 594 643 l 593 538 q 599 447 593 488 l 592 438 l 57 446 l 50 454 l 54 642 q 58 646 56 643 q 61 650 60 649 l 588 650 l 594 643 m 594 356 l 593 250 q 599 160 593 200 l 592 150 l 57 158 l 50 167 l 54 354 q 58 358 56 356 q 61 363 60 361 l 588 363 l 594 356 m 579 529 l 581 636 l 68 636 q 63 547 63 597 l 64 460 q 323 456 150 460 q 583 451 496 451 q 579 529 579 478 m 579 242 l 581 349 l 68 349 q 63 260 63 310 l 64 172 q 323 168 150 172 q 583 164 496 164 q 579 242 579 190 z "},">":{"ha":504,"x_min":24,"x_max":492,"o":"m 143 740 q 147 739 144 739 q 151 738 150 739 q 319 563 201 678 q 492 379 438 447 l 492 371 q 256 128 418 275 q 142 22 181 61 q 132 21 135 22 q 73 74 110 36 q 24 124 36 113 l 24 135 q 149 253 69 171 q 275 372 229 336 q 156 500 240 415 q 35 635 72 585 q 143 740 111 724 m 290 375 l 289 365 q 161 245 242 328 q 38 128 81 163 q 72 94 67 104 l 94 72 q 116 54 103 68 q 135 36 129 40 q 246 138 171 71 q 478 375 406 279 q 309 555 425 442 q 144 725 193 668 q 94 680 125 713 q 50 636 64 647 q 172 501 88 586 q 290 375 257 417 z "},"?":{"ha":626,"x_min":15,"x_max":606,"o":"m 331 238 l 229 240 l 211 240 q 194 244 197 240 q 190 272 190 257 q 193 331 190 286 q 282 550 210 446 q 308 585 288 558 q 338 626 328 613 q 367 700 367 668 q 344 749 367 732 q 282 767 322 767 q 245 735 260 758 q 210 694 231 711 q 149 678 190 678 q 15 693 31 678 q 107 902 15 813 q 315 992 199 992 q 518 923 431 992 q 606 750 606 854 q 529 546 606 646 q 482 492 519 533 q 428 422 444 450 q 401 340 413 394 q 381 269 389 286 l 381 254 q 382 249 382 253 q 331 238 375 238 m 29 699 l 150 690 q 195 697 183 690 q 231 742 207 703 q 281 781 256 781 q 356 755 329 781 q 382 702 382 729 q 361 638 382 675 q 309 562 340 601 q 269 508 278 522 q 207 326 221 428 q 204 303 207 321 q 201 275 201 286 q 204 253 201 264 l 317 251 q 367 254 350 251 q 365 263 365 257 q 443 469 365 360 q 481 512 454 485 q 518 554 507 539 q 592 740 592 654 q 508 912 592 847 q 316 976 425 976 q 118 892 207 976 q 29 699 29 807 m 363 -7 l 203 -6 l 199 -6 q 185 53 185 0 l 190 161 l 194 169 q 296 183 225 183 q 378 163 367 183 q 369 0 369 111 l 363 -7 m 203 8 l 356 7 q 363 161 356 119 q 297 169 333 169 q 204 158 260 169 l 197 50 q 203 8 197 24 z "},"@":{"ha":783,"x_min":38,"x_max":750,"o":"m 38 461 l 39 524 q 72 761 39 688 q 175 878 108 840 q 373 922 258 922 q 556 897 488 922 q 660 837 624 872 q 718 746 697 801 q 744 644 739 690 q 750 492 750 599 q 739 338 750 386 q 583 204 711 204 q 496 249 524 204 q 377 217 444 217 q 265 267 310 217 q 221 422 221 317 q 287 599 221 526 q 463 672 353 672 q 553 647 514 672 q 572 597 572 628 l 565 461 q 586 338 565 350 q 597 389 594 353 q 604 433 600 425 l 604 507 q 601 528 601 513 l 603 567 q 579 684 603 628 q 508 764 556 740 l 508 765 q 453 779 490 774 q 401 789 415 785 q 271 765 313 789 q 179 482 179 713 q 183 372 179 425 q 191 292 188 318 q 207 224 194 265 q 239 160 219 182 q 296 120 258 138 q 385 103 333 103 q 682 179 553 103 q 720 119 700 168 q 744 61 740 69 q 742 53 742 56 q 429 -39 604 -39 q 168 17 243 -39 q 85 128 118 53 q 53 242 64 174 q 41 349 42 311 q 39 415 40 388 q 38 461 38 443 m 553 517 l 551 557 q 556 586 551 579 q 544 636 556 622 q 464 658 510 658 q 291 586 349 658 q 233 419 233 514 q 383 231 233 231 q 494 265 444 231 q 506 263 500 263 q 576 219 528 219 q 653 232 625 219 q 697 266 681 244 q 722 325 713 288 q 736 499 736 386 q 681 796 736 715 q 396 910 593 910 q 150 842 236 910 q 79 739 108 808 q 56 642 64 703 q 49 550 49 581 l 50 483 q 50 469 50 476 q 50 454 50 463 l 50 433 q 133 75 50 178 q 405 -28 215 -28 q 729 61 594 -28 q 682 163 721 79 q 378 89 551 89 q 256 126 296 89 q 217 165 233 146 q 192 219 201 185 q 178 276 183 253 q 169 342 172 300 q 167 444 167 411 l 167 485 q 217 733 167 664 q 278 784 238 763 q 384 806 318 806 q 514 778 450 806 l 514 776 q 597 676 578 744 q 617 513 617 608 q 622 469 622 499 q 589 322 622 356 q 550 439 550 322 l 553 517 m 339 396 l 339 399 q 359 507 339 476 q 450 538 379 538 q 456 526 451 532 q 454 500 454 522 q 388 347 454 347 q 353 360 368 347 q 339 396 339 374 m 432 456 l 440 524 q 360 472 372 524 q 353 397 353 442 l 353 389 q 381 360 358 367 l 390 360 q 435 418 435 375 l 432 456 z "},"A":{"ha":603,"x_min":-1,"x_max":614,"o":"m 193 -8 l 3 -4 q 0 1 0 -1 q -1 4 0 3 q 8 55 3 21 q 14 97 13 89 q 211 974 93 599 q 215 976 213 975 q 218 979 217 978 l 225 979 q 303 983 231 982 q 389 986 375 985 q 414 914 403 969 l 426 853 q 614 4 482 611 l 614 0 q 518 -14 607 -14 q 414 3 429 -14 q 385 112 401 35 q 350 225 368 189 l 303 228 q 289 225 297 225 l 272 226 q 248 115 260 197 q 213 -3 236 33 l 210 -4 q 207 -6 208 -6 l 193 -8 m 424 13 q 460 8 436 11 q 500 2 483 4 q 543 0 517 0 q 599 6 569 0 q 507 419 569 138 q 427 782 444 701 q 398 906 410 863 q 383 972 386 949 q 224 965 318 965 q 28 93 99 568 q 14 8 17 19 q 147 4 106 4 q 201 7 188 4 q 236 122 222 40 q 268 240 253 233 l 297 240 q 322 243 301 243 q 361 235 342 243 q 396 119 379 196 q 424 13 413 42 m 361 390 l 278 389 q 251 399 261 389 q 306 694 278 694 l 311 694 q 351 565 339 660 q 360 474 356 532 q 368 397 365 415 l 361 390 m 265 403 q 292 401 274 401 q 353 404 311 401 q 330 583 336 544 q 322 635 324 621 q 308 678 317 669 q 275 509 283 601 q 265 403 267 417 z "},"B":{"ha":667,"x_min":51,"x_max":654,"o":"m 53 247 l 54 690 q 51 963 54 871 q 149 993 72 983 q 300 1003 225 1003 q 485 962 428 1003 q 547 917 543 921 q 583 868 550 914 q 617 735 617 822 q 590 592 617 647 q 496 503 564 538 q 481 493 485 497 q 483 490 481 490 q 617 386 579 446 q 654 222 654 326 l 654 201 q 617 86 638 108 q 336 -15 525 -15 q 274 -14 308 -15 q 213 -12 239 -12 q 165 -12 188 -12 q 117 -10 142 -11 q 56 4 61 -7 q 53 247 53 85 m 119 11 l 342 1 q 625 144 586 1 q 638 203 633 172 l 638 224 q 553 435 638 371 q 509 456 547 439 q 463 492 471 474 q 485 518 463 501 q 575 599 560 575 q 606 718 606 651 q 517 915 606 842 q 292 988 428 988 q 68 957 197 988 q 71 689 71 868 l 69 251 q 72 13 69 92 q 92 10 83 10 l 119 11 m 443 274 q 404 197 443 218 q 296 176 365 176 q 236 179 278 176 q 215 303 215 219 q 232 419 215 388 q 257 419 236 419 q 294 419 278 419 q 336 414 310 418 q 378 401 363 410 q 433 335 417 379 q 443 274 443 301 m 226 747 l 225 778 q 291 801 236 801 q 385 784 346 801 q 440 735 425 767 q 451 686 451 706 q 394 599 451 631 q 268 568 338 568 q 237 574 243 568 q 228 583 231 581 q 224 594 225 585 q 222 607 222 604 l 222 639 l 226 747 m 240 403 q 232 326 232 365 q 244 196 232 286 q 315 192 307 192 q 394 210 365 192 q 424 268 424 228 q 414 337 424 308 q 376 382 404 365 q 324 401 347 399 q 272 403 301 403 l 240 403 m 239 635 l 238 613 q 248 590 238 593 q 269 588 258 588 q 383 613 332 588 q 435 685 435 638 q 375 769 435 744 q 303 785 339 785 q 242 774 267 785 l 243 742 l 239 635 z "},"C":{"ha":678,"x_min":36,"x_max":660,"o":"m 36 549 l 39 744 q 36 773 36 751 q 56 842 36 794 q 152 976 93 935 q 322 1018 211 1018 q 559 916 458 1018 q 660 679 660 814 q 644 582 660 626 q 551 568 631 568 q 428 589 471 568 q 422 644 424 607 q 417 704 419 681 q 394 748 414 728 q 339 768 375 768 q 317 764 332 765 q 274 749 286 761 q 267 736 268 739 q 267 733 267 733 l 265 731 l 264 729 q 256 658 256 703 l 258 581 l 253 426 q 350 217 253 217 q 424 257 399 217 q 437 336 433 274 q 451 404 440 399 q 478 400 464 400 l 547 407 q 638 396 607 407 q 657 293 657 375 q 565 66 657 157 q 319 -25 474 -25 q 78 72 147 -25 q 64 95 69 82 q 54 117 58 108 q 47 143 50 126 q 43 167 44 160 q 41 194 42 175 q 40 219 40 214 q 39 247 39 225 l 39 272 q 36 396 36 353 l 36 549 m 244 593 l 243 643 q 263 756 243 731 l 264 758 q 328 783 289 783 q 389 770 367 783 q 420 733 411 757 q 433 688 429 710 q 437 636 436 665 q 440 596 438 607 q 562 582 518 582 q 632 590 606 582 q 647 683 647 639 q 547 907 647 811 q 307 1003 446 1003 q 125 935 199 1003 q 51 751 51 867 q 56 691 56 736 q 52 598 56 646 q 49 526 49 550 l 53 274 l 53 242 q 53 208 53 215 q 56 178 54 201 q 61 145 58 156 q 69 117 64 135 q 104 61 78 92 q 318 -11 171 -11 q 554 73 465 -11 q 643 292 643 157 q 631 383 643 339 q 597 386 618 386 q 567 390 575 386 l 486 388 q 456 389 465 388 q 451 331 451 371 q 442 264 451 290 q 409 220 433 238 q 356 203 385 203 q 240 439 240 203 q 242 531 240 478 q 244 593 244 583 z "},"D":{"ha":669,"x_min":47,"x_max":646,"o":"m 213 982 l 311 983 q 422 972 401 983 q 469 947 443 960 q 513 912 494 933 q 551 861 532 890 q 627 690 608 760 q 646 562 646 621 q 643 419 646 503 l 629 303 l 628 301 q 601 233 626 289 q 446 0 538 92 q 264 -6 364 -6 l 85 -4 q 86 -14 85 -10 q 81 -4 83 -10 l 49 -4 q 78 -1 58 -1 q 71 0 75 0 q 47 475 47 192 l 50 833 l 49 953 q 50 957 49 956 q 213 982 53 982 m 615 304 l 629 421 q 632 565 632 507 q 614 690 632 622 q 540 854 596 757 q 393 967 485 936 q 227 965 367 965 q 63 953 88 965 l 63 951 l 64 825 l 61 479 q 83 10 61 201 l 274 8 q 440 14 367 8 q 614 301 575 183 l 617 304 l 615 304 m 243 344 l 246 404 l 246 672 q 329 686 260 686 q 431 618 399 686 q 425 350 499 476 q 392 311 415 331 q 360 292 369 292 q 349 293 350 292 q 299 289 332 289 q 254 303 265 289 q 243 344 243 317 m 283 303 l 343 307 q 354 306 351 307 l 356 306 q 385 325 363 306 q 413 356 407 344 q 450 483 450 417 q 417 612 450 550 q 328 674 385 674 l 260 667 l 263 561 l 257 393 l 256 358 q 283 303 256 311 z "},"E":{"ha":668,"x_min":49,"x_max":651,"o":"m 283 203 l 561 193 q 643 196 588 193 l 650 189 l 650 186 q 651 122 651 164 q 632 -3 651 17 l 278 -8 q 63 0 169 -8 q 59 4 61 1 q 56 8 57 7 l 49 625 q 57 958 49 825 l 64 964 q 249 970 129 968 q 407 974 369 972 l 550 981 q 640 972 597 981 q 650 914 650 951 l 646 767 q 515 746 636 746 l 397 747 l 276 743 l 271 643 q 276 592 271 614 q 360 586 311 586 l 443 588 q 454 522 454 564 l 451 418 q 453 386 451 396 q 383 371 444 371 l 325 372 q 303 369 317 369 q 285 367 290 368 q 276 283 276 325 q 283 203 276 242 m 281 6 l 626 11 q 638 110 638 60 q 636 181 638 160 q 569 179 614 179 l 279 189 q 264 276 264 189 q 278 376 264 363 q 349 389 292 389 l 407 386 q 439 390 428 386 l 440 508 q 436 574 440 540 l 357 575 l 307 572 q 254 621 254 572 q 267 756 254 743 l 413 761 l 494 760 q 632 771 571 760 l 636 904 q 633 960 636 942 q 551 965 600 965 l 407 960 q 252 956 369 958 q 71 950 135 954 q 63 621 63 818 l 69 14 q 281 6 175 6 m 282 365 l 279 365 l 282 365 z "},"F":{"ha":686,"x_min":49,"x_max":692,"o":"m 499 425 l 501 378 q 493 356 501 364 l 492 356 q 318 335 442 347 q 307 1 307 186 q 218 -11 300 -11 q 117 -10 136 -11 l 85 -11 q 50 4 58 -11 q 49 371 50 4 l 53 747 l 53 943 l 57 951 q 157 966 101 965 q 280 972 213 967 q 463 978 347 978 q 682 954 578 978 q 692 850 692 933 q 688 756 692 767 l 688 742 q 629 729 681 729 l 608 729 q 315 714 418 729 q 303 647 303 682 q 321 601 303 611 q 391 592 339 592 q 490 600 443 592 q 504 543 504 585 l 499 425 m 319 349 q 344 352 322 349 q 414 360 367 356 q 486 368 461 365 q 482 407 482 385 l 490 540 q 485 585 490 569 q 388 578 443 578 q 311 590 333 578 q 289 659 289 601 q 310 726 289 717 q 468 739 374 735 q 630 743 603 743 q 674 747 657 743 q 675 763 674 757 l 674 942 q 417 965 565 965 q 67 939 269 965 l 64 7 q 173 0 119 0 q 293 7 226 0 q 304 343 293 194 q 308 346 306 344 q 311 349 310 347 l 317 349 q 318 350 317 350 l 319 353 l 319 349 z "},"G":{"ha":668,"x_min":29,"x_max":644,"o":"m 329 422 l 326 481 l 335 490 q 435 508 371 508 l 625 496 l 631 493 q 644 374 644 479 q 643 238 644 269 q 631 153 642 206 q 596 69 619 101 q 308 -28 526 -28 q 117 49 183 -28 q 56 189 75 94 q 31 390 32 304 q 29 490 29 476 l 29 589 q 156 943 29 871 q 351 981 222 981 q 557 902 479 981 q 635 708 635 824 l 628 654 q 583 646 613 646 l 561 647 q 508 643 547 643 q 446 651 469 643 q 432 683 442 660 q 415 719 422 707 q 361 767 394 757 l 301 768 q 232 389 232 743 q 317 190 232 215 q 410 216 381 190 q 439 324 439 242 l 404 324 q 369 318 394 318 q 334 333 343 318 q 325 381 325 347 q 329 422 325 414 m 619 482 l 435 493 q 342 478 372 493 l 340 476 l 340 475 q 346 438 346 458 l 340 358 q 364 333 340 333 l 417 339 q 448 332 440 339 q 456 308 456 325 q 422 210 456 246 q 342 175 389 175 q 269 198 294 175 q 235 264 244 221 q 219 401 219 333 q 221 507 219 468 q 224 578 222 546 q 226 624 225 610 q 231 667 228 638 q 241 712 235 696 q 257 746 247 728 q 326 781 275 781 q 454 664 425 781 l 554 660 q 571 663 565 663 l 593 661 q 603 663 596 663 q 621 692 621 663 l 621 718 q 533 902 621 838 q 318 967 444 967 q 117 896 192 967 q 53 714 65 847 q 44 485 44 622 q 126 58 44 158 q 308 -14 186 -14 q 601 103 550 -14 q 633 286 633 174 q 619 482 633 329 z "},"H":{"ha":693,"x_min":44,"x_max":658,"o":"m 111 975 l 193 979 q 243 967 236 979 q 255 799 251 913 q 268 629 258 686 q 267 633 267 629 q 271 607 268 624 q 335 601 299 601 q 411 608 372 601 q 421 817 421 738 q 417 964 421 897 q 475 985 429 976 q 551 993 521 993 q 597 988 582 993 l 614 988 l 621 981 q 658 8 638 486 l 653 1 q 565 -7 619 -7 l 476 -6 q 465 -7 472 -7 q 449 -1 458 -7 q 438 191 439 64 q 428 378 436 318 q 354 385 389 385 q 278 376 319 385 q 272 288 272 338 l 278 107 q 271 7 278 49 q 268 4 268 7 q 217 -8 249 -8 l 114 3 q 79 -4 96 3 q 56 153 56 4 l 56 233 l 44 804 q 49 971 44 971 l 49 969 l 56 978 l 111 975 m 264 117 l 260 292 q 265 383 260 343 q 361 400 299 400 q 439 389 424 400 q 449 240 449 381 q 461 7 449 100 l 469 7 q 518 13 488 13 l 597 10 q 644 14 621 10 l 607 974 q 552 974 597 974 q 431 960 507 975 q 435 817 435 897 q 425 603 435 736 l 418 596 q 374 591 410 594 q 310 588 338 588 q 258 600 283 588 q 243 783 249 663 q 229 961 238 903 q 200 963 219 963 l 103 957 q 63 963 79 957 q 58 764 58 863 q 76 94 58 335 l 81 11 q 110 15 94 15 l 214 4 q 257 14 239 4 q 264 117 264 56 z "},"I":{"ha":361,"x_min":44,"x_max":315,"o":"m 315 976 l 306 315 q 314 7 306 131 q 233 -15 292 -15 l 90 -6 q 60 -10 69 -6 l 47 -4 q 53 232 53 101 l 44 724 q 49 886 44 793 q 65 990 54 979 l 222 982 l 308 983 l 315 976 m 228 0 l 300 10 q 292 314 292 132 l 301 969 l 221 968 l 72 976 q 60 732 60 871 l 68 288 q 61 3 68 163 q 96 6 81 6 l 228 0 z "},"J":{"ha":643,"x_min":-7,"x_max":603,"o":"m 597 989 l 596 919 l 603 644 l 599 385 q 596 284 597 318 q 581 194 594 250 q 543 101 568 138 q 267 -19 460 -19 q -7 372 -7 -19 q 10 406 -7 396 q 85 415 28 415 q 228 397 219 415 q 297 239 228 253 q 310 236 307 236 l 329 236 q 382 349 382 257 l 378 561 l 381 985 q 384 989 382 986 q 388 993 386 992 q 590 996 454 996 l 597 989 m 389 731 l 396 346 q 319 221 396 221 q 214 392 214 221 q 103 401 149 401 q 11 394 57 401 q 8 346 8 367 q 36 163 8 254 q 117 35 64 72 q 269 -3 171 -3 q 532 108 467 -3 q 583 314 578 181 q 588 518 588 435 l 579 885 q 582 982 579 918 q 489 981 551 981 q 394 979 426 981 l 389 731 m 219 -1 l 218 -1 l 219 -1 z "},"K":{"ha":638,"x_min":44,"x_max":650,"o":"m 504 972 l 610 975 q 649 963 644 975 q 531 717 621 869 q 413 499 440 565 q 650 8 571 171 l 644 -1 q 543 -8 603 -8 l 446 -3 q 330 194 383 74 q 264 340 276 315 q 263 282 263 321 l 269 7 q 166 -12 261 -12 q 53 6 71 -12 q 44 299 44 151 l 56 969 q 59 974 57 971 q 63 978 61 976 q 249 975 63 978 l 256 968 q 258 660 258 865 q 314 740 294 707 q 358 819 333 772 q 447 972 414 924 q 454 976 449 974 q 504 972 479 972 m 256 13 l 249 281 q 251 364 249 308 q 249 369 249 367 l 265 368 q 319 253 286 329 q 454 10 396 83 q 545 6 497 6 q 633 11 593 6 q 400 496 478 333 l 400 501 q 517 719 426 568 q 633 960 607 869 q 592 963 606 963 l 496 958 q 456 961 481 958 q 395 865 415 904 q 355 785 375 826 q 325 728 335 744 q 260 635 297 672 q 258 631 260 633 q 244 635 249 631 q 242 751 242 646 l 243 872 q 242 961 243 932 l 69 964 l 58 283 q 65 11 58 124 q 156 3 85 3 q 256 13 228 3 z "},"L":{"ha":640,"x_min":43,"x_max":646,"o":"m 633 53 l 628 125 q 625 162 625 142 q 631 197 625 182 l 631 203 q 603 201 621 201 q 306 214 603 201 q 279 213 288 214 l 271 221 l 265 833 q 269 968 265 924 q 169 982 222 982 q 61 971 117 982 l 68 518 l 57 6 l 624 7 q 633 53 633 26 m 644 200 l 639 146 q 642 129 639 140 l 642 126 l 646 50 q 646 33 646 47 q 642 8 646 18 q 556 -10 635 -10 l 358 -12 l 50 -8 q 47 -4 49 -7 q 43 0 44 -1 l 54 521 l 47 975 l 51 983 q 142 997 83 997 q 283 972 269 997 q 279 838 279 928 l 285 228 l 608 215 q 638 218 618 215 l 644 200 z "},"M":{"ha":696,"x_min":50,"x_max":647,"o":"m 579 -4 l 488 -8 q 444 3 450 -8 q 438 63 438 14 l 439 174 q 426 517 439 389 q 406 456 419 499 q 344 331 376 363 q 267 478 313 331 q 260 497 263 490 q 254 328 254 426 q 268 4 254 229 q 200 -8 261 -8 l 132 -7 l 79 -8 q 55 15 60 -8 q 50 94 50 39 l 50 379 l 54 951 l 58 960 q 139 969 78 969 l 251 967 q 303 858 279 939 q 350 753 328 778 q 382 856 361 775 q 435 969 403 938 q 458 967 449 967 l 639 975 l 646 968 q 643 844 643 926 l 647 547 l 640 -1 l 633 -8 l 579 -4 m 453 175 l 451 83 q 456 7 451 44 l 507 7 q 559 11 524 11 q 626 7 594 11 l 633 522 l 629 839 q 632 961 629 921 l 468 951 q 436 954 453 951 q 394 842 417 931 q 358 742 371 754 l 353 739 q 319 778 333 739 q 289 872 306 817 q 249 953 272 926 l 164 954 q 68 947 106 954 l 60 163 q 68 10 60 85 l 68 7 l 175 6 q 254 10 228 6 q 240 335 240 229 q 250 529 240 440 l 250 532 q 256 531 253 531 q 264 535 260 531 l 263 531 l 264 531 q 297 430 264 515 q 342 344 331 344 q 383 447 360 367 q 426 546 407 526 q 438 540 429 543 q 453 175 453 421 z "},"N":{"ha":692,"x_min":46,"x_max":642,"o":"m 640 978 l 642 0 l 635 -7 l 633 -7 q 589 -14 618 -14 l 461 -7 q 456 -3 458 -6 q 400 115 449 14 q 334 259 351 217 q 296 360 317 301 q 264 446 275 418 q 256 197 256 354 q 260 0 256 40 q 192 -18 242 -18 q 101 -12 142 -18 q 51 3 60 -6 q 46 557 51 3 q 60 974 46 800 q 110 986 85 986 q 143 983 135 986 q 251 965 242 983 q 288 886 251 949 q 324 808 324 824 q 344 765 329 792 q 368 719 360 738 q 432 592 403 644 q 438 692 438 636 l 431 903 q 435 979 431 942 q 548 993 464 993 q 640 978 632 993 m 465 7 l 589 0 l 628 7 l 626 972 q 539 979 578 979 q 449 972 500 979 q 444 882 444 926 l 451 638 q 435 569 451 586 l 433 569 q 405 603 421 569 q 380 658 389 638 q 363 698 371 678 q 352 723 354 718 q 339 746 350 728 q 310 806 313 786 q 274 876 307 813 q 238 960 242 939 q 184 965 224 963 q 138 971 144 967 l 114 971 q 99 968 110 968 l 88 968 q 74 967 78 968 q 60 557 60 797 l 65 8 l 201 0 q 223 3 208 3 q 244 4 238 3 q 240 114 240 58 l 247 351 l 247 367 q 246 392 246 381 q 261 475 246 475 l 263 475 q 269 471 264 474 q 305 375 282 440 q 346 267 328 310 q 408 130 364 225 q 465 7 453 35 z "},"O":{"ha":671,"x_min":32,"x_max":639,"o":"m 622 540 l 626 675 q 601 819 626 761 q 336 967 536 967 q 194 942 260 967 q 99 872 129 918 q 46 628 46 794 q 50 392 46 461 q 54 281 54 322 q 56 215 54 240 q 82 96 60 143 q 296 -14 128 -14 q 454 13 379 -14 q 563 85 529 39 q 624 421 624 169 l 622 540 m 636 554 l 638 403 q 574 76 638 169 q 460 -1 539 28 q 314 -29 382 -29 q 205 -19 246 -29 q 138 6 164 -8 q 92 49 111 21 q 64 98 74 76 q 49 158 54 119 q 42 218 43 196 q 41 282 42 240 q 36 390 40 324 q 32 627 32 457 q 88 879 32 797 q 314 981 154 981 q 563 906 474 981 q 613 825 588 883 q 639 676 639 767 l 636 554 m 464 501 l 460 282 q 418 199 460 229 q 333 168 376 168 q 265 183 290 168 q 224 221 239 197 q 201 278 210 244 q 188 375 192 318 q 181 529 181 474 q 193 640 181 585 q 244 741 206 696 q 342 786 282 786 q 429 736 408 786 q 453 646 447 696 q 463 581 460 596 l 463 578 l 464 501 m 450 501 l 449 576 q 443 640 447 582 q 422 725 439 697 q 338 774 390 774 q 229 699 264 774 q 194 526 194 625 q 201 434 194 506 q 208 342 207 363 q 210 310 208 322 q 214 282 211 299 q 232 224 219 244 q 326 182 274 182 q 412 208 378 182 q 446 283 446 235 l 450 501 z "},"P":{"ha":690,"x_min":44,"x_max":681,"o":"m 46 275 l 51 710 q 44 964 51 858 q 48 968 46 965 q 51 972 50 971 q 249 999 161 999 q 407 981 336 999 q 540 926 478 963 q 641 826 603 889 q 679 681 679 763 l 681 663 q 574 449 681 544 q 344 353 468 353 q 299 357 322 353 l 304 15 l 299 10 q 301 11 300 11 l 300 10 q 297 8 300 8 q 294 7 294 8 q 158 -8 246 -8 q 54 7 69 -8 q 46 275 46 140 m 663 632 q 665 656 663 650 l 665 682 q 628 824 665 764 q 528 918 590 885 q 250 982 408 982 q 58 960 150 982 q 64 714 64 850 l 60 272 q 67 14 60 122 q 167 7 92 7 q 290 19 242 7 l 285 364 l 293 372 q 344 367 315 367 q 550 444 456 367 q 663 632 644 522 m 251 778 l 294 785 q 433 746 382 785 q 479 653 479 714 q 404 568 479 585 q 279 556 350 556 q 242 686 242 556 l 243 724 q 251 778 243 769 m 308 572 l 338 571 q 432 594 399 574 q 465 671 465 615 q 425 735 451 715 q 328 768 381 768 l 261 765 l 260 681 q 272 569 260 607 l 288 569 q 308 572 301 572 z "},"Q":{"ha":688,"x_min":31,"x_max":656,"o":"m 31 363 l 35 531 q 68 867 35 799 q 368 999 132 999 q 517 970 469 999 q 596 888 565 942 q 639 758 626 835 q 656 531 656 646 q 649 327 656 417 q 640 226 643 238 q 603 108 639 188 q 614 94 607 103 q 629 65 629 76 q 593 10 629 38 q 528 -17 557 -17 q 469 22 500 -17 q 338 -17 425 -17 q 181 22 251 -17 q 71 135 111 61 q 31 363 31 208 m 49 426 l 47 339 q 83 137 47 203 q 188 35 119 71 q 342 -1 257 -1 q 468 39 428 -1 q 492 19 474 36 q 521 -4 510 1 q 583 21 553 -4 q 614 71 614 46 l 610 79 q 589 106 594 92 l 589 111 q 626 228 626 201 l 626 231 q 635 339 629 242 q 642 547 642 436 q 561 911 642 800 q 498 963 536 946 q 434 983 460 981 q 365 985 408 985 q 81 861 133 985 q 47 564 47 781 l 49 426 m 469 261 q 471 253 469 260 q 460 247 463 250 q 437 281 450 257 q 413 315 424 304 l 403 315 q 396 313 400 314 q 380 299 392 311 q 347 275 368 288 q 321 254 325 263 q 367 178 321 219 q 379 165 376 168 q 358 151 374 151 q 203 318 215 151 q 200 392 200 344 q 206 454 200 439 l 201 518 q 224 734 201 674 q 318 794 247 794 q 447 747 404 794 q 482 625 478 713 q 483 546 483 597 l 488 426 l 469 261 m 222 499 l 215 350 q 244 215 215 264 q 358 167 272 167 q 306 250 306 219 q 339 289 306 272 q 372 311 363 301 q 406 329 390 329 q 430 319 421 329 q 447 291 439 308 q 460 268 456 274 q 469 358 460 329 l 468 382 l 471 483 l 471 574 q 463 672 471 646 q 445 722 456 699 q 419 756 435 744 q 321 781 382 781 q 238 738 260 781 q 217 581 217 694 l 222 499 z "},"R":{"ha":719,"x_min":39,"x_max":725,"o":"m 725 3 q 718 8 725 3 l 718 -3 l 486 -6 q 481 -1 483 -4 q 438 90 467 26 q 394 181 408 154 q 294 335 379 208 q 289 208 289 300 q 304 15 289 117 q 171 -10 292 -10 l 56 -7 l 51 4 l 50 1 q 54 78 54 26 l 47 743 q 39 969 47 914 q 42 974 40 971 q 46 978 44 976 q 292 1006 201 1006 q 451 988 383 1006 q 577 934 519 969 q 669 838 635 899 q 703 685 703 778 q 642 508 703 592 q 479 418 581 424 q 563 289 507 371 q 725 3 685 111 m 463 424 l 469 432 q 628 513 568 432 q 689 687 689 594 q 654 840 689 779 q 563 931 619 900 q 322 990 456 990 q 269 988 296 990 q 185 983 243 986 q 54 965 126 979 q 57 933 57 943 l 69 67 q 65 7 69 36 l 178 4 q 290 19 247 4 q 275 229 275 144 q 283 356 275 314 l 296 358 q 399 200 379 238 q 447 101 418 163 q 490 8 475 39 q 599 10 526 8 q 707 11 671 11 q 542 297 669 103 q 514 333 536 306 q 463 424 467 394 m 242 731 l 243 756 l 246 783 q 348 806 297 806 q 431 774 399 806 q 463 697 463 742 q 435 622 463 651 q 356 592 408 592 l 256 599 q 240 647 240 614 l 244 707 l 242 731 m 258 724 l 257 656 q 261 613 257 633 q 340 604 300 604 q 450 692 450 604 q 406 776 450 749 q 340 790 379 790 q 256 771 301 790 l 256 763 q 258 724 258 757 z "},"S":{"ha":674,"x_min":10,"x_max":656,"o":"m 650 658 q 554 640 632 640 q 431 653 476 640 l 426 661 q 428 675 428 667 q 401 729 428 708 q 343 750 375 750 q 288 731 311 750 q 264 681 264 711 q 278 635 264 650 q 306 615 292 619 q 347 607 321 611 q 381 600 374 603 q 577 481 506 567 q 649 286 649 394 q 560 65 649 144 q 342 -15 471 -15 q 111 60 213 -15 q 10 261 10 136 q 17 288 10 279 q 33 297 25 296 q 134 297 42 297 q 236 288 226 297 q 267 227 239 249 q 329 206 294 206 q 388 224 364 206 q 411 276 411 243 q 397 331 411 308 q 354 367 383 354 q 303 388 325 381 q 242 402 281 394 q 190 413 203 410 q 74 505 124 428 q 24 654 24 582 q 113 886 24 793 q 350 979 203 979 q 564 915 472 979 q 656 731 656 850 q 650 658 656 708 m 443 679 l 442 665 q 524 653 483 653 q 636 664 564 653 q 643 733 643 703 q 553 904 643 842 q 338 967 463 967 q 125 878 213 967 q 38 663 38 789 q 82 518 38 593 q 192 426 126 443 q 237 417 206 422 q 290 407 268 411 q 340 392 311 403 q 385 367 368 381 q 426 286 426 335 q 397 215 426 238 q 328 192 368 192 q 257 215 289 192 q 222 281 225 239 l 79 283 q 24 281 42 283 q 117 76 24 151 q 338 0 210 0 q 550 75 465 0 q 635 285 635 150 q 584 447 635 374 q 444 564 533 521 q 372 581 428 572 q 283 610 317 590 q 250 674 250 631 q 277 740 250 717 q 342 763 304 763 q 412 739 381 763 q 443 679 443 715 z "},"T":{"ha":615,"x_min":4,"x_max":608,"o":"m 314 986 q 608 975 500 986 l 608 833 q 594 743 608 771 q 539 749 571 749 l 426 743 q 424 578 426 743 l 433 8 q 374 -6 428 -6 l 264 -1 q 200 -8 226 -1 q 189 21 189 -1 l 193 179 q 189 729 193 590 q 104 747 153 747 l 36 746 q 4 803 4 746 l 6 839 l 6 907 q 8 976 6 961 l 7 976 l 14 985 l 314 986 m 263 11 l 360 8 q 418 14 392 8 q 410 679 410 201 l 410 725 q 413 747 410 747 l 413 746 q 522 763 413 763 q 589 758 567 763 q 594 869 594 808 q 593 958 594 929 q 251 972 460 972 l 21 971 q 15 865 15 949 q 25 763 15 782 q 64 758 42 758 l 119 760 q 176 751 147 760 q 206 726 206 743 l 203 564 l 207 181 l 201 50 q 204 7 201 32 q 263 11 224 11 m 417 754 q 415 753 417 753 q 415 753 415 753 l 417 754 m 7 978 l 7 976 l 7 978 z "},"U":{"ha":701,"x_min":42,"x_max":664,"o":"m 263 383 l 261 336 q 353 201 261 201 q 418 236 401 201 q 435 376 435 271 q 442 935 435 779 q 579 951 475 951 q 656 935 622 951 l 658 929 q 664 651 664 757 q 660 465 664 546 q 655 344 657 383 q 652 290 653 306 q 647 238 651 274 q 639 182 643 203 q 601 90 625 124 q 356 -31 518 -31 q 172 14 257 -31 q 56 142 88 58 q 42 253 42 178 l 51 942 q 153 956 57 956 q 260 938 250 956 l 257 610 l 263 383 m 64 938 l 56 250 q 68 147 56 189 q 178 27 90 71 q 355 -17 267 -17 q 496 10 443 -17 q 575 69 549 38 q 617 164 601 101 q 636 260 633 226 q 647 444 643 343 q 650 650 650 546 q 644 924 650 754 q 578 938 615 938 l 456 926 q 449 609 450 814 q 444 327 449 404 q 420 218 440 250 q 343 186 400 186 q 258 256 275 186 q 246 376 246 308 q 242 497 246 443 q 239 667 239 550 q 246 932 239 783 q 147 939 204 939 l 64 938 z "},"V":{"ha":611,"x_min":15,"x_max":625,"o":"m 460 964 l 511 965 q 619 957 588 965 l 625 947 q 394 -1 528 454 q 303 -11 374 -11 l 242 -12 q 178 6 196 -12 q 28 800 71 383 l 19 896 q 15 947 19 935 q 125 975 43 975 q 222 961 207 975 q 236 888 236 947 l 236 853 q 293 339 236 560 q 336 581 310 418 q 408 961 400 961 l 413 968 q 415 969 414 968 l 419 969 q 460 964 436 964 m 542 949 l 485 947 q 421 954 447 947 q 392 813 403 896 q 349 551 381 729 q 300 307 317 374 q 286 308 296 308 q 222 794 222 567 q 214 956 222 918 q 117 961 183 961 q 29 944 51 961 q 190 13 72 429 q 264 1 219 1 l 382 8 q 610 944 518 471 q 542 949 554 944 m 15 947 l 15 946 l 15 947 z "},"W":{"ha":646,"x_min":25,"x_max":626,"o":"m 503 981 l 563 979 q 625 971 617 979 l 626 967 q 581 486 613 806 q 535 7 549 167 q 485 -7 521 -7 l 414 -3 q 383 44 399 -3 q 353 152 368 92 q 331 229 339 213 q 297 117 310 201 q 261 6 283 32 q 219 -4 251 -4 q 142 0 188 -4 q 139 0 142 -6 l 133 0 q 126 6 133 0 q 75 359 106 121 q 40 656 44 597 q 25 965 25 872 q 89 979 39 979 l 231 976 q 244 881 244 947 l 240 629 q 260 419 240 506 q 286 531 265 440 q 319 647 307 621 l 321 649 q 351 598 339 639 q 376 494 364 557 q 397 406 389 432 q 404 608 401 476 q 410 794 407 739 l 414 899 l 419 963 l 424 971 q 503 981 451 981 m 417 11 l 485 7 q 522 13 510 7 q 566 471 535 151 q 611 963 597 790 q 543 965 590 965 q 433 958 496 965 q 421 665 422 861 q 408 372 419 469 q 396 369 400 369 q 362 497 379 410 q 326 625 344 585 q 267 388 289 496 q 253 389 263 389 q 229 639 229 489 l 231 817 q 225 963 231 897 l 107 965 q 39 961 72 965 q 139 14 49 629 l 208 8 q 251 15 233 8 q 271 89 258 28 q 331 247 304 247 l 332 247 q 378 126 356 224 q 417 11 400 28 m 619 961 l 615 961 l 619 961 z "},"X":{"ha":606,"x_min":-7,"x_max":618,"o":"m 550 979 l 585 981 q 618 972 610 981 l 617 969 l 617 967 q 575 853 604 931 q 493 597 515 686 q 467 478 467 501 q 471 434 467 456 q 479 398 475 413 q 492 358 483 383 q 504 317 500 332 q 544 185 508 301 q 596 6 581 68 q 499 -7 586 -7 q 401 0 411 -7 q 378 48 390 7 q 345 176 365 89 q 306 306 325 264 q 259 155 285 260 q 208 0 233 50 q 201 -4 203 -3 l 200 -4 q 112 -11 176 -11 q 10 6 47 -11 l 6 14 q 78 242 25 86 q 150 482 131 397 q -7 954 104 679 q 156 974 3 974 q 199 965 183 974 q 219 950 215 957 q 228 923 224 943 q 238 885 232 903 q 265 788 243 868 q 301 665 286 707 q 348 819 321 718 q 390 965 375 921 q 476 981 406 981 l 550 979 m 96 4 l 197 10 q 247 165 219 57 q 300 324 274 272 q 311 325 303 325 q 331 291 325 311 q 340 254 336 271 q 346 226 343 238 q 357 177 349 214 q 369 118 365 140 q 407 13 382 67 q 458 6 436 6 q 581 10 481 6 q 495 301 538 165 q 453 475 453 438 q 546 817 464 596 q 600 965 588 929 q 403 960 454 965 q 366 819 396 936 q 308 646 336 703 l 296 646 q 268 724 281 671 q 250 794 256 776 l 228 867 q 203 951 211 921 l 203 953 l 196 956 q 8 950 93 956 q 130 622 96 742 q 164 479 164 503 q 92 234 146 390 q 21 17 38 78 q 96 4 50 4 z "},"Y":{"ha":604,"x_min":6,"x_max":632,"o":"m 206 -6 l 60 -11 l 6 -11 q 190 481 47 126 q 138 636 190 508 q 15 960 39 860 q 143 978 33 978 q 211 964 183 978 q 214 961 211 961 q 314 669 243 814 q 367 814 336 715 q 421 958 397 913 q 553 974 436 974 l 632 963 l 632 958 q 428 476 576 792 q 224 -3 279 161 q 206 -6 213 -8 m 615 956 l 535 958 q 431 950 471 958 q 378 803 410 904 q 321 651 346 701 l 308 651 q 201 954 226 817 q 149 963 172 963 q 87 958 125 963 q 31 954 49 954 q 76 813 50 874 q 125 699 101 753 q 176 578 149 644 q 204 492 204 511 q 185 428 204 474 q 25 6 71 151 q 29 4 28 4 l 172 11 q 211 7 203 11 q 413 478 267 167 q 615 956 560 789 z "},"Z":{"ha":658,"x_min":11,"x_max":638,"o":"m 638 906 l 633 742 l 632 738 q 447 457 571 636 q 283 217 324 278 q 453 226 342 225 q 618 233 565 228 q 629 115 629 210 q 615 -10 629 19 q 330 -3 492 -3 q 47 -8 168 -3 q 26 100 26 3 l 28 204 q 44 264 28 233 q 101 360 67 308 q 252 584 167 467 q 363 738 338 701 q 40 754 204 754 q 21 828 21 763 l 22 874 q 14 951 14 899 l 11 963 q 13 965 11 964 q 264 976 122 976 l 626 971 q 638 906 638 947 m 619 743 l 624 893 q 621 957 624 936 l 258 963 q 28 953 135 963 q 39 851 39 919 l 36 807 q 44 768 36 783 q 58 768 51 768 l 192 761 q 267 761 235 761 q 315 760 299 761 q 344 756 331 758 q 381 739 378 750 q 292 619 353 700 q 194 485 232 538 q 42 219 92 339 q 43 178 43 206 l 42 103 q 53 6 42 42 q 327 13 196 13 q 608 4 458 13 l 615 158 q 611 218 615 189 q 446 211 561 213 q 269 201 331 210 l 264 214 q 307 278 274 225 q 452 491 340 331 q 619 743 564 651 z "},"[":{"ha":446,"x_min":51,"x_max":422,"o":"m 350 -10 l 274 -7 l 142 -3 q 53 -10 86 -3 l 51 424 q 67 979 51 979 l 67 978 q 126 992 81 992 l 338 982 q 413 988 379 982 q 422 942 421 969 q 422 903 422 914 l 422 878 q 404 810 422 828 l 257 807 q 250 639 250 736 l 263 203 q 311 199 274 200 q 411 183 404 196 l 415 32 q 405 -4 415 1 q 350 -10 394 -10 m 142 10 l 274 7 l 401 8 l 397 176 q 350 178 388 178 q 249 199 267 181 l 235 700 q 251 821 235 813 l 399 824 q 406 972 406 858 q 360 971 390 971 l 161 979 q 81 974 115 979 q 65 510 65 722 q 66 181 65 299 q 67 6 67 64 q 142 10 103 10 z "},"\\":{"ha":572,"x_min":19,"x_max":553,"o":"m 164 986 q 203 990 186 986 q 222 994 221 994 q 282 775 239 882 q 295 739 288 769 q 315 668 303 708 q 384 481 328 628 q 453 293 440 333 q 489 198 465 253 q 513 124 513 143 q 533 76 513 122 q 553 15 553 29 q 543 -8 553 1 l 463 -7 l 410 -10 q 356 7 363 -10 q 278 207 331 74 l 276 208 q 172 507 258 264 q 65 819 85 750 q 36 917 46 889 l 19 972 l 24 981 q 78 992 46 992 l 164 986 m 169 971 l 83 976 q 35 969 54 976 q 76 847 54 929 q 112 724 99 764 q 167 560 125 685 q 226 390 210 436 q 262 290 242 343 q 291 213 282 238 q 317 149 300 189 q 369 10 354 58 q 440 3 396 3 q 538 6 485 3 l 538 11 q 517 65 536 14 q 499 124 499 115 q 392 415 476 190 q 272 765 307 640 q 235 860 258 783 q 204 975 211 936 q 169 971 188 971 z "},"]":{"ha":446,"x_min":24,"x_max":394,"o":"m 339 -6 l 60 -12 q 32 -12 44 -12 q 25 76 25 31 q 35 185 25 122 q 111 197 57 196 q 183 203 165 199 l 196 638 q 189 806 196 736 q 161 804 182 804 q 42 810 161 804 q 25 894 25 817 l 26 979 l 24 990 q 113 982 76 982 l 326 990 q 379 979 372 990 l 390 686 q 392 338 392 571 q 394 -11 393 104 q 339 -6 364 -6 m 211 711 l 197 197 q 144 182 192 185 q 73 178 97 179 q 47 176 49 176 q 39 73 39 110 q 43 8 39 36 q 282 7 122 7 l 340 8 q 379 6 354 8 l 381 399 q 365 974 381 729 q 294 978 331 978 l 100 969 q 40 972 60 969 l 39 903 q 46 824 39 857 l 194 821 q 211 711 211 788 z "},"^":{"ha":611,"x_min":6,"x_max":618,"o":"m 618 657 l 464 644 q 385 655 410 644 q 338 694 360 665 q 301 735 317 722 q 247 681 282 724 q 168 646 221 646 q 6 651 33 646 q 87 759 38 707 q 204 872 136 811 q 304 965 272 933 q 322 949 306 965 q 358 912 338 932 q 447 824 379 892 q 603 669 514 757 l 618 657 m 390 664 l 499 660 q 541 665 513 661 q 581 671 569 669 l 306 947 q 215 864 275 917 q 28 669 83 746 q 160 661 89 661 l 207 664 q 243 701 211 667 q 299 750 275 736 q 345 707 318 740 q 390 664 372 674 z "},"_":{"ha":903,"x_min":46,"x_max":856,"o":"m 46 -128 l 50 -60 l 57 -51 q 175 -46 108 -46 l 325 -49 l 856 -44 q 853 -111 853 -83 l 853 -133 q 843 -215 853 -194 l 60 -212 q 46 -128 46 -207 m 840 -58 l 367 -61 l 189 -58 q 64 -64 119 -58 l 64 -160 q 65 -193 65 -164 q 836 -201 65 -201 q 840 -58 836 -94 z "},"`":{"ha":354,"x_min":7,"x_max":350,"o":"m 350 726 q 240 714 326 714 q 154 724 154 714 q 84 794 140 749 q 14 856 28 839 l 7 861 l 110 964 l 113 968 q 255 835 174 922 q 350 738 336 747 l 350 726 m 164 732 q 240 726 183 726 q 331 735 297 726 q 282 786 313 750 q 114 949 171 906 l 26 861 q 69 825 32 856 q 164 732 151 756 z "},"a":{"ha":661,"x_min":17,"x_max":622,"o":"m 450 708 l 610 699 l 617 692 l 617 686 q 621 651 621 674 l 618 614 l 618 436 l 622 83 q 579 -12 622 -12 q 551 -7 564 -12 l 443 -7 q 428 -10 432 -10 q 401 29 401 -10 q 404 60 401 40 q 236 -8 325 -8 q 158 8 192 -8 q 58 144 99 36 q 17 380 17 253 q 89 601 17 507 q 274 696 161 696 q 394 651 363 696 l 400 696 l 404 704 q 450 708 415 708 m 608 269 l 604 681 q 603 685 603 682 l 414 692 l 406 636 l 407 628 l 408 628 l 407 628 l 408 626 q 396 624 400 624 l 394 624 q 394 625 394 625 q 393 626 393 625 q 347 671 374 660 q 274 682 319 682 q 99 592 165 682 q 32 368 32 503 q 122 61 32 169 q 236 4 171 4 q 410 83 331 4 q 421 78 413 81 l 415 31 q 426 6 415 11 l 436 6 q 497 11 453 11 q 558 6 542 11 l 593 6 l 601 14 l 608 269 m 199 417 q 246 487 207 463 q 338 511 285 511 q 403 481 390 511 q 415 317 415 450 q 324 183 415 183 q 223 233 258 183 q 188 334 188 282 q 200 418 188 386 l 199 417 m 400 361 l 401 415 q 399 455 401 440 q 385 483 397 469 q 350 497 374 497 q 213 413 228 497 q 201 338 201 389 q 233 242 201 288 q 321 197 264 197 q 401 300 401 197 l 400 361 z "},"b":{"ha":644,"x_min":35,"x_max":624,"o":"m 35 96 l 50 976 l 54 985 q 155 993 79 993 q 239 976 231 993 l 239 961 l 247 819 q 245 744 247 796 q 243 679 243 692 q 387 704 283 704 q 533 669 490 704 q 597 578 576 635 q 620 478 617 522 q 624 365 624 433 q 612 233 624 296 q 573 115 600 171 q 493 26 546 58 q 360 -7 440 -7 q 247 60 281 -7 q 244 50 244 57 l 244 6 q 243 1 243 3 l 242 0 q 238 -4 238 0 q 168 -10 208 -10 l 49 -6 q 35 96 35 1 m 224 924 l 225 960 l 225 971 q 145 979 185 979 q 64 972 106 979 l 50 169 q 56 8 50 79 l 172 4 q 231 8 201 4 l 229 32 q 249 76 229 76 q 270 49 251 74 q 306 17 289 25 q 354 10 322 10 q 547 99 483 10 q 610 363 610 188 q 561 619 610 539 q 364 690 518 690 q 243 660 267 690 l 229 661 l 231 711 q 224 924 231 796 m 454 440 q 467 338 467 399 q 425 223 467 278 q 329 168 383 168 q 251 208 272 168 q 233 249 240 231 q 224 303 226 267 q 219 418 219 358 q 239 510 219 478 q 314 543 258 543 q 408 517 369 543 q 454 440 446 490 m 238 376 l 236 328 q 329 183 236 183 q 422 240 393 183 q 450 375 450 296 q 446 405 447 383 q 440 436 444 426 q 398 506 435 479 q 314 532 361 532 q 251 507 267 532 q 236 433 236 482 l 238 376 m 229 4 l 229 3 l 229 4 z "},"c":{"ha":614,"x_min":25,"x_max":594,"o":"m 433 275 l 539 281 q 589 272 572 281 l 592 264 q 584 167 589 251 q 557 51 579 82 q 368 -24 504 -24 l 261 -21 q 26 290 26 -21 l 28 364 l 25 463 q 71 656 25 606 q 217 714 117 706 q 289 718 263 718 l 356 717 q 450 705 411 717 q 542 654 489 693 q 582 592 571 633 q 594 401 594 544 q 511 386 586 386 q 408 401 436 386 q 398 422 406 406 q 388 444 390 439 q 378 460 385 449 q 365 476 371 472 q 351 486 360 479 q 310 496 338 496 q 238 449 257 496 q 219 264 219 401 q 307 186 219 186 q 368 199 343 186 q 390 240 375 206 q 410 276 404 274 q 433 275 417 275 m 42 363 l 40 269 q 114 49 40 110 q 211 1 160 10 q 368 -10 281 -10 q 546 58 504 -10 q 569 172 565 94 q 576 263 574 249 q 540 267 561 267 l 433 260 q 414 261 419 260 q 318 171 397 171 q 238 193 268 171 q 207 256 207 215 l 211 317 l 208 389 q 237 479 208 447 q 305 511 265 511 q 376 484 344 511 q 417 413 408 457 q 500 403 438 403 q 579 407 563 403 l 581 476 q 565 599 581 569 q 344 703 511 703 l 272 704 q 167 694 193 704 q 81 646 104 672 q 39 467 39 601 l 42 363 z "},"d":{"ha":643,"x_min":22,"x_max":606,"o":"m 400 679 l 396 818 q 401 910 396 869 q 406 975 406 951 l 413 983 q 519 993 451 993 q 594 978 586 993 l 606 218 q 603 1 606 74 q 464 -11 590 -11 q 400 6 408 -11 l 400 22 q 397 38 397 28 l 399 57 q 397 60 397 58 q 292 -4 365 -4 q 168 23 219 -4 q 90 89 117 50 q 47 186 63 128 q 22 400 22 276 q 121 676 22 619 q 268 704 169 704 q 400 679 367 704 m 592 222 l 581 972 q 490 978 528 978 q 419 971 451 978 q 414 785 414 871 q 415 660 414 699 q 403 657 407 657 q 297 690 383 690 q 161 676 210 690 q 33 383 33 640 q 97 99 33 189 q 293 10 161 10 q 340 18 325 10 q 372 51 354 26 q 396 76 389 76 l 397 76 q 414 18 414 57 q 471 4 414 4 l 589 8 q 592 222 592 79 m 190 439 q 236 517 199 490 q 330 543 274 543 q 405 512 386 543 q 424 427 424 481 q 422 344 424 374 q 415 276 421 314 q 399 218 410 239 q 313 168 372 168 q 215 226 253 168 q 178 344 178 285 q 190 439 178 403 m 204 435 q 192 342 192 401 q 228 233 192 283 q 319 182 264 182 q 397 253 382 182 q 408 376 408 308 q 407 461 408 444 q 397 497 406 478 q 333 532 385 532 q 246 506 282 532 q 204 438 210 481 l 204 435 z "},"e":{"ha":617,"x_min":19,"x_max":600,"o":"m 349 336 l 268 333 q 224 339 240 333 l 224 324 q 324 153 224 153 q 404 265 404 153 l 413 274 q 436 272 419 272 l 540 278 q 593 261 585 278 q 583 166 588 229 q 566 71 578 103 q 533 19 554 39 q 372 -25 486 -25 l 319 -25 q 117 36 169 -25 q 19 350 19 149 q 35 531 19 436 q 131 674 51 626 q 323 721 210 721 q 501 672 436 721 q 600 425 600 597 q 596 360 600 392 q 349 336 572 336 m 432 257 l 418 258 q 392 172 418 208 q 328 135 365 135 q 267 153 292 135 q 231 203 243 172 q 210 322 210 257 l 210 347 q 221 354 219 354 q 268 347 233 347 l 329 350 q 582 365 542 350 q 585 424 585 404 q 501 654 585 575 q 307 708 446 708 q 69 593 136 708 q 35 404 35 533 q 53 192 35 275 q 123 49 71 108 q 319 -11 175 -11 l 381 -11 q 525 33 481 -11 q 554 83 543 51 q 567 138 565 114 q 572 200 569 161 q 578 258 575 239 q 538 264 563 264 l 432 257 m 446 457 q 421 444 446 444 q 382 450 396 444 l 306 450 q 256 446 268 446 q 211 472 211 446 q 243 555 211 526 q 318 583 275 583 q 446 457 446 583 m 358 467 l 432 461 q 382 557 432 533 q 315 572 349 572 q 253 543 281 572 q 225 467 225 514 q 265 458 242 458 l 358 467 z "},"f":{"ha":526,"x_min":7,"x_max":536,"o":"m 300 -1 l 274 0 l 153 -7 q 114 6 122 -7 q 106 49 106 18 l 111 486 l 19 485 q 7 575 7 490 q 15 668 7 660 l 107 667 q 151 853 107 776 q 267 939 181 904 q 506 963 326 963 q 536 900 536 963 l 526 768 q 438 755 519 761 q 336 742 356 749 q 308 686 308 732 q 311 664 308 678 l 518 664 q 526 594 526 667 l 526 582 q 522 521 526 563 q 510 476 517 479 q 400 483 471 481 q 307 486 329 485 l 307 6 l 300 -1 m 125 493 l 126 8 q 158 7 136 7 l 293 13 l 293 493 l 301 501 l 503 492 q 507 535 507 500 q 506 597 507 569 l 506 625 q 508 650 506 633 l 306 650 q 293 685 293 656 q 302 728 293 715 q 330 749 311 740 q 366 762 349 757 q 414 769 383 767 q 463 773 444 772 q 513 775 481 774 l 522 890 q 514 949 522 919 q 442 949 469 949 q 383 947 414 949 q 333 942 351 946 q 251 919 276 931 q 155 833 192 893 q 118 704 118 772 q 122 663 118 683 l 115 653 l 22 654 q 26 499 22 574 l 118 500 l 125 493 z "},"g":{"ha":649,"x_min":19,"x_max":608,"o":"m 600 -79 l 599 -128 q 595 -164 599 -156 q 588 -183 592 -172 q 579 -200 585 -194 q 567 -215 574 -206 q 549 -233 560 -225 q 526 -250 539 -240 q 404 -286 475 -286 q 367 -286 399 -286 q 307 -285 335 -286 q 232 -277 279 -285 q 157 -255 185 -269 q 102 -210 129 -240 q 64 -140 75 -181 q 53 -76 53 -99 q 76 -47 53 -54 q 160 -40 99 -40 q 244 -51 222 -40 q 269 -110 244 -89 q 326 -131 294 -131 q 379 -106 357 -131 q 401 -36 401 -82 l 396 8 q 397 13 396 10 q 397 17 397 15 q 308 -8 361 -8 q 231 -6 256 -8 q 175 2 206 -4 q 124 22 144 8 q 81 57 103 35 q 47 111 60 79 q 19 300 19 185 q 272 699 19 699 q 399 640 361 699 l 399 657 q 396 669 396 665 q 444 703 396 703 l 478 703 q 533 704 478 703 q 603 693 592 704 q 608 442 608 526 l 608 215 q 600 -79 608 121 m 413 14 l 417 -26 q 390 -115 417 -85 q 324 -144 364 -144 q 259 -123 285 -144 q 233 -62 233 -101 q 133 -51 163 -51 q 67 -79 67 -51 q 79 -140 67 -100 q 121 -210 92 -181 q 194 -253 150 -240 q 341 -272 264 -272 q 428 -271 418 -272 q 518 -239 475 -271 q 554 -207 547 -217 q 566 -192 561 -197 q 574 -176 571 -187 q 581 -161 578 -165 q 585 -125 585 -151 l 586 -78 q 594 217 594 210 l 594 438 q 589 686 594 576 l 479 689 q 411 675 411 689 q 415 640 411 675 q 404 617 415 628 l 401 617 q 374 640 393 617 q 349 668 356 664 q 272 686 314 686 q 33 301 33 686 q 106 53 33 108 q 179 15 142 24 q 263 6 217 6 q 324 6 308 6 q 404 39 374 8 q 415 31 407 36 q 413 14 413 19 m 181 315 l 181 318 q 226 486 181 425 q 295 526 256 525 q 358 515 335 526 q 393 485 381 503 q 411 433 406 468 q 421 297 421 383 q 403 179 421 210 q 319 149 385 149 q 217 200 253 149 q 181 315 181 251 m 411 282 l 403 383 q 378 486 396 458 q 318 514 360 514 q 253 494 276 514 q 217 443 229 475 q 194 317 194 381 q 231 206 194 253 q 320 160 268 160 q 392 191 372 160 q 411 282 411 222 z "},"h":{"ha":622,"x_min":38,"x_max":585,"o":"m 156 -14 l 79 -8 l 44 -8 l 38 924 q 50 1011 38 1004 l 99 1007 q 138 1012 110 1007 q 201 1017 165 1017 q 238 1007 238 1017 l 238 997 q 240 956 240 989 l 239 907 l 239 632 q 244 635 240 633 q 252 638 249 636 q 258 642 256 640 q 328 681 283 667 q 420 694 372 694 q 505 679 468 694 q 558 631 542 664 q 580 563 575 597 q 585 472 585 529 l 578 69 q 582 3 578 36 q 510 -10 575 -10 l 458 -14 q 392 24 392 -14 l 393 213 q 390 306 393 275 q 385 356 386 336 q 382 389 383 376 q 360 447 378 424 l 361 447 l 360 447 q 317 460 347 447 q 228 342 228 460 l 235 108 l 229 4 q 156 -14 219 -14 m 564 60 l 571 479 q 567 563 571 532 q 547 624 563 593 q 410 681 519 681 q 236 614 340 681 l 225 621 l 225 990 q 224 1003 224 996 l 110 990 l 57 996 q 53 810 53 919 q 55 422 53 700 q 57 4 57 143 q 98 7 79 7 q 132 3 117 7 q 215 10 192 3 l 219 146 l 211 318 q 232 433 211 393 q 301 472 253 472 q 360 461 350 472 q 406 239 406 451 l 406 153 l 403 60 q 407 4 403 29 l 478 3 q 567 8 528 3 q 564 60 564 42 z "},"i":{"ha":288,"x_min":39,"x_max":250,"o":"m 250 699 l 243 224 q 249 8 243 104 q 185 -11 249 -11 l 74 -6 q 47 -7 54 -6 l 39 1 q 43 143 43 49 l 39 515 q 47 706 39 706 l 47 701 l 54 710 l 243 706 l 250 699 m 54 8 l 181 1 q 235 11 211 1 q 229 224 229 106 l 236 692 l 61 696 q 54 501 54 614 l 58 169 q 54 8 58 89 m 47 811 l 40 988 q 49 1008 40 1003 q 238 1004 174 1006 l 244 997 l 244 950 q 250 886 250 933 l 249 819 q 155 796 249 796 q 47 811 61 796 m 235 822 l 232 943 q 229 966 229 950 q 231 990 229 982 q 56 994 142 992 l 54 969 l 61 817 l 175 810 q 235 822 221 810 z "},"j":{"ha":283,"x_min":-186,"x_max":246,"o":"m 40 -14 l 46 689 l 54 697 q 90 692 69 692 l 214 703 q 246 646 246 703 l 240 419 l 242 235 q 207 -165 242 -119 q -104 -268 132 -268 q -167 -267 -146 -268 q -186 -185 -186 -257 q -174 -71 -186 -112 q -111 -62 -158 -64 q -21 -51 -64 -60 q 40 -14 22 -42 m 226 688 l 208 689 l 89 678 q 60 681 76 678 l 56 247 l 56 110 q 53 -21 56 -15 q -162 -79 22 -79 q -174 -169 -174 -119 q -161 -253 -174 -218 q -97 -254 -142 -254 q 207 -136 147 -254 q 226 172 226 -17 l 225 389 l 231 633 q 226 688 231 663 m 43 811 l 36 988 q 44 1008 36 1003 q 229 1004 167 1006 l 236 997 l 242 846 q 224 806 242 817 q 132 796 207 796 q 43 811 57 796 m 226 822 l 224 943 q 221 966 221 950 q 222 990 221 982 q 51 994 135 992 l 50 969 l 57 817 l 164 810 q 226 821 203 810 l 226 822 z "},"k":{"ha":604,"x_min":39,"x_max":622,"o":"m 181 1021 q 249 1008 242 1021 l 249 704 l 243 581 q 246 538 243 565 q 313 631 271 564 q 385 729 354 699 q 463 717 415 717 l 603 725 q 608 714 604 719 q 382 407 558 636 q 458 281 407 365 q 622 3 579 85 q 450 -15 610 -15 q 385 -2 397 -15 q 368 17 372 11 q 357 40 364 22 q 317 127 350 58 q 249 246 285 196 l 253 99 q 243 -3 253 36 q 192 -12 224 -12 q 127 -12 151 -12 q 89 -11 103 -12 q 46 -1 64 -11 q 39 335 39 186 l 46 1007 q 133 1019 58 1019 l 181 1021 m 229 567 l 235 703 l 235 1003 q 183 1006 218 1006 l 60 1001 l 53 338 q 60 6 53 190 q 97 3 76 3 q 231 7 118 3 q 240 108 240 54 l 235 267 l 247 272 q 325 136 279 228 q 396 6 371 44 q 453 -3 421 -3 q 533 2 485 -3 q 604 7 582 7 q 469 240 543 119 q 368 404 394 360 l 368 410 q 590 711 539 633 l 456 703 q 385 714 413 703 q 350 659 372 699 q 314 606 328 619 q 246 518 275 546 q 229 567 229 524 z "},"l":{"ha":286,"x_min":35,"x_max":254,"o":"m 254 1011 l 240 153 q 249 8 240 79 q 183 -11 249 -11 l 36 -6 q 46 264 46 199 l 35 751 q 46 1015 35 917 q 50 1017 47 1017 l 54 1017 q 254 1011 243 1013 m 226 146 l 229 317 l 236 999 l 60 1003 q 47 761 47 899 l 60 267 q 53 8 60 151 l 74 10 l 181 1 q 233 11 213 1 q 226 146 226 67 z "},"m":{"ha":950,"x_min":38,"x_max":913,"o":"m 157 -14 l 81 -8 l 46 -8 l 38 592 q 50 699 38 692 l 99 694 q 138 699 110 694 q 198 704 165 704 q 236 699 231 704 q 239 631 236 675 q 426 694 325 694 q 564 631 526 694 q 611 657 575 636 q 737 694 676 694 q 834 680 797 694 q 888 631 871 665 q 908 563 904 596 q 913 467 913 529 l 906 69 q 910 3 906 36 q 838 -10 903 -10 l 786 -14 q 719 24 719 -14 l 721 213 q 681 450 721 450 q 639 460 671 460 q 586 443 607 460 l 578 78 q 583 6 578 38 q 507 -10 578 -10 l 458 -14 q 393 24 393 -14 l 394 213 q 391 306 394 275 q 386 356 388 336 q 383 389 385 376 q 361 447 379 424 l 363 447 l 361 447 q 318 460 350 447 q 229 342 229 460 l 236 108 l 231 4 q 157 -14 221 -14 m 565 615 q 554 619 561 619 q 422 678 536 678 q 238 614 333 678 l 226 618 q 225 653 225 629 q 224 690 225 678 l 110 678 l 57 683 q 53 473 53 572 q 56 214 53 374 q 58 4 58 54 q 100 7 81 7 q 133 3 119 7 q 217 10 193 3 l 221 146 l 213 318 q 233 433 213 393 q 303 472 254 472 q 361 461 351 472 q 407 239 407 451 l 407 153 l 404 60 q 408 4 404 29 l 479 3 q 568 8 529 3 q 564 75 564 42 l 572 446 q 629 474 586 474 q 692 457 672 474 q 721 403 713 440 q 733 239 733 344 l 733 153 l 731 60 q 735 4 731 29 l 806 3 q 894 8 856 3 q 892 60 892 42 l 899 479 q 894 563 899 532 q 875 624 890 593 q 738 681 847 681 q 565 615 663 681 z "},"n":{"ha":625,"x_min":39,"x_max":588,"o":"m 47 -10 l 39 592 q 51 699 39 692 l 100 694 q 139 699 111 694 q 199 704 167 704 q 238 699 232 704 q 240 631 238 675 q 411 694 326 694 q 561 631 529 694 q 583 563 578 597 q 588 472 588 529 l 581 69 q 585 3 581 36 q 513 -10 578 -10 l 461 -14 q 394 24 394 -14 l 396 213 q 392 306 396 275 q 388 356 389 336 q 385 389 386 376 q 363 447 381 424 l 364 447 l 363 447 q 319 460 350 447 q 231 342 231 460 l 238 108 l 232 4 q 206 -9 228 -4 q 173 -14 183 -14 q 158 -14 163 -14 l 47 -10 m 567 60 l 574 479 q 569 563 574 532 q 550 624 565 593 q 413 681 522 681 q 239 614 343 681 l 228 618 q 226 653 226 629 q 225 690 226 678 l 111 678 l 58 683 q 54 473 54 572 q 57 214 54 374 q 60 4 60 54 q 101 7 82 7 q 135 3 119 7 q 218 10 194 3 l 222 146 l 214 318 q 235 433 214 393 q 304 472 256 472 q 363 461 353 472 q 408 239 408 451 l 408 153 l 406 60 q 410 4 406 29 l 481 3 q 569 8 531 3 q 567 60 567 42 z "},"o":{"ha":622,"x_min":28,"x_max":599,"o":"m 343 707 l 243 706 q 167 697 208 706 q 69 631 83 679 q 58 597 68 622 q 44 531 49 571 q 40 350 40 492 q 56 150 40 208 q 172 13 85 43 q 251 -1 200 3 q 318 -7 303 -4 q 381 -10 333 -10 q 470 5 429 -10 q 532 51 511 19 q 560 112 553 82 q 576 242 568 142 q 585 397 585 343 q 539 640 585 569 q 445 694 486 682 q 343 707 404 707 m 242 719 l 332 721 q 522 672 444 721 q 599 440 599 624 q 570 90 599 201 q 364 -22 542 -22 q 325 -19 363 -22 q 256 -15 288 -17 q 219 -13 225 -14 q 192 -9 213 -12 q 164 -1 171 -6 q 140 13 157 4 q 111 36 124 22 l 79 67 q 28 272 28 121 l 28 403 q 31 541 28 508 q 44 599 35 574 q 56 635 53 625 q 131 700 71 681 q 242 719 190 719 m 210 294 l 208 371 q 232 475 208 451 q 318 513 263 513 q 425 336 425 513 q 401 214 425 253 q 326 175 376 175 q 242 195 276 175 q 208 251 208 215 l 210 294 m 224 288 l 221 251 q 251 206 221 222 q 326 189 281 189 q 390 224 371 189 q 410 342 410 260 q 388 461 410 425 q 317 497 365 497 q 242 465 269 497 q 222 363 222 446 l 224 288 z "},"p":{"ha":644,"x_min":36,"x_max":622,"o":"m 108 704 l 168 703 l 190 703 q 243 692 236 703 l 243 690 q 244 664 244 683 q 247 635 244 644 q 360 699 269 699 q 622 317 622 699 q 574 72 622 151 q 403 -8 526 -8 q 243 13 279 -8 q 246 -121 246 -54 q 239 -282 246 -187 l 233 -289 q 138 -299 189 -299 q 54 -290 83 -299 l 50 -282 l 36 529 q 42 694 36 621 q 108 704 61 704 m 50 525 l 64 -278 q 135 -285 85 -285 q 225 -276 186 -285 q 224 -236 224 -271 l 229 33 l 232 33 l 243 35 l 243 33 q 375 3 272 3 q 562 73 517 3 q 607 293 607 143 q 547 597 607 510 q 474 659 521 633 q 372 685 426 685 q 299 672 318 685 q 268 641 279 660 q 244 617 257 622 q 229 664 229 625 l 231 685 q 171 689 211 689 l 56 686 q 50 525 50 615 m 454 254 q 408 178 446 204 q 313 151 369 151 q 238 182 257 151 q 218 266 218 213 q 219 346 218 319 q 225 413 219 372 q 242 474 231 453 q 275 510 253 494 q 329 526 297 526 q 425 471 383 526 q 467 356 467 415 q 454 254 467 296 m 238 318 l 236 261 q 251 187 236 213 q 312 161 265 161 q 397 188 358 161 q 440 258 435 215 q 446 290 444 268 q 450 319 447 311 q 420 455 450 397 q 322 513 390 513 q 236 368 236 513 l 238 318 z "},"q":{"ha":643,"x_min":21,"x_max":604,"o":"m 604 513 l 594 -283 q 504 -299 586 -299 q 406 -281 422 -299 l 406 -265 q 400 -133 400 -224 l 400 15 q 286 -10 367 -10 q 153 5 206 -10 q 71 68 100 19 q 21 285 21 149 q 83 603 21 501 q 158 672 110 643 q 272 700 207 700 q 397 635 364 700 q 398 639 399 635 q 397 647 397 643 l 397 657 q 408 694 397 686 q 447 703 418 703 l 526 703 q 603 693 592 703 q 604 513 604 633 m 414 -74 l 419 -267 l 419 -276 q 496 -285 456 -285 q 581 -278 536 -285 l 590 507 q 589 686 590 626 l 471 690 q 414 686 442 690 l 414 669 q 408 627 414 632 q 393 618 401 622 q 375 642 386 622 q 274 688 347 688 q 93 588 153 688 q 33 322 33 489 q 79 79 33 154 q 247 4 125 4 q 401 36 369 4 l 415 35 q 414 -74 414 -1 m 192 254 q 178 349 178 288 q 216 467 178 410 q 313 525 254 525 q 398 477 372 525 q 424 326 424 429 q 408 187 424 222 q 338 151 393 151 q 190 256 206 151 l 192 254 m 343 165 q 397 194 383 165 q 410 276 410 222 q 408 363 410 331 q 397 435 406 394 q 314 513 381 513 q 225 457 258 513 q 192 346 192 401 q 204 260 192 290 l 204 257 q 343 165 218 165 z "},"r":{"ha":511,"x_min":39,"x_max":504,"o":"m 46 -3 l 39 592 q 51 699 39 692 l 100 694 q 140 699 110 694 q 206 703 171 703 q 246 694 242 703 l 246 657 q 449 703 349 703 q 504 690 497 703 l 500 526 q 504 446 500 486 l 494 439 q 329 467 419 467 q 239 372 239 467 l 246 4 q 190 -10 240 -10 l 100 -7 l 46 -3 m 485 525 l 490 685 q 244 640 333 685 l 233 647 l 233 651 q 231 667 231 660 l 232 689 l 197 689 q 111 678 168 678 l 58 683 q 54 473 54 572 q 57 214 54 374 q 60 4 60 54 q 92 6 71 6 l 174 3 q 232 10 208 3 l 226 361 q 248 449 226 418 q 340 481 269 481 q 489 456 411 481 q 485 525 485 489 z "},"s":{"ha":625,"x_min":8,"x_max":613,"o":"m 90 229 l 153 231 q 228 219 217 231 l 228 214 l 229 214 l 228 213 q 255 167 231 183 q 314 151 279 151 q 370 169 349 151 q 392 211 392 186 q 379 251 392 236 q 342 275 367 265 q 256 296 301 289 q 91 369 160 313 q 22 514 22 426 q 48 623 22 578 q 117 690 74 668 q 300 731 197 731 q 535 682 471 731 q 613 481 613 622 l 607 474 q 477 464 543 464 q 401 483 411 464 l 401 485 q 378 538 401 518 q 324 557 356 557 q 254 508 264 557 q 304 435 254 456 q 384 415 336 421 q 446 404 432 408 q 564 334 522 385 q 606 213 606 283 q 580 93 606 143 q 511 18 554 43 q 310 -29 429 -29 q 99 29 190 -29 q 8 217 8 88 q 68 229 21 229 l 90 229 m 415 486 q 497 476 453 476 q 599 486 540 476 q 511 678 599 633 q 329 715 438 715 q 106 667 172 715 q 58 608 78 647 q 38 505 38 569 q 92 386 38 440 q 232 314 146 332 q 269 308 239 313 q 317 299 300 303 q 357 285 333 294 q 403 222 403 265 q 378 156 403 178 q 317 135 353 135 q 249 157 281 135 q 214 213 218 179 q 89 215 133 215 q 22 213 44 215 q 67 81 22 133 q 314 -17 147 -17 q 589 211 589 -17 q 443 390 589 350 q 386 400 431 393 q 315 414 342 407 q 265 444 289 421 q 240 501 240 467 q 264 553 240 535 q 322 572 288 572 q 386 549 357 572 q 415 486 415 526 z "},"t":{"ha":538,"x_min":8,"x_max":535,"o":"m 142 963 l 258 953 q 292 956 281 953 l 307 958 l 307 693 q 510 704 321 693 q 529 642 529 683 l 522 551 q 524 531 522 538 l 526 514 l 310 517 q 311 246 310 292 q 485 193 346 193 q 518 194 508 193 q 535 94 535 161 q 525 -3 535 26 q 476 -8 515 -8 q 403 -7 436 -8 q 323 2 369 -6 q 244 22 276 10 q 132 119 164 53 q 107 433 107 165 q 108 513 107 486 q 59 511 100 511 q 8 521 18 511 l 8 594 q 21 696 8 689 q 111 694 36 694 l 104 894 q 142 963 104 963 m 506 553 l 514 644 q 506 690 514 674 q 292 679 313 679 l 292 940 q 263 938 272 938 l 144 949 q 122 929 122 949 l 125 688 q 85 678 115 678 l 26 681 l 22 526 q 124 532 65 526 q 121 398 121 496 q 126 251 121 300 q 135 180 132 203 q 139 147 138 157 q 160 94 144 113 q 453 6 231 6 q 513 7 494 6 q 521 60 521 35 q 511 181 521 86 q 460 179 503 179 q 356 198 418 179 q 294 257 294 217 l 296 283 q 296 400 296 349 l 296 531 l 508 531 q 506 553 506 544 z "},"u":{"ha":625,"x_min":35,"x_max":583,"o":"m 581 3 q 567 -4 574 -4 q 555 -4 561 -4 q 426 -10 549 -4 q 386 1 390 -10 q 383 63 378 28 q 216 0 317 0 q 67 50 115 0 q 49 86 53 64 q 43 117 44 108 q 37 184 39 142 q 35 288 35 226 l 42 633 q 40 690 42 633 q 108 704 54 704 l 221 704 q 231 649 231 683 q 228 436 231 649 q 263 247 228 282 q 304 233 263 244 q 394 354 394 233 l 386 594 l 393 689 l 397 697 q 467 708 436 708 l 540 703 q 572 706 550 703 l 579 699 l 583 211 q 581 3 583 72 m 397 75 l 400 4 l 526 14 l 567 10 q 569 185 569 78 q 567 452 569 293 q 565 690 565 611 q 522 688 540 688 l 461 692 q 407 685 429 692 l 400 593 l 408 351 q 315 219 408 219 q 258 233 281 219 l 257 235 q 214 407 214 254 l 218 603 q 214 690 218 647 q 54 686 85 690 q 56 632 56 668 l 47 219 q 78 64 47 114 q 210 14 108 14 q 289 28 260 14 q 345 59 318 43 q 388 82 372 75 l 397 75 z "},"v":{"ha":596,"x_min":8,"x_max":601,"o":"m 594 700 l 601 690 q 495 297 553 558 q 428 -4 438 35 q 388 -17 415 -17 q 344 -18 360 -18 l 261 -17 q 153 -6 174 -17 q 8 693 99 338 l 17 701 q 72 697 44 697 l 161 700 q 210 697 176 700 l 215 690 q 299 236 254 397 q 346 457 319 301 q 403 692 372 613 q 408 696 406 694 l 594 700 m 585 686 l 413 682 q 356 443 382 603 q 307 213 331 283 l 294 213 q 254 362 265 286 q 227 527 243 438 q 201 683 211 617 q 160 685 188 685 l 72 683 q 25 686 40 683 q 165 3 117 311 l 338 -1 q 415 4 394 -1 q 483 308 429 58 q 585 686 538 557 z "},"w":{"ha":949,"x_min":8,"x_max":954,"o":"m 68 697 l 160 700 q 211 697 194 700 l 217 690 q 226 633 218 669 q 235 588 233 597 q 300 235 260 371 q 351 432 329 321 q 378 569 372 543 q 389 625 385 594 q 411 701 396 694 q 439 697 424 697 l 526 706 q 571 693 564 706 q 589 585 575 667 q 607 460 603 504 q 653 233 622 310 q 706 458 681 299 q 761 692 732 618 q 767 696 764 694 q 919 703 767 696 q 954 690 950 703 q 848 297 906 558 q 781 -4 790 35 q 703 -17 768 -17 l 529 -11 l 522 -6 q 499 137 514 42 q 475 279 483 232 q 456 148 469 247 q 428 -4 442 49 q 388 -17 415 -17 q 344 -18 360 -18 l 261 -17 q 153 -6 174 -17 q 8 693 99 338 l 17 701 q 68 697 42 697 m 467 685 l 414 686 q 392 572 408 657 q 368 444 376 486 q 307 213 344 326 l 294 213 q 240 457 268 274 q 203 683 225 540 q 160 685 189 685 l 72 683 q 25 686 40 683 q 165 3 117 311 l 338 -1 q 415 4 394 -1 q 444 166 431 60 q 468 319 457 272 l 483 321 l 482 317 q 535 3 500 221 l 696 -1 q 768 4 750 -1 q 837 309 783 60 q 938 688 890 558 q 904 689 926 689 l 771 682 q 716 449 742 608 q 660 213 690 289 l 647 213 q 619 299 629 254 l 608 357 q 600 412 606 371 q 581 532 594 453 q 557 688 568 611 q 511 690 542 690 q 467 685 493 685 z "},"x":{"ha":574,"x_min":-3,"x_max":581,"o":"m 557 -7 l 517 -6 q 372 -7 511 -7 q 336 17 349 -7 q 316 88 324 40 q 307 142 308 136 q 297 169 306 147 q 285 203 288 192 q 253 101 271 171 q 221 -4 236 31 q 214 -8 215 -7 l 1 -10 l 6 7 q 48 138 11 39 q 113 343 85 238 q 73 488 96 426 q 28 604 50 549 q -3 688 7 660 q 105 704 4 704 q 218 697 206 704 l 219 697 q 240 647 232 685 q 251 601 249 610 q 265 545 254 593 q 285 474 276 497 q 311 576 292 500 q 347 696 340 690 q 351 699 350 697 l 363 699 q 472 703 369 703 q 581 696 574 703 l 581 694 q 576 692 579 693 l 579 692 q 524 542 572 669 q 465 342 476 414 q 516 154 476 274 q 564 3 556 35 l 557 -7 m 563 689 l 357 685 q 328 572 346 653 q 292 451 310 492 l 279 451 q 253 539 268 478 q 206 686 218 686 l 197 685 l 100 688 q 13 685 42 688 q 106 432 99 458 q 126 340 126 349 q 74 169 114 279 q 21 10 33 60 q 76 1 39 1 l 186 8 q 210 6 203 8 q 242 112 222 35 q 282 228 263 189 q 322 119 306 206 q 357 11 339 33 q 360 8 354 8 q 398 10 365 8 q 471 11 431 11 q 547 7 511 11 q 508 133 535 51 q 466 263 482 214 q 450 335 450 313 q 480 461 463 410 q 524 581 497 513 q 563 689 550 649 z "},"y":{"ha":624,"x_min":-32,"x_max":619,"o":"m 410 700 l 579 703 q 619 690 615 703 q 537 351 593 594 q 460 49 481 107 q 229 -222 386 -160 q 44 -254 150 -254 q -8 -253 8 -254 q -32 -151 -32 -242 q -17 -54 -32 -61 l 71 -58 q 137 -43 114 -58 q 160 17 160 -28 q 149 82 160 24 q 117 228 138 140 q 81 377 97 317 q 38 542 65 438 q -3 693 10 646 l 6 701 q 60 697 33 697 l 157 700 q 211 697 193 700 l 217 690 q 243 546 224 640 q 278 367 263 451 q 317 211 293 282 q 354 447 336 281 q 404 696 372 613 q 410 700 407 699 m 558 690 l 414 686 q 367 434 383 604 q 325 188 350 264 l 313 188 q 247 455 289 249 q 203 683 206 661 q 156 686 172 686 l 61 683 q 14 686 29 683 q 74 463 28 629 q 133 228 119 296 l 168 61 q 172 41 169 51 q 174 25 174 31 q 148 -51 174 -32 q 72 -71 122 -71 l -11 -68 q -18 -152 -18 -107 q -3 -239 -18 -197 q 49 -240 14 -240 q 222 -210 147 -240 q 340 -135 296 -179 q 417 -18 383 -90 q 467 114 450 54 q 514 318 489 201 q 604 688 586 624 q 558 690 574 690 z "},"z":{"ha":633,"x_min":18,"x_max":613,"o":"m 610 690 l 606 567 q 610 507 606 536 q 608 500 608 504 q 457 349 558 446 q 311 203 356 251 q 360 204 326 204 l 488 201 q 603 213 544 201 l 603 203 l 606 10 l 599 3 q 83 -8 401 -8 q 26 3 38 -8 l 18 136 q 71 241 18 182 q 210 376 124 300 q 333 496 296 453 q 244 494 314 494 q 40 475 113 493 q 25 539 25 483 q 39 697 25 683 l 267 699 l 438 696 l 560 701 l 613 701 l 610 690 m 296 188 l 290 200 q 442 352 338 253 q 596 507 546 451 q 592 550 592 528 q 596 685 592 572 q 575 686 589 686 l 461 683 q 424 685 439 683 l 46 683 l 40 547 q 44 490 40 517 q 210 506 101 503 q 349 511 318 508 q 354 500 350 506 q 196 338 306 442 q 38 176 86 235 q 36 156 36 169 l 42 61 l 40 8 q 592 17 435 8 q 590 105 592 46 q 589 194 589 164 q 493 186 542 186 l 357 190 q 296 188 335 190 z "},"{":{"ha":442,"x_min":4,"x_max":414,"o":"m 331 701 l 335 601 q 267 474 335 504 q 319 406 311 440 q 331 361 328 372 q 333 261 333 343 q 351 184 335 218 q 407 150 368 150 q 414 85 414 135 q 413 1 414 36 l 407 -6 q 368 -8 382 -8 q 227 28 289 -8 q 165 140 165 65 l 168 200 q 42 403 168 392 q 19 406 25 404 q 4 476 4 408 q 22 553 4 543 q 44 551 29 551 q 140 600 108 551 q 171 721 171 649 l 165 815 q 331 951 165 951 q 401 949 357 951 q 414 881 414 936 q 404 806 414 826 q 346 770 361 793 q 331 701 331 747 m 182 236 l 178 153 q 213 60 178 94 q 304 13 249 25 q 357 6 328 6 q 399 7 386 6 q 400 136 400 28 q 335 182 350 149 q 321 283 321 215 q 308 395 321 351 q 250 469 296 439 l 251 482 l 254 483 l 254 482 q 321 594 321 506 l 315 700 q 396 818 315 794 q 400 892 400 876 q 396 935 400 908 q 325 939 333 939 q 179 819 179 939 l 185 746 q 153 597 185 658 q 47 536 122 536 q 26 538 33 536 q 18 471 18 504 q 24 415 18 438 q 141 367 100 415 q 182 236 182 318 z "},"|":{"ha":279,"x_min":56,"x_max":225,"o":"m 222 1013 l 225 -39 l 218 -46 l 151 -46 q 56 -33 68 -46 l 56 1007 q 74 1015 64 1015 q 129 1013 117 1015 q 215 1019 167 1013 l 222 1013 m 211 -32 q 210 485 211 140 q 208 1004 208 831 q 140 997 178 997 q 88 1001 103 997 l 69 1001 l 69 -28 q 193 -32 179 -28 l 211 -32 z "},"}":{"ha":442,"x_min":24,"x_max":435,"o":"m 274 231 l 276 163 q 263 90 276 125 q 204 23 250 54 q 85 -8 158 -8 q 36 -6 67 -8 l 29 0 q 24 81 24 22 q 35 150 24 139 q 107 261 107 150 l 106 300 q 119 394 106 342 q 172 474 132 446 q 103 621 103 507 l 110 721 q 98 768 110 750 q 74 792 86 786 q 36 806 63 797 q 25 863 25 826 q 33 943 25 899 q 92 951 51 951 q 159 947 132 951 q 217 931 186 943 q 275 808 275 904 l 271 708 q 305 596 271 640 q 401 551 339 551 q 421 553 414 551 q 435 443 435 536 q 413 401 435 401 q 306 352 339 401 q 274 231 274 303 m 122 318 l 124 294 q 42 136 124 136 l 39 50 l 39 28 q 60 6 39 8 q 76 6 67 6 q 207 42 149 6 q 265 153 265 79 l 258 244 q 300 368 258 322 q 418 415 342 414 q 422 472 422 440 q 415 538 422 503 q 378 536 407 536 q 322 556 350 536 q 281 608 294 575 q 257 738 257 668 l 261 819 q 114 939 261 939 q 46 935 108 939 q 39 869 39 900 q 44 818 39 839 q 88 798 75 806 q 113 768 101 790 q 125 710 125 746 l 119 601 q 189 482 119 503 l 192 469 q 135 406 147 440 q 122 318 122 371 z "},"~":{"ha":792,"x_min":11,"x_max":768,"o":"m 235 232 l 244 178 l 232 178 q 166 185 210 185 q 74 183 122 185 q 11 182 26 182 q 60 310 18 226 q 281 493 132 493 q 410 439 364 493 q 436 407 418 431 q 503 360 472 360 q 561 394 535 360 q 594 468 588 429 q 667 479 617 479 l 726 478 q 751 479 743 478 q 768 436 768 463 q 710 252 768 335 q 546 169 651 169 q 425 214 478 169 q 397 250 410 226 q 369 287 383 274 q 322 300 354 300 q 264 283 290 300 q 235 232 238 265 m 32 196 l 154 200 q 224 194 200 200 q 221 221 221 204 q 249 288 221 261 q 317 315 278 315 q 374 303 357 315 q 408 263 390 290 q 431 228 425 235 q 550 181 469 181 q 692 255 631 181 q 753 428 753 329 q 749 464 753 447 l 749 465 q 678 463 725 464 q 607 460 631 463 q 569 383 599 418 q 504 347 540 347 q 455 371 485 347 q 397 433 425 394 q 275 481 350 481 q 32 196 104 481 z "},"":{"ha":278,"x_min":0,"x_max":0,"o":""},"":{"ha":300,"x_min":50,"x_max":249,"o":"m 235 -104 l 226 -104 q 110 -114 226 -104 q 53 -99 68 -114 q 58 298 58 157 q 51 633 58 439 q 126 649 67 649 l 161 649 l 206 650 q 246 642 238 650 q 243 519 243 558 l 249 161 q 242 -97 249 118 l 235 -104 m 185 633 l 126 633 q 65 629 83 633 q 71 293 71 483 q 67 -94 71 103 q 111 -100 88 -100 l 226 -90 q 235 167 235 82 l 229 513 q 232 635 229 554 q 185 633 217 633 m 90 882 l 231 883 l 232 883 q 243 851 243 871 l 233 713 q 167 694 215 694 q 50 711 67 694 l 54 875 q 73 885 64 885 q 90 882 82 885 m 226 869 l 117 867 q 68 869 83 867 l 64 717 l 169 708 q 219 717 201 708 q 228 839 219 815 q 226 869 228 864 z "},"":{"ha":486,"x_min":32,"x_max":461,"o":"m 279 644 q 278 556 279 644 q 281 297 278 469 q 302 358 301 310 q 318 414 303 406 q 338 413 324 413 l 388 417 q 447 407 425 417 l 456 286 q 397 177 456 228 q 279 124 339 126 l 279 89 q 282 55 282 72 q 275 38 282 38 l 276 38 l 275 36 l 240 26 q 213 82 213 26 q 215 119 213 97 q 185 118 210 118 q 119 136 160 118 q 65 185 79 154 q 32 367 32 275 l 32 463 l 36 563 l 35 639 q 79 769 35 715 q 193 824 124 824 q 217 822 208 824 l 215 872 q 254 915 215 915 q 275 908 269 915 q 281 886 281 900 l 278 835 q 279 818 278 824 q 410 747 358 815 q 461 596 461 679 q 451 533 461 567 q 390 521 444 521 l 376 521 q 294 560 294 521 q 282 642 294 603 l 279 644 m 267 276 l 263 592 q 278 664 263 658 q 311 575 311 647 l 310 551 q 388 535 310 535 q 438 539 413 535 l 446 610 q 394 743 446 682 q 274 804 343 804 q 263 838 263 810 q 267 878 263 865 l 267 899 q 256 900 260 900 q 232 885 232 900 l 235 839 q 222 807 235 819 q 192 810 200 810 q 88 762 126 810 q 49 636 49 714 l 50 572 l 46 426 q 46 397 46 421 q 47 351 46 372 q 51 290 47 329 q 64 228 54 251 q 89 181 74 206 q 196 132 121 132 q 232 135 210 132 l 228 78 q 233 43 228 54 l 236 40 l 239 39 l 267 47 l 264 107 q 267 140 264 124 q 385 189 328 140 q 442 297 442 238 l 436 397 q 400 400 424 400 l 346 397 l 321 399 q 308 310 321 332 q 281 281 296 288 l 267 276 m 222 663 q 235 582 235 638 q 233 427 235 526 q 232 279 232 328 q 172 410 172 288 l 176 596 q 188 642 176 622 q 222 663 199 663 m 217 299 l 218 499 q 215 647 218 547 l 203 642 q 192 603 192 617 l 185 453 q 217 299 185 331 z "},"":{"ha":675,"x_min":17,"x_max":658,"o":"m 199 319 l 26 322 l 25 324 q 22 358 24 343 q 19 392 21 374 q 17 466 17 425 q 35 515 17 507 q 97 522 54 522 q 168 522 139 522 q 203 521 197 521 q 197 639 197 572 q 217 936 197 936 l 294 933 q 388 944 340 933 l 388 656 q 386 514 388 561 q 496 507 444 507 l 565 514 q 574 467 574 499 q 565 315 574 435 l 494 315 q 381 305 381 315 q 397 240 381 294 q 519 233 439 240 q 626 225 600 225 q 658 225 651 225 q 647 -4 647 36 l 632 -4 q 586 -4 608 -4 l 438 -3 q 298 -3 385 -3 q 201 17 211 -4 q 206 101 206 58 l 199 319 m 161 501 l 85 506 q 32 496 32 506 l 36 335 l 215 333 l 219 104 q 215 18 219 61 q 331 7 247 7 l 453 10 l 632 10 q 643 211 632 78 q 621 210 635 210 l 417 222 q 368 306 368 222 q 374 326 368 321 q 461 328 403 326 q 550 329 519 329 q 549 354 549 333 q 553 422 549 375 q 557 497 557 469 q 496 492 535 492 q 372 510 389 492 q 375 718 375 649 q 372 929 375 788 q 283 921 322 921 q 221 922 243 921 q 215 832 215 893 l 213 621 q 218 503 213 578 l 161 501 z "},"":{"ha":843,"x_min":15,"x_max":832,"o":"m 15 156 l 121 281 q 100 463 100 326 q 121 681 100 600 q 71 734 113 690 q 17 806 29 778 q 169 935 94 872 q 304 782 215 878 q 356 789 319 782 q 431 796 392 796 q 540 783 471 796 q 605 856 561 804 q 675 935 649 908 l 829 806 q 769 738 810 781 q 711 672 728 694 q 744 490 744 614 q 703 279 744 365 q 742 231 729 244 q 768 201 754 217 q 832 156 796 171 q 760 99 811 147 q 661 28 710 50 q 657 29 658 29 q 597 88 642 46 q 532 157 553 131 q 399 143 460 143 q 281 156 339 143 q 234 93 267 139 q 182 28 201 47 q 87 90 151 29 q 15 156 22 151 m 675 915 l 543 769 q 430 783 465 783 q 357 776 394 783 q 301 768 319 768 l 297 769 q 167 915 207 865 q 33 801 122 876 q 81 749 39 793 q 135 679 122 706 q 111 517 111 590 q 115 402 111 444 q 126 323 118 360 q 134 281 135 286 q 133 274 133 275 q 76 207 107 247 q 36 156 46 167 q 103 99 60 143 q 175 42 146 54 l 178 42 q 279 171 249 140 q 406 158 339 158 q 535 172 474 158 q 593 114 546 160 q 664 42 640 68 q 737 97 694 54 q 806 153 779 139 q 714 242 767 172 q 690 272 692 269 q 689 281 689 275 q 732 488 732 367 q 697 669 732 608 q 699 678 697 675 q 753 739 715 699 q 808 801 790 779 q 675 915 764 840 m 351 639 q 451 644 392 644 q 553 615 511 644 q 594 499 594 586 q 553 335 594 378 q 411 293 511 293 q 319 302 353 293 q 270 335 285 311 q 252 381 256 358 q 249 474 249 403 q 265 582 249 546 q 325 635 281 618 l 351 639 m 261 486 l 261 436 q 288 335 261 365 q 362 306 315 306 q 482 315 408 306 q 583 515 583 329 q 433 631 583 631 q 329 621 388 631 q 293 599 303 613 q 278 577 283 585 q 269 556 272 569 q 264 533 267 542 q 261 486 261 521 z "},"":{"ha":736,"x_min":28,"x_max":719,"o":"m 656 401 l 654 346 l 656 340 q 590 343 638 343 l 456 338 q 440 313 446 333 q 431 288 433 293 l 606 289 q 651 281 642 289 l 647 197 l 647 147 l 369 140 q 334 63 354 115 q 306 -7 314 11 l 244 -3 l 97 -4 q 108 51 97 25 q 131 103 119 78 q 146 136 143 129 q 117 140 131 140 l 72 138 q 35 146 49 138 l 31 154 l 29 213 q 46 283 29 275 q 88 281 58 281 l 200 286 q 211 310 204 294 q 222 333 218 326 l 122 329 q 36 342 72 329 q 28 386 28 360 l 32 465 q 142 479 46 479 l 233 478 q 278 479 263 478 q 256 547 275 499 q 232 605 236 594 q 210 657 228 615 q 188 710 193 699 q 169 759 183 722 q 148 815 154 796 q 132 864 142 833 q 106 969 114 918 q 160 965 143 965 l 275 971 q 324 964 317 971 q 347 889 332 938 q 403 726 379 778 q 499 936 471 853 q 508 949 500 940 q 526 959 517 957 q 556 964 535 961 q 603 967 576 967 l 669 967 q 719 954 715 967 q 518 486 618 663 q 553 479 532 479 l 613 483 q 644 476 633 483 q 656 401 656 453 m 632 194 l 638 274 q 576 275 613 275 q 490 274 539 275 q 417 274 442 274 l 421 293 q 428 317 424 297 q 443 346 432 336 q 539 356 454 356 q 638 354 624 356 q 635 390 635 365 l 638 465 q 614 472 628 472 l 543 465 q 503 486 503 465 q 703 951 608 676 q 631 953 688 953 q 518 944 574 953 q 469 833 504 915 q 408 707 433 750 q 363 781 388 707 q 327 897 340 849 q 311 954 314 944 q 274 956 299 956 l 161 950 q 125 953 150 950 q 158 829 136 886 q 188 750 179 772 q 228 650 211 688 q 261 576 244 613 q 293 474 293 503 q 249 463 288 463 l 218 464 q 46 460 75 464 l 40 385 q 44 354 40 369 q 125 343 79 343 l 225 347 q 242 347 235 347 l 211 278 q 83 265 186 265 q 49 268 71 265 q 40 206 40 243 q 48 160 40 168 q 79 151 56 151 l 118 153 q 163 143 147 153 q 144 106 161 139 q 113 8 115 44 q 132 8 119 8 l 250 11 q 301 7 288 11 q 311 42 303 8 q 365 154 333 133 q 508 158 415 154 q 636 161 600 161 q 632 194 632 175 z "},"":{"ha":204,"x_min":0,"x_max":0,"o":""},"":{"ha":1204,"x_min":0,"x_max":0,"o":""},"":{"ha":485,"x_min":35,"x_max":449,"o":"m 192 717 l 54 718 l 50 718 q 35 771 35 725 l 42 864 l 42 875 q 131 885 65 885 q 207 864 197 885 q 203 792 204 849 q 192 717 201 736 m 433 717 l 296 718 l 292 718 q 276 771 276 725 l 283 864 l 283 875 q 373 885 307 885 q 449 864 439 885 q 444 792 446 849 q 433 717 443 736 m 54 732 l 185 731 q 192 863 185 819 q 138 871 168 871 q 56 861 107 871 l 49 768 q 54 732 49 744 m 296 732 l 426 731 q 433 863 426 819 q 380 871 411 871 q 297 861 349 871 l 290 768 q 296 732 290 744 z "},"":{"ha":768,"x_min":43,"x_max":726,"o":"m 624 782 q 649 767 624 782 q 700 695 674 751 q 726 576 726 639 q 710 346 726 513 l 710 343 q 564 181 671 218 q 462 157 511 163 q 338 151 413 151 q 117 222 196 151 q 57 325 71 264 q 43 471 43 386 l 43 528 q 183 808 43 750 q 358 839 260 839 q 515 826 456 839 q 624 782 575 813 m 714 557 q 684 703 714 642 q 567 795 654 765 q 404 825 479 825 q 287 820 329 825 q 198 797 244 815 q 122 747 151 779 q 57 525 57 675 l 57 469 q 128 231 57 296 q 336 165 200 165 q 593 209 522 165 q 696 347 664 253 q 706 445 697 372 q 714 557 714 518 m 357 253 l 294 249 q 217 269 256 249 q 153 356 163 299 q 147 436 147 382 q 142 532 142 500 q 214 713 142 656 q 401 738 246 738 q 600 674 557 738 q 629 557 629 632 q 622 430 629 482 q 599 346 615 378 q 563 294 582 314 q 511 267 544 275 q 357 253 457 253 m 319 263 l 386 264 q 571 318 525 264 q 602 385 592 343 q 613 450 613 426 q 614 552 614 474 q 589 667 614 631 q 404 724 550 724 l 274 719 q 183 660 211 719 q 156 536 156 601 l 163 404 q 172 333 163 354 q 198 298 182 311 q 226 278 214 285 q 319 263 253 263 m 372 594 l 349 586 l 349 585 l 340 474 q 358 394 340 413 l 369 389 q 397 398 389 389 q 404 419 406 407 q 415 460 400 453 q 428 458 419 458 l 465 461 q 499 418 499 461 q 460 320 499 357 q 367 283 422 283 q 286 306 311 283 q 256 355 261 329 q 250 417 250 381 l 247 542 q 358 700 247 700 q 458 658 413 700 q 503 561 503 615 q 483 517 503 524 q 453 514 474 514 q 408 521 432 514 q 403 547 406 526 q 394 581 400 567 q 372 594 388 594 m 331 525 l 329 551 q 342 599 329 586 q 374 608 364 608 q 390 606 385 608 q 398 597 394 603 q 404 587 401 592 q 409 573 407 582 q 413 560 411 564 q 417 533 417 547 q 460 528 442 528 q 485 536 479 528 q 490 563 490 544 q 451 646 490 611 q 358 681 413 681 q 264 583 269 681 q 264 550 264 571 l 268 357 q 357 296 289 296 q 446 329 406 296 q 486 414 486 363 q 486 418 486 415 q 467 446 483 444 l 431 443 l 419 444 q 413 391 419 407 q 377 375 406 375 q 339 399 349 375 q 329 468 329 422 l 331 525 m 335 588 l 335 586 l 335 588 z "},"":{"ha":383,"x_min":25,"x_max":342,"o":"m 218 994 q 222 1013 218 1006 q 315 1011 310 1013 l 339 1011 l 342 725 l 342 688 q 333 651 342 660 q 297 643 325 643 q 242 639 269 643 q 224 672 224 639 q 141 643 194 643 q 56 702 88 643 q 25 835 25 761 q 64 960 25 908 q 171 1013 103 1013 q 218 994 200 1013 m 325 660 l 328 989 q 326 994 326 990 l 235 1001 l 235 989 q 218 969 235 969 q 156 999 208 999 q 72 950 104 999 q 39 834 39 901 q 67 711 39 767 q 147 656 94 656 q 225 692 200 656 l 225 693 q 228 694 226 693 q 239 692 231 694 q 235 675 239 683 l 235 664 q 236 661 236 664 q 238 658 236 658 l 325 660 m 192 915 q 230 900 222 915 q 238 831 238 885 q 192 740 238 740 q 125 781 142 740 q 114 826 114 803 q 119 871 114 850 q 192 915 133 915 m 138 876 q 126 828 126 850 q 136 789 126 807 q 191 756 157 756 q 225 839 225 756 q 218 894 225 874 q 189 903 203 903 q 153 892 175 903 l 138 876 z "},"":{"ha":810,"x_min":13,"x_max":788,"o":"m 481 113 l 465 99 q 438 69 458 92 q 372 10 396 25 l 364 10 q 230 136 319 54 q 88 271 140 218 q 13 361 35 324 l 13 367 q 63 429 40 407 q 107 473 85 451 q 149 515 129 494 q 241 611 168 535 q 354 728 314 688 l 363 728 q 425 673 381 718 q 469 622 469 628 q 347 488 432 572 q 229 361 263 403 q 347 247 263 331 q 481 124 431 164 l 481 113 m 788 113 l 772 99 q 744 69 765 92 q 679 10 703 25 l 671 10 q 537 136 626 54 q 394 271 447 218 q 319 361 342 324 l 319 367 q 369 429 347 407 q 414 473 392 451 q 456 515 436 494 q 548 611 475 535 q 661 728 621 688 l 669 728 q 732 673 688 718 q 776 622 776 628 q 654 488 739 572 q 536 361 569 403 q 653 247 569 331 q 788 124 738 164 l 788 113 m 772 118 q 640 241 724 158 q 522 354 557 324 l 522 365 q 639 492 556 408 q 760 624 722 575 q 708 670 739 636 q 667 714 678 704 q 521 565 594 642 q 424 465 447 488 q 390 431 401 443 q 333 364 349 388 q 488 199 365 310 q 675 24 610 89 q 731 75 707 49 q 772 118 756 101 m 465 118 q 333 241 417 158 q 215 354 250 324 l 215 365 q 332 492 249 408 q 453 624 415 575 q 401 670 432 636 q 360 714 371 704 q 214 565 288 642 q 117 465 140 488 q 83 431 94 443 q 26 364 42 388 q 68 308 38 344 q 163 214 113 263 l 164 214 q 368 24 303 89 q 424 75 400 49 q 465 118 449 101 z "},"":{"ha":654,"x_min":21,"x_max":610,"o":"m 515 350 l 514 565 l 142 569 l 81 568 q 22 581 35 568 l 21 663 l 603 660 l 610 653 l 610 651 q 609 650 610 650 q 608 649 608 650 l 610 649 l 606 349 l 599 342 l 522 342 l 515 350 m 528 572 l 529 356 l 592 356 l 596 646 l 35 649 l 35 601 q 36 593 36 599 q 51 582 36 582 l 78 582 l 143 583 l 521 579 l 528 572 z "},"":{"ha":513,"x_min":40,"x_max":471,"o":"m 465 389 l 469 338 q 44 340 206 338 l 40 431 l 50 429 q 260 432 118 429 q 471 435 401 435 q 465 389 465 404 m 453 418 l 57 415 l 57 368 q 58 353 58 365 l 453 351 l 451 396 q 453 418 451 411 z "},"":{"ha":768,"x_min":43,"x_max":728,"o":"m 117 222 q 57 325 71 264 q 43 471 43 386 l 43 528 q 183 808 43 750 q 378 839 260 839 q 624 782 567 839 q 728 544 728 746 q 719 424 728 511 q 706 326 710 336 q 556 178 661 211 q 334 151 472 151 q 117 222 196 151 m 586 206 q 647 254 618 222 q 686 313 676 286 q 696 362 696 340 q 706 451 696 383 q 717 556 717 519 q 389 825 717 825 q 287 820 329 825 q 198 797 244 815 q 122 747 151 779 q 57 525 57 675 l 57 469 q 128 231 57 296 q 336 165 200 165 q 586 206 511 165 m 629 554 q 629 526 629 551 q 627 472 629 501 q 617 392 625 442 q 518 267 597 289 q 383 250 461 250 q 281 251 306 250 q 223 265 257 253 q 173 303 189 278 q 150 375 157 328 q 142 528 142 431 q 214 713 142 656 q 401 738 246 738 q 600 674 557 738 q 629 554 629 632 m 156 528 l 161 417 q 185 310 164 335 q 322 264 221 264 q 435 270 360 264 q 544 296 510 276 q 595 374 578 315 q 613 533 613 433 q 589 667 613 633 q 404 724 550 724 l 274 719 q 200 685 229 719 q 156 528 156 629 m 524 293 l 432 290 q 403 333 415 297 q 386 377 390 369 q 369 401 382 385 l 353 424 q 351 404 351 418 l 361 304 q 302 289 346 289 q 249 299 258 289 q 254 367 254 322 l 249 469 l 250 526 q 246 690 246 689 q 326 707 263 707 q 522 578 522 707 q 499 501 522 535 q 435 463 475 468 q 468 414 444 447 q 531 303 517 347 l 524 293 m 417 468 l 424 476 q 486 511 464 476 q 508 585 508 546 q 461 671 508 624 q 351 692 415 692 q 260 686 286 692 l 265 407 l 264 344 l 264 304 l 304 303 q 347 308 331 303 l 339 406 q 346 444 339 432 l 358 443 q 402 371 379 422 q 436 304 425 319 q 514 307 461 304 q 463 391 504 335 q 417 468 421 447 m 326 572 l 328 613 l 332 621 q 376 629 357 629 q 410 617 394 629 q 426 581 426 604 q 375 533 426 533 q 333 544 339 533 q 326 572 326 556 m 404 604 q 373 615 393 615 q 347 609 353 615 q 340 582 340 603 q 344 554 340 561 q 367 547 347 547 q 400 553 388 547 l 411 572 q 404 604 411 590 z "},"":{"ha":414,"x_min":29,"x_max":389,"o":"m 107 563 q 42 624 56 588 q 29 740 29 661 q 68 865 29 818 q 200 913 107 913 q 389 747 389 913 q 360 620 389 681 q 282 560 332 560 q 197 547 244 547 q 107 563 149 547 m 264 893 q 233 896 244 893 l 185 896 q 167 894 182 894 q 121 885 151 894 q 76 858 90 875 q 43 742 43 822 q 69 604 43 636 q 175 564 106 564 q 328 603 281 564 q 375 747 375 642 q 344 850 375 814 q 264 893 314 886 m 157 824 q 219 831 181 831 q 283 813 258 831 q 307 739 307 794 q 282 657 307 683 q 200 631 257 631 q 125 651 143 631 q 107 736 107 672 q 154 824 107 800 l 157 824 m 158 646 l 240 649 q 274 672 265 657 q 285 706 283 686 q 292 735 288 726 q 290 772 292 761 q 281 794 289 782 q 200 815 267 815 q 143 797 160 815 q 124 751 124 776 l 124 714 q 158 646 124 660 z "},"":{"ha":696,"x_min":36,"x_max":678,"o":"m 378 342 l 233 349 l 226 357 q 218 411 218 357 l 221 522 l 160 529 q 103 529 133 529 q 61 546 72 529 l 47 738 l 232 750 l 231 826 q 257 929 231 918 q 324 921 274 921 l 461 932 q 461 894 464 918 q 454 785 454 804 q 460 759 454 767 q 478 750 467 751 q 502 750 490 749 q 531 753 514 751 q 557 756 547 756 q 631 742 625 756 q 628 667 628 717 l 629 600 q 623 539 629 553 q 593 525 617 525 q 460 526 478 525 q 461 504 461 517 l 450 357 q 378 342 435 342 m 239 363 l 381 356 q 436 361 419 356 q 446 529 436 460 q 488 543 446 543 l 578 538 q 608 546 600 538 q 615 572 615 554 l 613 685 q 615 736 613 703 l 526 739 q 487 738 511 739 q 453 743 463 738 q 443 765 443 749 l 446 825 l 446 913 l 324 907 q 256 915 278 907 q 244 807 244 875 l 246 744 q 69 722 224 722 l 75 547 q 127 542 88 543 q 200 540 167 542 q 236 531 233 539 l 235 515 l 239 363 m 667 246 l 665 154 q 678 0 665 46 q 674 -1 676 -1 l 39 8 l 36 236 q 40 240 38 238 q 43 244 42 243 l 667 246 m 647 97 l 651 231 l 50 231 q 49 214 49 226 l 53 133 l 53 25 q 353 19 153 25 q 654 13 553 13 q 647 97 647 47 z "},"":{"ha":367,"x_min":38,"x_max":335,"o":"m 289 460 l 74 456 l 44 456 l 38 464 l 38 517 q 46 590 38 575 q 65 623 54 604 q 94 654 76 642 q 138 682 111 667 q 217 761 217 726 q 203 796 217 782 q 190 800 199 800 q 171 794 182 800 l 163 786 q 150 729 150 761 q 101 717 143 717 q 51 724 60 717 q 42 758 42 732 q 43 801 42 785 q 56 843 44 817 q 93 894 67 869 q 194 918 119 918 q 301 876 268 918 q 335 739 335 833 q 311 680 335 704 q 258 644 288 656 q 160 563 174 611 l 160 558 l 311 560 q 325 517 325 546 q 317 460 325 489 l 289 460 m 156 544 q 147 551 147 549 q 146 556 147 554 q 173 613 146 590 q 233 646 200 635 q 292 683 265 657 q 319 749 319 708 q 311 818 319 785 q 294 863 303 851 q 251 899 272 894 q 218 904 229 904 q 201 904 207 904 q 53 769 53 904 q 59 736 53 742 q 94 731 65 731 q 136 733 122 731 q 149 789 136 763 q 183 815 161 815 q 217 797 206 815 q 229 754 229 778 q 201 708 229 731 q 132 660 174 685 q 75 618 90 635 q 51 532 51 594 l 53 494 q 51 469 53 482 l 74 469 q 307 474 303 474 q 310 510 304 489 q 306 546 310 536 l 156 544 z "},"":{"ha":353,"x_min":26,"x_max":318,"o":"m 318 761 l 317 647 q 278 488 317 522 q 164 451 236 451 q 61 482 92 451 q 37 526 42 500 q 32 597 32 551 q 124 610 44 610 l 136 597 q 147 585 144 589 q 155 578 150 582 q 164 574 160 575 q 186 571 169 571 q 207 603 207 581 q 156 638 207 638 q 135 636 142 638 l 133 636 q 115 674 115 636 l 118 729 l 122 738 q 158 742 129 742 q 197 749 186 742 q 207 779 207 756 q 179 800 199 800 q 122 761 160 800 q 74 756 104 756 q 32 768 44 756 q 26 800 26 792 q 72 883 26 853 q 169 914 117 914 q 268 894 225 914 q 308 842 288 886 q 318 761 318 819 m 119 596 l 57 589 q 52 590 56 589 q 47 590 49 590 q 51 550 49 582 q 63 500 54 518 l 75 488 l 74 488 q 106 471 74 478 q 174 464 139 464 q 239 478 210 464 q 281 521 268 493 q 303 638 303 567 l 301 833 q 253 883 288 865 q 170 901 218 901 q 83 871 122 901 q 44 785 44 840 q 46 774 46 781 l 110 774 q 140 795 117 776 q 181 814 164 814 q 209 799 197 814 q 221 763 221 785 q 201 733 221 740 q 132 726 181 726 l 129 672 q 133 650 129 661 q 167 651 143 651 q 206 637 192 651 q 219 603 219 622 q 208 569 219 583 q 179 554 197 554 q 144 567 161 554 q 119 596 126 579 z "},"":{"ha":354,"x_min":4,"x_max":342,"o":"m 201 726 q 104 717 192 717 q 4 729 17 717 l 4 740 q 117 852 43 774 q 236 967 192 931 q 299 914 263 953 q 342 868 335 875 l 342 860 q 296 819 331 849 q 201 726 214 753 m 22 738 q 115 729 68 729 q 189 735 161 729 q 258 806 203 761 q 326 864 314 851 q 240 951 268 922 q 122 839 196 915 q 22 738 49 763 z "},"":{"ha":636,"x_min":44,"x_max":599,"o":"m 253 -1 l 258 -210 q 194 -239 258 -239 l 78 -232 l 57 -233 q 60 -232 57 -232 q 44 -178 44 -226 l 53 701 q 122 704 64 704 l 235 704 q 244 649 244 683 l 242 436 q 276 247 242 282 q 318 233 276 244 q 408 351 408 233 l 397 589 q 404 692 397 649 q 481 703 428 703 l 517 703 q 590 707 561 703 q 599 467 599 604 l 597 211 q 594 3 597 72 q 540 -8 589 -3 q 449 -14 492 -14 q 401 0 407 -14 q 394 25 394 14 q 395 43 394 36 q 396 53 396 50 q 253 -1 346 1 m 236 -44 l 238 3 l 238 11 l 246 13 q 397 75 353 13 l 406 81 l 415 3 q 447 0 438 0 l 581 10 q 583 185 583 78 q 581 452 583 293 q 579 690 579 611 q 542 689 567 689 l 469 690 q 417 685 431 690 q 411 596 411 646 l 421 367 q 400 256 421 290 q 326 221 379 221 l 272 233 l 271 235 q 236 340 236 251 q 228 407 228 364 l 232 603 q 228 690 232 647 q 68 686 99 690 l 60 -142 q 61 -217 60 -192 l 188 -226 q 244 -215 224 -226 q 236 -133 236 -176 l 236 -44 z "},"":{"ha":933,"x_min":19,"x_max":917,"o":"m 774 1021 q 844 1022 774 1021 q 913 1011 900 1022 q 914 913 914 983 l 917 829 q 849 797 917 797 q 778 803 844 797 q 767 118 767 543 l 767 -156 q 771 -275 767 -246 q 707 -293 771 -293 q 568 -285 685 -293 q 561 -282 563 -282 q 571 185 571 -118 l 571 349 q 579 806 571 644 l 486 807 q 474 -154 474 488 q 482 -275 474 -217 q 418 -294 482 -294 l 301 -287 q 272 -282 274 -287 q 286 -17 286 -146 q 284 242 286 113 q 282 436 282 372 q 201 429 226 429 q 149 442 175 429 q 98 476 122 454 q 59 526 74 497 q 36 580 44 556 q 25 644 28 604 q 19 775 19 699 q 75 975 19 924 q 244 1017 119 1017 q 774 1021 508 1017 m 774 1007 l 306 1003 q 271 1003 300 1003 q 229 1003 242 1004 q 190 1001 217 1003 q 147 994 164 999 q 83 964 108 986 q 33 776 33 918 l 33 728 q 42 622 33 660 q 65 547 51 583 q 96 492 78 511 q 213 443 143 443 q 296 453 214 443 l 300 53 q 288 -272 300 -133 l 408 -282 q 467 -271 444 -282 q 461 -156 461 -221 q 472 815 461 528 q 534 822 486 822 q 593 813 582 822 q 585 326 585 653 l 586 228 q 575 -272 586 -108 l 701 -282 q 756 -272 732 -282 q 753 -201 753 -249 l 753 88 q 764 813 753 536 q 768 815 765 814 q 772 818 771 817 q 844 815 797 815 q 903 822 890 815 l 897 975 l 899 1004 q 836 1006 878 1006 q 774 1007 794 1006 z "},"":{"ha":228,"x_min":42,"x_max":186,"o":"m 50 553 l 175 551 l 183 551 l 183 453 l 186 389 q 174 356 186 361 q 103 347 161 350 l 50 344 l 42 532 q 50 553 42 547 m 168 538 l 57 539 l 56 514 l 63 361 l 125 358 q 172 369 172 358 l 168 538 z "},"":{"ha":264,"x_min":18,"x_max":251,"o":"m 96 -217 l 67 -218 q 18 -201 25 -218 q 38 -148 21 -193 q 61 -79 54 -103 q 94 7 81 0 q 181 3 118 7 q 251 0 244 0 l 183 -200 l 183 -203 q 182 -207 183 -206 l 182 -206 q 96 -217 171 -217 m 78 -201 l 169 -199 q 192 -119 169 -187 q 229 -15 215 -50 q 99 -7 138 -14 q 81 -62 93 -19 q 33 -199 51 -162 q 78 -201 64 -201 z "},"":{"ha":260,"x_min":10,"x_max":218,"o":"m 218 819 l 208 475 l 208 472 q 163 454 208 454 q 100 471 117 454 q 104 613 100 521 q 108 744 108 706 q 82 728 96 728 q 42 735 68 728 q 10 757 17 743 q 81 890 10 793 l 81 889 l 88 897 l 206 896 q 218 819 218 871 m 144 472 l 192 474 l 194 475 l 194 476 l 204 832 q 189 883 204 878 l 92 883 q 24 758 24 789 l 82 742 l 89 742 q 113 775 103 771 l 122 768 l 114 475 q 144 472 124 472 z "},"":{"ha":353,"x_min":31,"x_max":326,"o":"m 176 904 q 285 848 243 904 q 326 692 326 792 q 287 524 326 592 q 169 457 247 457 q 103 474 131 457 q 63 512 76 490 q 42 569 49 533 q 31 707 31 621 q 117 889 31 847 q 176 904 151 904 m 42 714 l 43 656 q 174 471 43 471 q 276 534 239 471 q 314 684 314 597 q 279 831 314 771 q 178 892 244 892 q 118 873 151 892 q 76 839 85 854 q 57 806 67 829 q 42 714 42 771 m 176 556 q 121 672 121 556 q 144 797 121 775 q 178 810 157 810 q 225 683 225 810 q 176 556 225 556 m 211 708 l 210 744 q 203 776 210 765 q 176 794 196 788 l 171 794 q 133 701 133 788 l 133 639 q 135 616 133 625 q 139 597 138 607 q 172 568 146 568 q 193 579 185 568 q 207 644 203 599 q 211 708 211 690 z "},"":{"ha":810,"x_min":22,"x_max":797,"o":"m 449 729 q 453 728 450 728 q 457 726 456 728 q 625 551 507 667 q 797 368 743 436 l 797 360 q 561 117 724 264 q 447 11 486 50 q 438 10 440 11 q 378 63 415 25 q 329 113 342 101 l 329 124 q 454 242 374 160 q 581 361 535 325 q 462 489 546 404 q 340 624 378 574 q 449 729 417 713 m 142 729 q 146 728 143 728 q 150 726 149 728 q 318 551 200 667 q 490 368 436 436 l 490 360 q 254 117 417 264 q 140 11 179 50 q 131 10 133 11 q 72 63 108 25 q 22 113 35 101 l 22 124 q 148 242 68 160 q 274 361 228 325 q 155 489 239 404 q 33 624 71 574 q 142 729 110 713 m 596 364 l 594 354 q 467 234 547 317 q 343 117 386 151 q 378 83 372 93 l 400 61 q 422 43 408 57 q 440 25 435 29 q 551 126 476 60 q 783 364 711 268 q 615 544 731 431 q 450 714 499 657 q 400 669 431 701 q 356 625 369 636 q 478 490 393 575 q 596 364 563 406 m 289 364 l 288 354 q 160 234 240 317 q 36 117 79 151 q 71 83 65 93 l 93 61 q 115 43 101 57 q 133 25 128 29 q 244 126 169 60 q 476 364 404 268 q 308 544 424 431 q 143 714 192 657 q 93 669 124 701 q 49 625 63 636 q 171 490 86 575 q 289 364 256 406 z "},"":{"ha":826,"x_min":14,"x_max":806,"o":"m 528 989 l 596 993 q 642 979 628 993 q 634 949 642 967 q 625 926 626 932 l 542 681 q 307 8 378 188 q 257 -11 288 -11 q 167 3 181 -11 q 314 420 183 53 q 500 986 444 788 q 511 989 508 986 q 508 990 510 990 q 528 989 515 989 m 183 8 l 289 7 q 321 83 292 10 q 405 314 350 156 q 526 674 460 472 q 626 975 592 875 q 600 979 614 979 l 536 974 q 511 975 518 974 q 329 419 458 781 q 183 8 200 57 m 764 261 q 779 263 768 263 q 806 250 790 263 q 801 144 806 194 q 761 135 785 132 q 751 8 751 64 q 699 -7 751 -7 q 633 6 646 -7 l 635 146 q 629 147 632 146 l 500 147 q 496 149 497 149 q 483 199 483 161 q 488 253 483 236 q 497 280 493 271 q 515 308 501 289 q 540 347 528 326 q 588 420 551 367 q 639 496 625 474 q 644 500 642 499 l 675 500 q 720 504 686 504 q 764 494 754 504 l 760 336 q 764 261 760 294 m 647 11 l 699 10 q 738 13 713 10 q 756 149 738 139 q 788 151 768 149 l 792 243 q 756 251 763 243 q 749 286 749 260 l 750 367 l 750 488 l 649 486 q 598 410 633 463 q 552 341 563 358 q 533 311 542 324 q 520 290 525 299 q 508 271 515 282 q 497 233 497 250 q 504 161 497 175 l 590 165 q 649 153 633 165 l 647 11 m 251 831 l 239 489 q 243 436 239 457 l 243 431 q 226 416 243 421 q 194 411 208 411 q 119 426 135 411 q 124 594 119 486 q 128 749 128 701 q 98 725 114 725 q 51 734 82 725 q 14 757 21 743 q 41 827 14 781 q 89 899 68 874 q 104 918 94 918 l 239 917 q 251 831 251 889 m 144 733 l 133 432 q 206 428 192 428 q 229 433 219 428 q 225 489 225 456 l 238 815 q 233 903 238 858 l 219 903 l 107 904 q 28 761 74 871 l 28 760 q 83 742 64 742 q 108 742 103 742 q 131 778 125 775 q 144 733 144 764 m 674 251 q 632 242 664 242 q 589 253 600 242 q 626 310 592 263 q 669 358 661 358 l 676 351 l 676 350 q 674 251 674 283 m 607 257 l 638 256 q 660 258 646 256 q 661 335 661 283 q 607 257 631 297 z "},"":{"ha":836,"x_min":14,"x_max":811,"o":"m 257 -11 q 167 3 181 -11 q 314 420 183 53 q 500 986 444 788 q 548 990 507 988 q 608 992 589 992 q 642 979 628 993 q 634 949 642 967 q 625 926 626 932 l 542 681 q 307 8 378 188 q 257 -11 288 -11 m 754 -1 l 528 -4 l 496 -4 q 488 35 488 3 q 519 185 488 154 q 595 243 550 217 q 663 286 640 269 q 685 326 685 303 q 654 374 685 374 q 611 297 611 374 q 553 281 601 281 q 499 292 506 281 q 492 343 492 303 q 540 472 492 436 q 658 507 589 507 q 769 462 726 507 q 811 332 811 417 q 785 246 811 279 q 728 200 760 213 q 621 115 638 167 l 621 110 q 663 108 635 108 l 788 111 q 803 67 803 96 q 799 26 803 38 l 799 14 q 800 13 800 14 q 801 10 800 11 q 800 3 800 7 l 793 -1 l 754 -1 m 183 8 l 289 7 q 321 83 292 10 q 405 314 350 156 q 526 674 460 472 q 626 975 592 875 q 600 979 614 979 l 536 974 q 511 975 518 974 q 329 419 458 781 q 183 8 200 57 m 501 57 l 503 10 l 528 10 q 785 13 697 13 q 783 21 783 15 l 788 64 q 782 97 788 85 q 671 94 707 94 l 633 93 q 607 107 614 93 q 628 160 607 139 q 692 200 650 181 q 746 226 735 219 q 787 276 778 247 q 796 351 796 304 q 793 365 793 354 q 760 455 793 422 q 669 490 726 488 q 503 335 503 490 q 511 306 503 313 q 547 299 519 299 q 597 303 575 299 q 610 362 597 335 q 648 389 624 389 q 686 372 672 389 q 700 328 700 354 q 683 283 700 303 q 581 219 663 260 q 518 156 535 189 q 501 57 501 124 m 251 831 l 239 489 q 243 436 239 457 l 243 431 q 226 416 243 421 q 194 411 208 411 q 119 426 135 411 q 124 594 119 486 q 128 749 128 701 q 98 725 114 725 q 51 734 82 725 q 14 757 21 743 q 41 827 14 781 q 89 899 68 874 q 104 918 94 918 l 225 917 l 239 917 q 251 831 251 889 m 193 428 l 224 431 q 226 432 225 431 q 229 433 228 433 q 225 489 225 456 l 238 815 q 233 903 238 858 l 219 903 l 107 904 q 28 761 74 871 l 28 760 q 106 739 69 739 l 108 742 q 131 778 125 775 l 140 771 l 140 769 q 144 733 144 753 l 133 432 q 193 428 192 428 z "},"":{"ha":869,"x_min":25,"x_max":851,"o":"m 574 989 l 642 993 q 688 979 674 993 q 680 949 688 967 q 671 926 672 932 l 588 681 q 353 8 424 188 q 303 -11 333 -11 q 213 3 226 -11 q 360 420 229 53 q 546 986 490 788 q 557 989 554 986 q 554 990 556 990 q 574 989 561 989 m 335 756 l 338 636 q 305 465 338 519 q 168 410 272 410 q 57 444 92 410 q 31 492 36 465 q 25 571 25 518 q 125 585 39 585 q 140 568 131 579 q 156 553 150 557 q 194 540 169 540 q 217 583 217 551 q 161 617 206 617 q 132 614 151 617 q 117 658 117 622 l 121 715 l 125 724 q 165 728 136 728 q 206 735 193 728 l 214 743 q 217 761 217 747 q 208 788 217 779 q 188 792 197 792 q 171 790 178 792 q 156 783 164 789 q 146 776 149 778 q 134 764 143 774 q 124 753 125 754 l 118 753 q 72 747 107 747 q 25 760 38 747 l 28 801 q 78 888 28 857 q 186 919 128 919 q 290 890 244 919 q 336 801 336 860 l 335 756 m 229 8 l 335 7 q 367 83 338 10 q 451 314 396 156 q 572 674 506 472 q 672 975 638 875 q 646 979 660 979 l 582 974 q 557 975 564 974 q 375 419 504 781 q 229 8 246 57 m 851 250 q 847 144 847 200 l 842 139 l 843 139 q 819 133 833 133 l 807 135 q 797 8 797 64 q 744 -7 797 -7 q 679 6 692 -7 l 681 146 q 675 147 678 146 l 546 147 q 529 214 529 147 q 538 269 529 250 q 560 308 547 289 q 585 347 574 326 q 634 420 597 367 q 685 496 671 474 q 690 500 688 499 l 749 504 q 810 494 800 504 l 806 336 q 810 261 806 294 q 819 263 815 263 l 851 250 m 321 764 l 322 807 q 281 879 322 854 q 177 904 239 904 q 76 872 115 904 q 38 779 38 840 q 39 765 39 774 l 113 765 q 133 782 122 771 q 183 807 161 807 q 232 765 232 807 q 216 728 232 740 q 181 717 200 717 q 131 676 131 714 q 135 628 131 639 q 174 631 151 631 q 213 615 196 631 q 231 577 231 599 q 217 540 231 556 q 187 525 204 525 q 149 537 169 525 q 119 571 129 549 q 83 568 111 571 q 40 565 56 565 q 42 529 42 556 q 70 451 43 478 q 153 424 97 424 q 239 434 210 424 q 285 462 268 444 q 311 511 303 479 q 325 650 325 556 q 321 764 325 650 m 693 11 l 744 10 q 783 13 758 10 q 801 149 783 139 q 833 151 814 149 l 838 243 q 801 251 808 243 q 794 286 794 260 l 796 325 l 796 488 l 694 486 q 644 410 679 463 q 598 342 608 358 q 578 312 588 325 q 567 293 569 299 l 558 275 q 542 209 542 243 q 550 161 542 175 l 636 165 q 682 160 664 165 l 688 160 l 694 153 l 693 11 m 722 351 l 722 307 q 713 244 722 263 l 711 244 q 671 240 689 240 q 639 244 653 240 l 635 253 q 672 310 638 263 q 715 358 707 358 l 722 351 m 653 257 l 683 256 q 706 258 692 256 q 707 335 707 283 q 653 257 676 297 z "},"":{"ha":625,"x_min":19,"x_max":610,"o":"m 436 578 l 432 526 q 332 293 411 372 q 305 252 326 281 q 269 197 283 224 q 254 150 254 171 q 278 108 254 129 q 340 88 301 88 q 378 119 364 94 q 413 161 393 143 q 474 179 433 179 q 610 164 594 179 q 515 -48 610 42 q 302 -137 421 -137 q 101 -60 183 -137 q 19 117 19 18 q 106 321 19 217 q 142 360 115 332 q 188 416 168 389 q 226 502 207 443 q 244 596 244 561 l 243 606 q 299 618 256 618 l 422 617 q 436 578 436 603 m 594 157 l 474 164 q 431 158 442 164 q 391 112 419 151 q 335 72 363 72 q 274 96 307 72 q 240 149 240 119 q 257 210 240 179 q 307 283 274 242 q 347 335 340 325 q 418 528 403 415 q 421 596 421 571 q 354 604 411 604 q 258 601 297 604 l 260 590 q 226 467 260 578 q 111 300 201 390 q 56 222 81 269 q 32 124 32 175 q 112 -56 32 11 q 310 -122 192 -122 q 505 -42 428 -122 q 594 157 582 39 m 263 863 l 422 861 l 426 861 q 440 798 440 840 q 435 739 440 756 l 435 693 q 335 672 414 672 q 247 692 257 672 q 263 863 247 847 m 269 849 l 261 694 q 344 685 300 685 q 421 697 389 685 l 421 847 l 269 849 z "},"":{"ha":603,"x_min":-1,"x_max":614,"o":"m 193 -8 l 3 -4 q 0 1 0 -1 q -1 4 0 3 q 26 156 -1 14 q 60 338 53 297 q 84 460 68 378 q 112 594 100 543 q 140 717 124 646 q 211 974 171 849 q 215 976 213 975 q 218 979 217 978 l 225 979 q 303 983 231 982 q 389 986 375 985 q 417 897 403 971 q 465 679 431 824 q 540 350 500 535 q 614 4 579 165 l 614 0 q 518 -14 607 -14 q 414 3 429 -14 q 385 112 401 35 q 350 225 368 189 q 311 226 336 228 q 272 226 286 225 q 248 115 260 197 q 213 -3 236 33 l 210 -4 q 207 -6 208 -6 l 193 -8 m 424 13 q 460 8 436 11 q 500 2 483 4 q 543 0 517 0 q 599 6 569 0 q 505 426 574 121 q 418 819 436 732 q 392 932 400 906 q 383 972 385 958 q 224 965 318 965 q 53 218 143 708 q 21 52 29 94 q 13 8 13 10 q 143 4 100 4 q 201 7 186 4 q 236 122 222 40 q 268 240 253 233 l 361 235 q 396 119 379 196 q 424 13 413 42 m 407 1042 q 297 1029 383 1029 q 211 1039 211 1029 q 162 1088 203 1056 q 92 1144 121 1121 q 64 1175 64 1168 q 100 1211 64 1176 q 172 1288 163 1274 q 349 1111 236 1239 q 407 1053 393 1063 l 407 1042 m 221 1047 q 297 1042 240 1042 q 388 1050 354 1042 q 339 1101 369 1065 q 171 1264 228 1221 l 83 1176 q 125 1140 89 1171 q 221 1047 208 1071 m 361 390 l 278 389 q 251 399 261 389 q 306 694 278 694 l 311 694 q 351 565 339 660 q 360 474 356 532 q 368 397 365 415 l 361 390 m 265 403 q 292 401 274 401 q 353 404 311 401 q 330 583 336 544 q 322 635 324 621 q 308 678 317 669 q 275 509 283 601 q 265 403 267 417 z "},"":{"ha":603,"x_min":-1,"x_max":614,"o":"m 193 -8 l 3 -4 q 0 1 0 -1 q -1 4 0 3 q 26 156 -1 14 q 60 338 53 297 q 84 460 68 378 q 112 594 100 543 q 140 717 124 646 q 211 974 171 849 q 215 976 213 975 q 218 979 217 978 l 225 979 q 303 983 231 982 q 389 986 375 985 q 417 897 403 971 q 465 679 431 824 q 540 350 500 535 q 614 4 579 165 l 614 0 q 518 -14 607 -14 q 414 3 429 -14 q 385 112 401 35 q 350 225 368 189 q 319 226 350 228 l 289 225 l 272 226 q 248 115 260 197 q 213 -3 236 33 l 210 -4 q 207 -6 208 -6 l 193 -8 m 424 13 q 460 8 436 11 q 500 2 483 4 q 543 0 517 0 q 599 6 569 0 q 505 426 574 121 q 418 819 436 732 q 392 932 400 906 q 383 972 385 958 q 224 965 318 965 q 53 218 143 708 q 21 52 29 94 q 13 8 13 10 q 143 4 100 4 q 201 7 186 4 q 236 122 222 40 q 268 240 253 233 l 314 243 q 361 235 342 243 q 396 119 379 196 q 424 13 413 42 m 376 1039 q 279 1029 367 1029 q 179 1042 192 1029 l 179 1053 q 292 1165 218 1086 q 411 1279 367 1243 q 474 1226 438 1265 q 517 1181 510 1188 l 517 1172 q 471 1133 506 1161 q 376 1039 389 1065 m 197 1050 q 290 1042 243 1042 q 364 1047 336 1042 q 433 1119 378 1074 q 501 1176 489 1164 q 415 1264 443 1235 q 297 1151 371 1228 q 197 1050 224 1075 m 361 390 l 278 389 q 251 399 261 389 q 306 694 278 694 l 311 694 q 351 565 339 660 q 360 474 356 532 q 368 397 365 415 l 361 390 m 265 403 q 292 401 274 401 q 353 404 311 401 q 330 583 336 544 q 322 635 324 621 q 308 678 317 669 q 275 509 283 601 q 265 403 267 417 z "},"":{"ha":603,"x_min":-1,"x_max":614,"o":"m 193 -8 l 3 -4 q 0 1 0 -1 q -1 4 0 3 q 8 55 3 21 q 14 97 13 89 q 211 974 93 599 q 215 976 213 975 q 218 979 217 978 l 225 979 q 303 983 231 982 q 389 986 375 985 q 414 914 403 969 l 426 853 q 614 4 482 611 l 614 0 q 518 -14 607 -14 q 414 3 429 -14 q 385 112 401 35 q 350 225 368 189 q 319 226 350 228 l 289 225 l 272 226 q 248 115 260 197 q 213 -3 236 33 l 210 -4 q 207 -6 208 -6 l 193 -8 m 424 13 q 460 8 436 11 q 500 2 483 4 q 543 0 517 0 q 599 6 569 0 q 507 419 569 138 q 427 782 444 701 q 398 906 410 863 q 383 972 386 949 q 224 965 318 965 q 28 93 99 568 q 14 8 17 19 q 147 4 106 4 q 201 7 188 4 q 236 122 222 40 q 268 240 253 233 l 314 243 q 361 235 342 243 q 396 119 379 196 q 424 13 413 42 m 313 1279 l 539 1054 l 533 1043 q 485 1037 518 1043 q 422 1031 453 1031 q 314 1092 344 1031 l 303 1103 q 267 1069 285 1089 q 234 1041 250 1049 q 173 1033 218 1033 q 82 1042 128 1033 l 78 1054 q 211 1197 128 1119 q 303 1281 294 1274 q 313 1279 306 1279 m 374 1050 q 448 1047 429 1047 q 486 1051 467 1047 q 517 1056 506 1054 l 307 1265 l 253 1215 q 94 1054 140 1111 q 181 1049 139 1049 q 240 1059 224 1049 q 271 1088 257 1069 q 299 1117 285 1107 l 307 1117 q 338 1085 319 1108 q 361 1058 357 1063 l 374 1050 m 361 390 l 278 389 q 251 399 261 389 q 306 694 278 694 l 311 694 q 351 565 339 660 q 360 474 356 532 q 368 397 365 415 l 361 390 m 265 403 q 292 401 274 401 q 353 404 311 401 q 330 583 336 544 q 322 635 324 621 q 308 678 317 669 q 275 509 283 601 q 265 403 267 417 z "},"":{"ha":603,"x_min":-1,"x_max":614,"o":"m 193 -8 l 3 -4 q 0 1 0 -1 q -1 4 0 3 q 8 55 3 21 q 14 97 13 89 q 211 974 93 599 q 215 976 213 975 q 218 979 217 978 l 225 979 q 303 983 231 982 q 389 986 375 985 q 417 897 403 971 q 465 679 431 824 q 540 350 500 535 q 614 4 579 165 l 614 0 q 518 -14 607 -14 q 414 3 429 -14 q 385 112 401 35 q 350 225 368 189 q 319 226 350 228 l 289 225 l 272 226 q 248 115 260 197 q 213 -3 236 33 l 210 -4 q 207 -6 208 -6 l 193 -8 m 424 13 q 460 8 436 11 q 500 2 483 4 q 543 0 517 0 q 599 6 569 0 q 505 426 574 121 q 418 819 436 732 q 392 932 400 906 q 383 972 385 958 q 224 965 318 965 q 28 93 99 568 q 14 8 17 19 q 147 4 106 4 q 201 7 188 4 q 236 122 222 40 q 268 240 253 233 l 297 240 q 322 244 307 244 q 361 235 338 244 q 396 119 379 196 q 424 13 413 42 m 188 1079 l 193 1047 l 186 1040 q 153 1042 176 1042 q 118 1046 129 1042 l 24 1044 l 17 1053 q 90 1216 40 1144 q 214 1288 140 1288 q 277 1273 250 1288 q 317 1239 304 1258 q 390 1182 353 1189 q 460 1265 442 1192 q 521 1275 479 1275 l 560 1274 l 581 1275 l 588 1271 q 590 1265 588 1265 q 549 1099 590 1165 q 424 1033 507 1033 q 360 1049 386 1033 q 324 1084 335 1065 q 295 1119 314 1103 q 251 1135 276 1135 q 207 1121 226 1135 q 188 1079 188 1107 m 33 1058 l 96 1063 q 125 1058 111 1063 q 176 1056 158 1058 q 174 1074 174 1067 q 197 1128 174 1106 q 249 1151 219 1151 q 294 1141 278 1151 q 319 1115 310 1131 q 339 1083 328 1100 q 431 1047 363 1047 q 538 1108 499 1047 q 576 1260 576 1168 l 472 1257 q 437 1193 465 1218 q 391 1168 408 1168 q 358 1181 374 1168 q 326 1216 343 1194 q 299 1246 310 1238 q 223 1272 265 1272 q 153 1256 181 1272 q 109 1223 125 1240 q 75 1169 93 1206 q 33 1058 54 1124 m 361 390 l 278 389 q 251 399 261 389 q 306 694 278 694 l 311 694 q 351 565 339 660 q 360 474 356 532 q 368 397 365 415 l 361 390 m 265 403 q 292 401 274 401 q 353 404 311 401 q 330 583 336 544 q 322 635 324 621 q 308 678 317 669 q 275 509 283 601 q 265 403 267 417 z "},"":{"ha":603,"x_min":-1,"x_max":614,"o":"m 193 -8 l 3 -4 q 0 1 0 -1 q -1 4 0 3 q 8 55 3 21 q 14 97 13 89 q 211 974 93 599 q 215 976 213 975 q 218 979 217 978 l 225 979 q 303 983 231 982 q 389 986 375 985 q 414 914 403 969 l 426 853 q 614 4 482 611 l 614 0 q 518 -14 607 -14 q 414 3 429 -14 q 385 112 401 35 q 350 225 368 189 l 303 228 q 289 225 297 225 l 272 226 q 248 115 260 197 q 213 -3 236 33 l 210 -4 q 207 -6 208 -6 l 193 -8 m 424 13 q 460 8 436 11 q 500 2 483 4 q 543 0 517 0 q 599 6 569 0 q 507 419 569 138 q 427 782 444 701 q 398 906 410 863 q 383 972 386 949 q 224 965 318 965 q 28 93 99 568 q 14 8 17 19 q 147 4 106 4 q 201 7 188 4 q 236 122 222 40 q 268 240 253 233 l 297 240 q 322 243 301 243 q 361 235 342 243 q 396 119 379 196 q 424 13 413 42 m 479 1046 l 342 1047 l 338 1047 q 322 1100 322 1056 l 329 1193 l 333 1201 q 424 1214 364 1214 q 494 1193 483 1214 q 490 1122 492 1178 q 479 1046 489 1065 m 238 1046 l 100 1047 l 96 1047 q 81 1100 81 1056 l 88 1193 l 92 1201 q 182 1214 122 1214 q 253 1193 242 1214 q 249 1122 250 1178 q 238 1046 247 1065 m 361 390 l 278 389 q 251 399 261 389 q 306 694 278 694 l 311 694 q 351 565 339 660 q 360 474 356 532 q 368 397 365 415 l 361 390 m 100 1061 l 231 1060 q 238 1192 231 1149 q 184 1200 215 1200 q 101 1190 153 1200 l 94 1097 q 100 1061 94 1074 m 342 1061 l 472 1060 q 479 1192 472 1149 q 426 1200 457 1200 q 343 1190 394 1200 l 336 1097 q 342 1061 336 1074 m 265 403 q 292 401 274 401 q 353 404 311 401 q 330 583 336 544 q 322 635 324 621 q 308 678 317 669 q 275 509 283 601 q 265 403 267 417 z "},"":{"ha":603,"x_min":-1,"x_max":614,"o":"m 193 -8 l 3 -4 q 0 1 0 -1 q -1 4 0 3 q 8 55 3 21 q 14 97 13 89 q 211 974 93 599 q 215 976 213 975 q 218 979 217 978 l 225 979 q 303 983 231 982 q 389 986 375 985 q 414 914 403 969 l 426 853 q 614 4 482 611 l 614 0 q 518 -14 607 -14 q 414 3 429 -14 q 385 112 401 35 q 350 225 368 189 l 303 228 q 289 225 297 225 l 272 226 q 248 115 260 197 q 213 -3 236 33 l 210 -4 q 207 -6 208 -6 l 193 -8 m 424 13 q 460 8 436 11 q 500 2 483 4 q 543 0 517 0 q 599 6 569 0 q 507 419 569 138 q 427 782 444 701 q 398 906 410 863 q 383 972 386 949 q 224 965 318 965 q 28 93 99 568 q 14 8 17 19 q 147 4 106 4 q 201 7 188 4 q 236 122 222 40 q 268 240 253 233 l 297 240 q 322 243 301 243 q 361 235 342 243 q 396 119 379 196 q 424 13 413 42 m 411 1075 q 297 1035 385 1035 q 188 1064 210 1035 q 165 1147 165 1093 q 168 1219 165 1201 q 183 1261 171 1238 q 306 1306 206 1306 q 405 1278 378 1306 q 432 1194 432 1251 q 413 1076 432 1138 l 411 1075 m 399 1081 q 418 1194 418 1136 q 387 1273 418 1253 q 293 1293 356 1293 q 204 1266 231 1293 q 178 1165 178 1239 q 201 1069 178 1092 q 301 1047 225 1047 q 399 1081 376 1047 m 361 390 l 278 389 q 251 399 261 389 q 306 694 278 694 l 311 694 q 351 565 339 660 q 360 474 356 532 q 368 397 365 415 l 361 390 m 256 1236 q 303 1246 278 1246 q 349 1231 328 1246 q 371 1187 371 1215 q 369 1143 371 1158 q 352 1113 367 1128 q 297 1097 338 1097 q 242 1114 257 1097 q 228 1172 228 1131 q 254 1235 228 1214 l 256 1236 m 265 403 q 292 401 274 401 q 353 404 311 401 q 330 583 336 544 q 322 635 324 621 q 308 678 317 669 q 275 509 283 601 q 265 403 267 417 m 239 1165 q 293 1111 239 1111 q 346 1126 335 1111 q 357 1175 357 1142 q 299 1232 357 1232 q 263 1224 278 1232 q 239 1165 239 1200 z "},"":{"ha":994,"x_min":-4,"x_max":978,"o":"m 747 201 l 897 203 q 976 190 969 203 l 976 186 l 978 150 q 978 119 978 135 q 958 -1 978 18 l 599 -6 q 389 0 482 -6 q 362 67 379 6 q 343 154 344 128 q 314 153 333 153 q 279 157 294 153 l 256 157 q 240 104 250 143 q 210 -1 215 4 l 207 -1 l 203 -4 q 6 -7 138 -7 q -4 0 4 -6 q 40 258 18 151 q 72 410 63 364 q 106 558 82 457 q 136 685 131 658 q 206 964 156 764 l 213 969 q 965 981 411 981 l 972 974 l 972 771 q 858 751 961 751 l 701 753 q 601 747 646 753 l 594 647 q 603 596 594 615 q 664 592 625 592 l 710 592 q 768 589 744 592 q 779 518 779 565 l 776 389 q 714 374 769 374 l 649 376 q 628 375 642 375 q 608 372 614 375 q 600 281 600 328 q 614 206 600 235 q 747 201 658 201 m 667 767 l 829 764 q 958 775 901 764 l 958 967 q 218 956 415 967 q 192 853 215 946 q 165 744 169 761 q 140 645 160 726 q 113 535 119 564 q 90 435 107 506 q 66 324 74 364 q 47 224 58 283 q 10 8 32 153 q 53 14 31 14 q 199 8 76 14 q 246 167 224 125 q 263 172 251 172 q 286 169 275 172 l 310 169 q 357 161 347 169 q 374 83 357 133 q 394 14 392 33 q 551 8 490 8 q 954 13 613 8 q 964 118 964 69 q 963 183 964 167 q 610 192 844 192 q 588 269 588 201 q 591 326 588 275 q 601 383 594 376 q 674 392 613 392 l 722 390 l 763 394 l 765 508 q 761 576 765 542 q 714 579 746 579 l 656 578 q 599 583 625 578 q 581 650 581 592 l 588 751 q 667 767 603 767 m 357 393 q 304 383 344 383 q 251 396 264 383 q 296 583 251 481 l 296 585 q 297 588 296 586 l 310 588 q 360 401 346 475 l 357 393 m 279 404 l 339 399 q 344 401 342 399 q 301 564 336 453 q 265 403 271 485 q 279 404 269 404 z "},"":{"ha":661,"x_min":39,"x_max":639,"o":"m 254 611 l 250 426 q 347 208 250 208 q 428 328 426 208 q 432 382 429 367 q 523 393 456 393 q 621 382 590 393 q 639 283 639 364 q 568 72 639 164 q 381 -21 497 -19 q 342 -175 353 -144 l 342 -176 q 235 -187 331 -187 q 203 -175 208 -187 q 236 -18 203 -142 q 99 47 139 -18 q 65 113 78 81 q 47 194 51 144 q 39 358 39 275 l 39 567 q 46 729 40 621 q 99 901 46 831 q 257 972 151 972 l 340 969 q 562 876 485 965 q 639 657 639 788 q 622 561 639 561 l 624 561 q 621 560 622 560 l 619 560 q 606 556 619 558 q 576 551 593 554 q 547 549 558 549 q 424 567 458 549 q 412 640 418 583 q 388 724 406 696 q 365 736 381 731 q 347 743 349 742 q 268 703 283 743 q 254 611 254 667 m 543 563 l 614 572 q 625 677 625 617 q 592 807 625 738 q 497 917 558 876 q 293 957 435 957 q 174 946 207 957 q 89 860 118 928 q 60 728 60 793 q 51 496 51 572 l 53 357 q 63 177 53 219 q 85 100 72 135 q 114 44 97 65 q 221 -4 157 -4 q 246 -3 238 -4 l 253 -10 q 242 -69 253 -35 q 217 -171 231 -107 q 239 -174 231 -174 l 328 -168 q 350 -79 331 -146 q 369 -11 369 -12 q 381 -8 372 -11 q 376 -7 378 -7 q 557 81 488 -7 q 626 283 626 169 q 614 369 626 328 q 581 372 603 372 q 550 376 558 372 l 503 376 q 474 372 490 372 l 444 374 q 442 332 442 360 q 415 230 442 265 q 351 194 389 194 q 289 215 313 194 q 254 275 265 236 q 235 446 235 342 l 240 613 q 263 725 240 696 q 331 758 289 758 q 392 738 372 758 q 417 693 411 717 q 426 630 422 669 q 435 575 431 590 l 543 563 z "},"":{"ha":668,"x_min":49,"x_max":651,"o":"m 283 203 l 561 193 q 643 196 588 193 l 650 189 l 650 186 q 651 122 651 164 q 632 -3 651 17 l 278 -8 q 63 0 169 -8 q 59 4 61 1 q 56 8 57 7 l 49 625 q 57 958 49 825 l 64 964 q 249 970 129 968 q 407 974 369 972 l 550 981 q 640 972 597 981 q 650 914 650 951 l 646 767 q 515 746 636 746 l 397 747 l 276 743 l 271 643 q 276 592 271 614 q 360 586 311 586 l 443 588 q 454 522 454 564 l 451 418 q 453 386 451 396 q 383 371 444 371 l 325 372 q 303 369 317 369 q 285 367 290 368 q 276 283 276 325 q 283 203 276 242 m 281 6 l 626 11 q 638 110 638 60 q 636 181 638 160 q 569 179 614 179 l 279 189 q 264 276 264 189 q 278 376 264 363 q 349 389 292 389 l 407 386 q 439 390 428 386 l 440 508 q 436 574 440 540 l 357 575 l 307 572 q 254 621 254 572 q 267 756 254 743 l 413 761 l 494 760 q 632 771 571 760 l 636 904 q 633 960 636 942 q 551 965 600 965 l 407 960 q 252 956 369 958 q 71 950 135 954 q 63 621 63 818 l 69 14 q 281 6 175 6 m 486 1042 q 376 1029 463 1029 q 290 1039 290 1029 q 215 1110 279 1058 q 150 1171 150 1161 l 150 1182 q 246 1279 214 1246 l 254 1279 q 391 1150 310 1238 q 486 1053 472 1063 l 486 1042 m 300 1047 q 376 1042 319 1042 q 467 1050 433 1042 q 418 1101 449 1065 q 250 1264 307 1221 l 163 1176 q 206 1140 168 1171 q 300 1047 288 1071 m 282 365 l 279 365 l 282 365 z "},"":{"ha":668,"x_min":49,"x_max":651,"o":"m 283 203 l 561 193 q 643 196 588 193 l 650 189 l 650 186 q 651 122 651 164 q 632 -3 651 17 l 278 -8 q 63 0 169 -8 q 59 4 61 1 q 56 8 57 7 l 49 625 q 57 958 49 825 l 64 964 q 249 970 129 968 q 407 974 369 972 l 550 981 q 640 972 597 981 q 650 914 650 951 l 646 767 q 515 746 636 746 l 397 747 l 276 743 l 271 643 q 276 592 271 614 q 360 586 311 586 l 443 588 q 454 522 454 564 l 451 418 q 453 386 451 396 q 383 371 444 371 l 325 372 q 303 369 317 369 q 285 367 290 368 q 276 283 276 325 q 283 203 276 242 m 281 6 l 626 11 q 638 110 638 60 q 636 181 638 160 q 569 179 614 179 l 279 189 q 264 276 264 189 q 278 376 264 363 q 349 389 292 389 l 407 386 q 439 390 428 386 l 440 508 q 436 574 440 540 l 357 575 l 307 572 q 254 621 254 572 q 267 756 254 743 l 413 761 l 494 760 q 632 771 571 760 l 636 904 q 633 960 636 942 q 551 965 600 965 l 407 960 q 252 956 369 958 q 71 950 135 954 q 63 621 63 818 l 69 14 q 281 6 175 6 m 415 1039 q 318 1029 406 1029 q 218 1042 231 1029 l 218 1053 q 331 1165 257 1086 q 450 1279 406 1243 q 513 1226 476 1265 q 556 1181 549 1188 l 556 1172 q 510 1133 544 1161 q 415 1039 428 1065 m 236 1050 q 328 1042 282 1042 q 403 1047 375 1042 q 472 1119 417 1074 q 540 1176 528 1164 q 454 1264 482 1235 q 336 1151 410 1228 q 236 1050 263 1075 m 282 365 l 279 365 l 282 365 z "},"":{"ha":668,"x_min":49,"x_max":651,"o":"m 283 203 l 561 193 q 643 196 588 193 l 650 189 l 650 186 q 651 122 651 164 q 632 -3 651 17 l 278 -8 q 63 0 169 -8 q 59 4 61 1 q 56 8 57 7 l 49 625 q 57 958 49 825 l 64 964 q 249 970 129 968 q 407 974 369 972 l 550 981 q 640 972 597 981 q 650 914 650 951 l 646 767 q 515 746 636 746 l 397 747 l 276 743 l 271 643 q 276 592 271 614 q 360 586 311 586 l 443 588 q 454 522 454 564 l 451 418 q 453 386 451 396 q 383 371 444 371 l 325 372 q 303 369 317 369 q 285 367 290 368 q 276 283 276 325 q 283 203 276 242 m 281 6 l 626 11 q 638 110 638 60 q 636 181 638 160 q 569 179 614 179 l 279 189 q 264 276 264 189 q 278 376 264 363 q 349 389 292 389 l 407 386 q 439 390 428 386 l 440 508 q 436 574 440 540 l 357 575 l 307 572 q 254 621 254 572 q 267 756 254 743 l 413 761 l 494 760 q 632 771 571 760 l 636 904 q 633 960 636 942 q 551 965 600 965 l 407 960 q 252 956 369 958 q 71 950 135 954 q 63 621 63 818 l 69 14 q 281 6 175 6 m 356 1279 l 582 1054 l 576 1043 q 528 1037 561 1043 q 465 1031 496 1031 q 357 1092 388 1031 l 346 1103 q 310 1069 328 1089 q 277 1041 293 1049 q 216 1033 261 1033 q 125 1042 171 1033 l 121 1054 q 254 1197 171 1119 q 346 1281 338 1274 q 356 1279 349 1279 m 417 1050 q 491 1047 472 1047 q 529 1051 510 1047 q 560 1056 549 1054 q 493 1122 528 1086 q 417 1200 458 1157 l 350 1265 l 296 1215 q 138 1054 183 1111 q 224 1049 182 1049 q 283 1059 267 1049 q 314 1088 300 1069 q 342 1117 328 1107 l 350 1117 q 381 1085 363 1108 q 404 1058 400 1063 l 417 1050 m 282 365 l 279 365 l 282 365 z "},"":{"ha":668,"x_min":49,"x_max":651,"o":"m 283 203 l 561 193 q 643 196 588 193 l 650 189 l 650 186 q 651 122 651 164 q 632 -3 651 17 l 278 -8 q 63 0 169 -8 q 59 4 61 1 q 56 8 57 7 l 49 625 q 57 958 49 825 l 64 964 q 249 970 129 968 q 407 974 369 972 l 550 981 q 640 972 597 981 q 650 914 650 951 l 646 767 q 515 746 636 746 l 397 747 l 276 743 l 271 643 q 276 592 271 614 q 360 586 311 586 l 443 588 q 454 522 454 564 l 451 418 q 453 386 451 396 q 383 371 444 371 l 325 372 q 303 369 317 369 q 285 367 290 368 q 276 283 276 325 q 283 203 276 242 m 281 6 l 626 11 q 638 110 638 60 q 636 181 638 160 q 569 179 614 179 l 279 189 q 264 276 264 189 q 278 376 264 363 q 349 389 292 389 l 407 386 q 439 390 428 386 l 440 508 q 436 574 440 540 l 357 575 l 307 572 q 254 621 254 572 q 267 756 254 743 l 413 761 l 494 760 q 632 771 571 760 l 636 904 q 633 960 636 942 q 551 965 600 965 l 407 960 q 252 956 369 958 q 71 950 135 954 q 63 621 63 818 l 69 14 q 281 6 175 6 m 533 1046 l 396 1047 l 392 1047 q 376 1100 376 1056 l 383 1193 l 388 1201 q 478 1214 418 1214 q 549 1193 539 1214 q 544 1122 546 1178 q 533 1046 543 1065 m 292 1046 l 154 1047 l 150 1047 q 135 1100 135 1056 l 142 1193 l 146 1201 q 237 1214 176 1214 q 307 1193 297 1214 q 303 1122 304 1178 q 292 1046 301 1065 m 154 1061 l 285 1060 q 292 1192 285 1149 q 238 1200 269 1200 q 156 1190 207 1200 l 149 1097 q 154 1061 149 1074 m 396 1061 l 526 1060 q 533 1192 526 1149 q 479 1200 510 1200 q 397 1190 449 1200 l 390 1097 q 396 1061 390 1074 m 282 365 l 279 365 l 282 365 z "},"":{"ha":361,"x_min":-26,"x_max":319,"o":"m 318 985 l 306 315 q 314 7 306 131 q 233 -15 292 -15 l 101 -6 q 47 -11 82 -6 q 53 232 53 94 l 44 724 q 49 886 44 793 q 65 990 54 979 l 222 982 l 308 983 l 318 985 m 228 0 l 300 10 q 292 314 292 132 l 301 969 l 221 968 l 72 976 q 60 732 60 871 l 68 288 q 61 3 68 163 q 96 6 81 6 l 228 0 m -26 1182 l 74 1283 q 214 1153 131 1242 q 319 1044 286 1074 q 203 1029 292 1029 q 114 1039 114 1029 q 38 1110 103 1058 q -26 1171 -26 1161 l -26 1182 m 124 1047 q 200 1042 143 1042 q 290 1050 257 1042 q 242 1101 272 1065 q 74 1264 131 1221 l -14 1176 q 28 1140 -8 1171 q 124 1047 111 1071 z "},"":{"ha":360,"x_min":44,"x_max":418,"o":"m 319 985 l 306 315 q 314 7 306 131 q 233 -15 292 -15 l 82 -10 q 46 -12 56 -10 q 53 232 53 119 l 44 724 q 49 886 44 793 q 65 990 54 979 l 222 982 l 308 983 l 319 985 m 228 0 l 300 10 q 292 314 292 132 l 301 969 l 221 968 l 72 976 q 60 732 60 871 l 68 288 q 61 3 68 163 q 96 6 81 6 l 228 0 m 275 1039 q 172 1029 265 1029 q 65 1043 79 1029 l 78 1053 q 191 1165 117 1086 q 310 1279 265 1243 q 374 1225 338 1265 q 418 1176 410 1185 l 275 1039 m 96 1050 q 188 1042 142 1042 q 263 1047 235 1042 q 332 1119 276 1074 q 400 1176 388 1164 q 314 1264 342 1235 q 196 1151 269 1228 q 96 1050 122 1075 z "},"":{"ha":361,"x_min":-46,"x_max":444,"o":"m 315 976 l 306 315 q 314 7 306 131 q 233 -15 292 -15 l 90 -6 l 47 -7 q 53 232 53 99 l 44 724 q 49 886 44 793 q 65 990 54 979 l 222 982 l 308 983 l 315 976 m 228 0 l 300 10 q 292 314 292 132 l 301 969 l 221 968 l 72 976 q 60 732 60 871 l 68 288 q 61 3 68 163 q 96 6 81 6 l 228 0 m 444 1043 q 388 1037 429 1043 q 308 1031 346 1031 q 245 1047 271 1031 q 196 1103 219 1064 q 160 1069 178 1089 q 127 1041 143 1049 q 66 1033 111 1033 q -25 1042 21 1033 l -46 1044 q 97 1193 3 1110 q 203 1288 192 1276 q 329 1156 243 1240 q 432 1054 415 1072 l 444 1043 m -12 1054 q 74 1049 32 1049 q 134 1060 117 1049 q 167 1093 151 1072 q 196 1124 182 1114 q 321 1043 257 1043 q 350 1047 336 1043 q 379 1051 360 1047 q 410 1056 399 1054 l 200 1265 l 146 1215 q -12 1054 33 1111 z "},"":{"ha":361,"x_min":-12,"x_max":401,"o":"m 222 982 l 308 983 l 314 983 l 306 315 q 314 7 306 131 q 233 -15 292 -15 l 90 -6 q 47 -4 57 -6 q 53 232 53 101 l 44 724 q 49 886 44 793 q 65 990 54 979 l 222 982 m 228 0 l 300 10 q 292 314 292 132 l 301 969 l 221 968 l 72 976 q 60 732 60 871 l 68 288 q 61 3 68 163 q 96 6 81 6 l 228 0 m 144 1046 l 7 1047 l 3 1047 q -12 1100 -12 1056 l -6 1193 l -6 1201 q 88 1214 25 1214 q 160 1193 150 1214 q 156 1122 157 1178 q 144 1046 154 1065 m 386 1046 l 249 1047 l 244 1047 q 229 1100 229 1056 l 236 1193 l 236 1201 q 329 1214 267 1214 q 401 1193 392 1214 q 397 1122 399 1178 q 386 1046 396 1065 m 249 1061 l 379 1060 q 386 1192 379 1149 q 333 1200 364 1200 q 250 1190 301 1200 l 243 1097 q 249 1061 243 1074 m 7 1061 l 138 1060 q 144 1192 138 1149 q 91 1200 122 1200 q 8 1190 60 1200 l 1 1097 q 7 1061 1 1074 z "},"":{"ha":669,"x_min":-15,"x_max":646,"o":"m -7 576 q 65 575 -7 576 l 67 790 q 64 953 67 844 q 67 957 65 954 q 71 961 69 960 q 138 972 82 963 q 317 988 236 988 q 469 942 399 988 q 578 819 540 896 q 646 494 646 675 q 614 251 646 375 q 499 29 571 83 q 351 -7 451 -7 l 78 -1 q 63 108 63 6 l 65 369 l 36 368 q -8 379 3 368 l -15 556 q -7 576 -15 571 m 72 561 l 0 563 l -1 538 l 6 385 l 31 385 q 79 376 69 385 q 85 13 79 82 l 351 7 q 490 40 447 7 q 597 243 560 94 q 633 449 633 392 q 628 560 633 507 q 611 676 624 614 q 574 790 599 739 q 515 883 550 840 q 303 974 443 974 q 78 949 240 974 q 81 785 81 838 l 79 568 l 72 561 m 226 565 l 228 663 q 225 726 228 685 l 229 735 q 301 753 268 753 q 429 670 389 753 q 469 466 469 588 q 431 281 469 344 q 374 234 406 249 q 290 219 342 219 q 228 239 238 219 l 225 385 l 232 393 l 313 392 l 307 528 l 308 556 l 275 554 q 226 565 238 554 m 243 239 l 294 236 q 419 288 382 236 q 456 458 456 350 q 299 735 456 735 q 239 724 268 735 q 242 663 242 682 l 240 571 l 275 571 q 322 563 313 571 l 322 515 q 328 447 328 499 q 319 378 328 394 l 239 379 l 238 303 q 243 239 238 244 z "},"":{"ha":717,"x_min":44,"x_max":669,"o":"m 664 742 l 669 83 q 667 4 669 54 l 667 1 q 607 -19 656 -19 l 506 -11 l 454 -14 q 449 -10 451 -12 q 292 375 382 121 q 283 165 283 258 q 288 0 283 71 q 247 -14 288 -14 l 58 -7 q 55 -3 57 -6 q 51 1 53 0 l 44 564 q 60 967 44 783 q 119 983 76 983 q 217 974 161 983 q 276 956 272 965 l 276 953 q 306 892 283 928 q 378 773 328 857 q 436 676 428 689 q 438 726 438 693 l 428 847 l 435 969 q 514 989 454 989 l 563 988 q 665 975 653 988 l 664 742 m 489 6 l 606 -6 q 650 3 633 -6 l 653 6 q 654 83 654 31 l 651 278 l 651 968 l 521 975 q 449 965 479 975 q 440 875 440 922 l 453 713 q 446 656 453 678 l 433 656 q 308 864 400 703 q 292 886 306 867 q 263 950 265 924 q 222 958 250 951 q 134 969 168 969 q 74 961 100 969 q 58 568 58 801 l 65 7 l 97 10 l 229 -3 q 272 3 254 -3 q 269 153 269 44 q 281 410 269 261 q 294 411 290 410 q 457 1 388 143 q 489 6 472 6 m 249 1081 l 256 1038 l 244 1038 q 155 1040 199 1040 q 71 1039 111 1040 q 138 1197 92 1122 q 197 1261 161 1238 q 270 1285 232 1285 q 335 1270 308 1285 q 375 1236 363 1256 q 449 1179 411 1186 q 518 1263 500 1189 q 581 1272 538 1272 q 647 1271 624 1272 l 650 1233 q 606 1093 650 1156 q 486 1031 561 1031 q 406 1050 442 1031 q 361 1106 369 1069 q 317 1132 346 1132 q 267 1121 289 1132 l 260 1114 q 249 1081 249 1092 m 635 1258 q 531 1254 597 1254 q 495 1190 524 1215 q 449 1165 467 1165 q 417 1178 432 1165 q 385 1213 401 1192 q 357 1243 368 1235 q 281 1269 324 1269 q 211 1253 239 1269 q 167 1220 183 1238 q 133 1167 151 1203 q 92 1056 113 1121 l 235 1053 q 232 1076 232 1067 q 260 1130 232 1110 q 315 1150 288 1150 q 362 1124 342 1150 q 410 1071 382 1097 q 483 1044 439 1044 q 594 1101 551 1044 q 638 1229 638 1158 q 635 1258 638 1239 m 333 846 l 331 849 l 333 846 z "},"":{"ha":674,"x_min":33,"x_max":640,"o":"m 638 561 l 639 408 q 575 83 639 176 q 462 6 540 35 q 315 -22 383 -22 q 206 -12 247 -22 q 139 13 165 -1 q 94 56 113 28 q 65 105 75 83 q 50 165 56 126 q 44 225 44 203 q 42 289 43 247 q 38 397 42 331 q 33 634 33 464 q 89 886 33 804 q 315 988 156 988 q 564 913 475 988 q 615 832 589 890 q 640 683 640 774 l 638 561 m 624 547 l 628 682 q 603 826 628 768 q 338 974 538 974 q 196 949 261 974 q 100 879 131 925 q 47 635 47 801 q 51 399 47 468 q 56 288 56 329 q 57 222 56 247 q 83 103 61 150 q 299 -8 131 -8 q 456 19 381 -8 q 564 92 531 46 q 625 428 625 176 l 624 547 m 465 508 l 461 289 q 419 206 461 236 q 335 175 378 175 q 266 190 292 175 q 226 228 240 204 q 203 283 211 251 q 189 382 193 325 q 182 536 182 481 q 194 647 182 592 q 245 748 207 703 q 343 793 283 793 q 431 744 410 793 q 455 653 449 703 q 464 588 461 603 l 464 585 l 465 508 m 451 508 l 450 583 q 444 647 449 589 q 424 732 440 704 q 339 781 392 781 q 231 706 265 781 q 196 533 196 632 q 202 441 196 513 q 209 349 208 369 q 211 317 210 329 q 215 289 213 306 q 233 231 221 251 q 327 189 275 189 q 413 215 379 189 q 447 290 447 242 l 451 508 m 424 1042 q 314 1029 400 1029 q 228 1039 228 1029 q 152 1110 217 1058 q 88 1171 88 1161 l 88 1182 q 183 1279 151 1246 l 192 1279 q 328 1150 247 1238 q 424 1053 410 1063 l 424 1042 m 238 1047 q 314 1042 257 1042 q 404 1050 371 1042 q 356 1101 386 1065 q 188 1264 244 1221 l 100 1176 q 142 1140 106 1171 q 238 1047 225 1071 z "},"":{"ha":674,"x_min":33,"x_max":640,"o":"m 638 561 l 639 408 q 575 83 639 176 q 462 6 540 35 q 315 -22 383 -22 q 206 -12 247 -22 q 139 13 165 -1 q 94 56 113 28 q 65 105 75 83 q 50 165 56 126 q 44 225 44 203 q 42 289 43 247 q 38 397 42 331 q 33 634 33 464 q 89 886 33 804 q 315 988 156 988 q 564 913 475 988 q 615 832 589 890 q 640 683 640 774 l 638 561 m 624 547 l 628 682 q 603 826 628 768 q 338 974 538 974 q 196 949 261 974 q 100 879 131 925 q 47 635 47 801 q 51 399 47 468 q 56 288 56 329 q 57 222 56 247 q 83 103 61 150 q 299 -8 131 -8 q 456 19 381 -8 q 564 92 531 46 q 625 428 625 176 l 624 547 m 465 508 l 461 289 q 419 206 461 236 q 335 175 378 175 q 266 190 292 175 q 226 228 240 204 q 203 283 211 251 q 189 382 193 325 q 182 536 182 481 q 194 647 182 592 q 245 748 207 703 q 343 793 283 793 q 431 744 410 793 q 455 653 449 703 q 464 588 461 603 l 464 585 l 465 508 m 451 508 l 450 583 q 444 647 449 589 q 424 732 440 704 q 339 781 392 781 q 231 706 265 781 q 196 533 196 632 q 202 441 196 513 q 209 349 208 369 q 211 317 210 329 q 215 289 213 306 q 233 231 221 251 q 327 189 275 189 q 413 215 379 189 q 447 290 447 242 l 451 508 m 424 1039 q 326 1029 414 1029 q 226 1042 239 1029 l 226 1053 q 340 1165 265 1086 q 458 1279 414 1243 q 521 1226 485 1265 q 564 1181 557 1188 l 564 1172 q 518 1133 553 1161 q 424 1039 436 1065 m 244 1050 q 337 1042 290 1042 q 411 1047 383 1042 q 481 1119 425 1074 q 549 1176 536 1164 q 463 1264 490 1235 q 344 1151 418 1228 q 244 1050 271 1075 z "},"":{"ha":672,"x_min":32,"x_max":639,"o":"m 636 561 l 638 408 q 574 83 638 176 q 460 6 539 35 q 314 -22 382 -22 q 205 -12 246 -22 q 138 13 164 -1 q 92 56 111 28 q 64 105 74 83 q 49 165 54 126 q 42 225 43 203 q 41 289 42 247 q 36 397 40 331 q 32 634 32 464 q 88 886 32 804 q 314 988 154 988 q 563 913 474 988 q 613 832 588 890 q 639 683 639 774 l 636 561 m 622 547 l 626 682 q 601 826 626 768 q 336 974 536 974 q 194 949 260 974 q 99 879 129 925 q 46 635 46 801 q 50 399 46 468 q 54 288 54 329 q 56 222 54 247 q 82 103 60 150 q 297 -8 129 -8 q 454 19 379 -8 q 563 92 529 46 q 624 428 624 176 l 622 547 m 464 508 l 460 289 q 418 206 460 236 q 333 175 376 175 q 265 190 290 175 q 224 228 239 204 q 201 283 210 251 q 188 382 192 325 q 181 536 181 481 q 193 647 181 592 q 244 748 206 703 q 342 793 282 793 q 429 744 408 793 q 453 653 447 703 q 463 588 460 603 l 463 585 l 464 508 m 450 508 l 449 583 q 443 647 447 589 q 422 732 439 704 q 338 781 390 781 q 229 706 264 781 q 194 533 194 632 q 201 441 194 513 q 208 349 207 369 q 210 317 208 329 q 214 289 211 306 q 232 231 219 251 q 326 189 274 189 q 412 215 378 189 q 446 290 446 242 l 450 508 m 349 1279 l 575 1054 l 569 1043 q 522 1037 554 1043 q 458 1031 489 1031 q 350 1092 381 1031 l 339 1103 q 303 1069 321 1089 q 270 1041 286 1049 q 209 1033 254 1033 q 118 1042 164 1033 l 114 1054 q 247 1197 164 1119 q 339 1281 331 1274 q 349 1279 342 1279 m 410 1050 q 484 1047 465 1047 q 522 1051 503 1047 q 553 1056 542 1054 l 343 1265 l 289 1215 q 131 1054 176 1111 q 217 1049 175 1049 q 276 1059 260 1049 q 307 1088 293 1069 q 335 1117 321 1107 l 343 1117 q 374 1085 356 1108 q 397 1058 393 1063 l 410 1050 z "},"":{"ha":672,"x_min":32,"x_max":639,"o":"m 636 561 l 638 408 q 574 83 638 176 q 460 6 539 35 q 314 -22 382 -22 q 205 -12 246 -22 q 138 13 164 -1 q 92 56 111 28 q 64 105 74 83 q 49 165 54 126 q 42 225 43 203 q 41 289 42 247 q 36 397 40 331 q 32 634 32 464 q 88 886 32 804 q 314 988 154 988 q 563 913 474 988 q 613 832 588 890 q 639 683 639 774 l 636 561 m 622 547 l 626 682 q 601 826 626 768 q 336 974 536 974 q 194 949 260 974 q 99 879 129 925 q 46 635 46 801 q 50 399 46 468 q 54 288 54 329 q 56 222 54 247 q 82 103 60 150 q 297 -8 129 -8 q 454 19 379 -8 q 563 92 529 46 q 624 428 624 176 l 622 547 m 464 508 l 460 289 q 418 206 460 236 q 333 175 376 175 q 265 190 290 175 q 224 228 239 204 q 201 283 210 251 q 188 382 192 325 q 181 536 181 481 q 193 647 181 592 q 244 748 206 703 q 342 793 282 793 q 429 744 408 793 q 453 653 447 703 q 463 588 460 603 l 463 585 l 464 508 m 450 508 l 449 583 q 443 647 447 589 q 422 732 439 704 q 338 781 390 781 q 229 706 264 781 q 194 533 194 632 q 201 441 194 513 q 208 349 207 369 q 210 317 208 329 q 214 289 211 306 q 232 231 219 251 q 326 189 274 189 q 412 215 378 189 q 446 290 446 242 l 450 508 m 221 1068 l 224 1032 l 217 1025 q 183 1026 207 1026 q 149 1031 160 1026 l 54 1029 l 47 1038 q 121 1201 71 1129 q 244 1272 171 1272 q 308 1258 281 1272 q 347 1225 335 1243 q 421 1167 383 1174 q 490 1250 472 1176 q 551 1260 510 1260 l 590 1258 l 611 1260 l 618 1256 l 622 1221 q 578 1081 622 1143 q 458 1018 533 1018 q 378 1038 414 1018 q 333 1093 342 1057 q 290 1119 318 1119 q 239 1108 261 1119 l 232 1101 q 221 1068 221 1079 m 64 1043 l 126 1047 q 156 1043 142 1047 q 207 1040 189 1043 q 204 1064 204 1054 q 232 1117 204 1097 q 287 1138 260 1138 q 334 1111 314 1138 q 383 1058 354 1085 q 456 1032 411 1032 q 567 1089 524 1032 q 610 1217 610 1146 q 607 1246 610 1226 q 503 1242 569 1242 q 467 1178 496 1203 q 422 1153 439 1153 q 389 1166 404 1153 q 357 1201 374 1179 q 329 1231 340 1222 q 253 1257 296 1257 q 183 1241 211 1257 q 140 1208 156 1225 q 106 1153 124 1190 q 64 1043 85 1108 z "},"":{"ha":672,"x_min":32,"x_max":639,"o":"m 636 561 l 638 408 q 574 83 638 176 q 460 6 539 35 q 314 -22 382 -22 q 205 -12 246 -22 q 138 13 164 -1 q 92 56 111 28 q 64 105 74 83 q 49 165 54 126 q 42 225 43 203 q 41 289 42 247 q 36 397 40 331 q 32 634 32 464 q 88 886 32 804 q 314 988 154 988 q 563 913 474 988 q 613 832 588 890 q 639 683 639 774 l 636 561 m 622 547 l 626 682 q 601 826 626 768 q 336 974 536 974 q 194 949 260 974 q 99 879 129 925 q 46 635 46 801 q 50 399 46 468 q 54 288 54 329 q 56 222 54 247 q 82 103 60 150 q 297 -8 129 -8 q 454 19 379 -8 q 563 92 529 46 q 624 428 624 176 l 622 547 m 464 508 l 460 289 q 418 206 460 236 q 333 175 376 175 q 265 190 290 175 q 224 228 239 204 q 201 283 210 251 q 188 382 192 325 q 181 536 181 481 q 193 647 181 592 q 244 748 206 703 q 342 793 282 793 q 429 744 408 793 q 453 653 447 703 q 463 588 460 603 l 463 585 l 464 508 m 450 508 l 449 583 q 443 647 447 589 q 422 732 439 704 q 338 781 390 781 q 229 706 264 781 q 194 533 194 632 q 201 441 194 513 q 208 349 207 369 q 210 317 208 329 q 214 289 211 306 q 232 231 219 251 q 326 189 274 189 q 412 215 378 189 q 446 290 446 242 l 450 508 m 289 1046 l 151 1047 l 147 1047 q 132 1100 132 1056 l 139 1193 l 143 1201 q 234 1214 174 1214 q 304 1193 294 1214 q 300 1122 301 1178 q 289 1046 299 1065 m 531 1046 l 393 1047 l 389 1047 q 374 1100 374 1056 l 381 1193 l 385 1201 q 476 1214 415 1214 q 546 1193 536 1214 q 542 1122 543 1178 q 531 1046 540 1065 m 393 1061 l 524 1060 q 531 1192 524 1149 q 476 1200 507 1200 q 394 1190 446 1200 l 388 1097 q 393 1061 388 1074 m 151 1061 l 282 1060 q 289 1192 282 1149 q 235 1200 265 1200 q 153 1190 204 1200 l 146 1097 q 151 1061 146 1074 z "},"":{"ha":1021,"x_min":50,"x_max":971,"o":"m 963 997 l 961 328 q 965 97 961 211 l 971 38 q 967 10 971 22 l 967 7 q 785 -19 967 -19 q 64 -4 604 -19 q 60 0 63 -3 q 57 4 58 3 q 64 271 64 153 l 50 1015 q 507 1014 200 1014 l 964 1014 l 963 997 m 806 -3 l 951 8 l 953 10 q 956 19 953 14 q 947 329 947 97 l 949 999 q 64 1001 358 999 l 78 272 q 71 10 78 156 q 706 -4 599 -4 l 806 -3 m 819 886 l 824 394 q 819 149 824 272 q 807 146 811 146 q 722 308 793 181 q 639 513 651 435 l 639 515 q 724 725 654 593 q 806 885 794 857 l 819 886 m 208 138 q 194 142 204 142 l 193 543 q 199 894 193 739 l 213 896 q 301 713 283 763 q 334 606 319 663 q 361 519 349 549 l 361 514 q 313 385 349 489 q 208 138 278 282 m 807 178 q 811 384 811 286 q 808 641 811 482 q 806 851 806 800 q 750 747 789 817 q 653 513 668 600 q 751 281 669 422 q 807 178 790 213 m 436 125 l 397 124 q 353 136 365 124 q 415 290 360 167 q 489 458 471 413 l 501 458 q 650 146 550 354 q 510 124 638 124 l 436 125 m 211 868 q 207 635 207 768 q 208 369 207 501 q 208 171 208 236 q 297 381 261 276 q 347 517 333 486 q 319 602 333 546 q 292 699 306 658 q 211 868 278 740 m 503 567 l 489 568 q 437 688 481 590 q 361 896 393 785 q 505 897 406 896 q 649 899 604 899 q 576 729 631 838 q 503 567 521 621 m 368 140 q 475 136 386 136 q 633 147 564 136 q 496 438 567 282 q 435 301 482 404 q 368 140 388 199 m 381 882 q 461 663 432 724 q 496 590 490 601 q 562 728 511 631 q 628 883 613 825 q 504 883 586 883 q 381 882 422 882 z "},"":{"ha":665,"x_min":32,"x_max":636,"o":"m 569 907 l 571 899 q 636 674 636 815 q 633 591 636 650 q 631 430 631 532 q 626 280 631 328 q 607 175 622 232 q 564 81 592 118 q 485 19 536 44 q 364 -6 435 -6 q 333 -4 357 -6 q 297 -4 310 -3 q 269 -8 285 -6 q 231 -32 228 -18 q 157 -39 207 -39 l 82 -35 q 47 -36 58 -35 q 42 -35 46 -35 q 39 -30 39 -32 q 38 -19 39 -28 q 54 42 38 -11 q 76 94 71 94 q 32 471 32 268 q 63 829 32 746 q 139 942 93 911 q 304 985 208 985 q 382 979 349 985 q 396 1011 383 1011 l 461 1008 l 535 1013 q 596 994 576 1013 q 583 950 596 979 q 569 907 569 921 m 617 403 l 622 674 q 600 819 622 754 q 576 861 596 831 q 556 908 556 892 q 569 949 556 924 q 582 990 582 975 q 532 1000 564 1000 l 436 992 q 400 997 415 992 q 397 990 397 994 q 397 980 397 985 q 394 974 396 975 q 390 970 393 972 q 386 967 388 968 q 294 971 347 971 q 193 952 240 971 q 120 907 146 933 q 81 838 94 881 q 56 676 58 774 l 47 507 l 47 399 q 76 156 47 285 l 89 99 l 89 93 q 71 38 89 79 q 51 -21 53 -3 q 92 -18 76 -18 l 174 -24 q 247 4 221 -24 q 444 18 386 4 q 539 71 501 32 q 592 172 576 110 q 617 403 617 272 m 454 549 l 463 365 q 443 244 463 274 q 386 194 424 214 q 319 174 349 174 l 311 183 q 442 551 410 475 l 454 549 m 190 385 q 182 430 182 401 q 192 517 182 458 q 203 590 201 576 q 206 639 204 603 q 210 689 207 675 q 254 763 219 735 q 325 789 290 789 l 332 782 q 292 650 332 765 q 203 385 226 465 l 190 385 m 446 324 q 449 369 449 342 q 447 419 449 396 q 440 513 444 471 q 328 189 390 386 q 424 242 392 206 q 446 324 439 258 m 222 683 q 218 662 222 683 q 214 586 214 640 q 206 504 214 532 q 201 460 206 492 q 196 413 196 428 q 254 587 213 464 q 317 775 296 710 q 263 751 294 775 q 222 683 231 726 z "},"":{"ha":701,"x_min":42,"x_max":664,"o":"m 263 383 l 261 336 q 353 201 261 201 q 418 236 401 201 q 435 376 435 271 q 442 935 435 779 q 582 951 474 951 q 658 931 636 951 l 658 929 q 664 651 664 757 q 660 465 664 546 q 655 344 657 383 q 652 290 653 306 q 647 238 651 274 q 639 182 643 203 q 601 90 625 124 q 356 -31 518 -31 q 172 14 257 -31 q 56 142 88 58 q 42 253 42 178 l 51 942 q 153 956 57 956 q 260 938 250 956 l 257 610 l 263 383 m 64 938 l 56 250 q 68 147 56 189 q 178 27 90 71 q 355 -17 267 -17 q 496 10 443 -17 q 575 69 549 38 q 617 164 601 101 q 636 260 633 226 q 647 444 643 343 q 650 651 650 546 q 644 925 650 756 q 581 938 614 938 l 456 926 q 449 609 450 814 q 444 327 449 404 q 420 218 440 250 q 343 186 400 186 q 258 256 275 186 q 246 376 246 308 q 242 497 246 443 q 239 667 239 550 q 246 932 239 783 q 147 939 204 939 l 64 938 m 464 1042 q 354 1029 440 1029 q 268 1039 268 1029 q 192 1110 257 1058 q 128 1171 128 1161 l 128 1182 q 224 1279 192 1246 l 232 1279 q 369 1150 288 1238 q 464 1053 450 1063 l 464 1042 m 278 1047 q 354 1042 297 1042 q 444 1050 411 1042 q 396 1101 426 1065 q 228 1264 285 1221 l 140 1176 q 183 1140 146 1171 q 278 1047 265 1071 z "},"":{"ha":701,"x_min":42,"x_max":664,"o":"m 263 383 l 261 336 q 353 201 261 201 q 418 236 401 201 q 435 376 435 271 q 442 935 435 779 q 582 951 474 951 q 658 931 636 951 l 658 929 q 664 651 664 757 q 660 465 664 546 q 655 344 657 383 q 652 290 653 306 q 647 238 651 274 q 639 182 643 203 q 601 90 625 124 q 356 -31 518 -31 q 172 14 257 -31 q 56 142 88 58 q 42 253 42 178 l 51 942 q 153 956 57 956 q 260 938 250 956 l 257 610 l 263 383 m 64 938 l 56 250 q 68 147 56 189 q 178 27 90 71 q 355 -17 267 -17 q 496 10 443 -17 q 575 69 549 38 q 617 164 601 101 q 636 260 633 226 q 647 444 643 343 q 650 651 650 546 q 644 925 650 756 q 581 938 614 938 l 456 926 q 449 609 450 814 q 444 327 449 404 q 420 218 440 250 q 343 186 400 186 q 258 256 275 186 q 246 376 246 308 q 242 497 246 443 q 239 667 239 550 q 246 932 239 783 q 147 939 204 939 l 64 938 m 447 1039 q 350 1029 438 1029 q 250 1042 263 1029 l 250 1053 q 363 1165 289 1086 q 482 1279 438 1243 q 544 1226 508 1265 q 588 1181 581 1188 l 588 1172 q 542 1133 576 1161 q 447 1039 460 1065 m 268 1050 q 360 1042 314 1042 q 435 1047 407 1042 q 504 1119 449 1074 q 572 1176 560 1164 q 486 1264 514 1235 q 368 1151 442 1228 q 268 1050 294 1075 z "},"":{"ha":701,"x_min":42,"x_max":664,"o":"m 263 383 l 261 336 q 353 201 261 201 q 418 236 401 201 q 435 376 435 271 q 442 935 435 779 q 582 951 474 951 q 658 931 636 951 l 658 929 q 664 651 664 757 q 660 465 664 546 q 655 344 657 383 q 652 290 653 306 q 647 238 651 274 q 639 182 643 203 q 601 90 625 124 q 356 -31 518 -31 q 172 14 257 -31 q 56 142 88 58 q 42 253 42 178 l 51 942 q 153 956 57 956 q 260 938 250 956 l 257 610 l 263 383 m 64 938 l 56 250 q 68 147 56 189 q 178 27 90 71 q 355 -17 267 -17 q 496 10 443 -17 q 575 69 549 38 q 617 164 601 101 q 636 260 633 226 q 647 444 643 343 q 650 651 650 546 q 644 925 650 756 q 581 938 614 938 l 456 926 q 449 609 450 814 q 444 327 449 404 q 420 218 440 250 q 343 186 400 186 q 258 256 275 186 q 246 376 246 308 q 242 497 246 443 q 239 667 239 550 q 246 932 239 783 q 147 939 204 939 l 64 938 m 350 1279 l 576 1054 l 571 1043 q 523 1037 556 1043 q 460 1031 490 1031 q 351 1092 382 1031 l 340 1103 q 305 1069 322 1089 q 272 1041 288 1049 q 210 1033 256 1033 q 119 1042 165 1033 l 115 1054 q 249 1197 165 1119 q 340 1281 332 1274 q 350 1279 343 1279 m 411 1050 q 485 1047 467 1047 q 524 1051 504 1047 q 554 1056 543 1054 l 344 1265 l 290 1215 q 132 1054 178 1111 q 219 1049 176 1049 q 278 1059 261 1049 q 308 1088 294 1069 q 336 1117 322 1107 l 344 1117 q 376 1085 357 1108 q 399 1058 394 1063 l 411 1050 z "},"":{"ha":701,"x_min":42,"x_max":664,"o":"m 263 383 l 261 336 q 353 201 261 201 q 418 236 401 201 q 435 376 435 271 q 442 935 435 779 q 582 951 474 951 q 658 931 636 951 l 658 929 q 664 651 664 757 q 660 465 664 546 q 655 344 657 383 q 652 290 653 306 q 647 238 651 274 q 639 182 643 203 q 601 90 625 124 q 356 -31 518 -31 q 172 14 257 -31 q 56 142 88 58 q 42 253 42 178 l 51 942 q 153 956 57 956 q 260 938 250 956 l 257 610 l 263 383 m 64 938 l 56 250 q 68 147 56 189 q 178 27 90 71 q 355 -17 267 -17 q 496 10 443 -17 q 575 69 549 38 q 617 164 601 101 q 636 260 633 226 q 647 444 643 343 q 650 651 650 546 q 644 925 650 756 q 581 938 614 938 l 456 926 q 449 609 450 814 q 444 327 449 404 q 420 218 440 250 q 343 186 400 186 q 258 256 275 186 q 246 376 246 308 q 242 497 246 443 q 239 667 239 550 q 246 932 239 783 q 147 939 204 939 l 64 938 m 297 1046 l 160 1047 l 156 1047 q 140 1100 140 1056 l 147 1193 l 151 1201 q 242 1214 182 1214 q 313 1193 303 1214 q 308 1122 310 1178 q 297 1046 307 1065 m 539 1046 l 401 1047 l 397 1047 q 382 1100 382 1056 l 389 1193 l 393 1201 q 484 1214 424 1214 q 554 1193 544 1214 q 550 1122 551 1178 q 539 1046 549 1065 m 160 1061 l 290 1060 q 297 1192 290 1149 q 244 1200 275 1200 q 161 1190 213 1200 l 154 1097 q 160 1061 154 1074 m 401 1061 l 532 1060 q 539 1192 532 1149 q 485 1200 517 1200 q 403 1190 454 1200 l 396 1097 q 401 1061 396 1074 z "},"":{"ha":603,"x_min":8,"x_max":629,"o":"m 542 967 l 594 968 q 622 965 617 968 q 629 957 626 963 l 629 953 q 426 472 574 786 q 222 -4 278 158 q 215 -8 217 -7 q 158 -6 199 -6 l 15 -10 l 8 -1 q 189 476 57 151 q 133 644 185 524 q 69 793 81 764 q 15 954 35 878 q 128 971 32 971 q 240 956 225 971 q 315 726 274 804 q 357 806 350 792 q 385 876 364 821 q 419 953 406 932 q 542 967 429 967 m 613 951 q 544 954 588 954 q 431 944 501 954 q 380 833 415 914 q 321 708 344 751 q 228 947 278 708 q 162 960 189 960 q 94 954 135 960 q 31 949 54 949 q 99 760 47 879 q 158 619 150 642 q 178 567 165 597 q 203 490 203 508 q 194 447 203 471 q 156 351 185 418 q 25 4 40 53 q 169 8 138 8 q 211 7 200 8 q 413 479 267 169 q 613 951 558 789 m 400 1039 q 303 1029 390 1029 q 203 1042 215 1029 l 203 1053 q 316 1165 242 1086 q 435 1279 390 1243 q 497 1226 461 1265 q 540 1181 533 1188 l 540 1172 q 494 1133 529 1161 q 400 1039 413 1065 m 221 1050 q 313 1042 267 1042 q 388 1047 360 1042 q 457 1119 401 1074 q 525 1176 513 1164 q 439 1264 467 1235 q 321 1151 394 1228 q 221 1050 247 1075 z "},"":{"ha":664,"x_min":44,"x_max":643,"o":"m 186 -15 l 72 -10 l 44 -10 q 54 329 54 250 l 47 897 q 61 1021 47 1013 q 250 1017 186 1018 l 257 1010 l 260 842 q 404 888 292 888 q 524 837 463 888 q 608 732 586 786 q 643 549 643 644 q 617 372 643 454 q 539 233 592 289 q 410 176 486 176 q 261 243 335 176 l 253 33 q 258 8 253 18 q 186 -15 247 -15 m 239 40 l 247 258 l 260 264 q 424 192 332 192 q 572 296 517 192 q 628 542 628 400 q 567 778 628 685 q 379 871 506 871 q 344 865 367 868 q 308 858 321 861 q 260 811 274 851 q 246 815 250 811 l 243 1003 l 68 1007 q 63 782 63 907 l 68 325 q 58 4 68 192 l 186 -3 q 243 8 221 -3 q 239 40 239 24 m 249 549 l 246 610 q 263 679 246 660 q 324 699 279 699 q 412 676 369 699 q 464 606 454 653 q 474 522 474 575 q 438 420 474 468 q 349 372 403 372 q 272 399 296 372 q 247 489 247 425 l 249 549 m 263 547 l 261 490 q 277 414 261 442 q 347 386 293 386 q 430 433 401 386 q 458 546 458 481 q 453 572 454 553 q 406 663 451 642 q 325 685 361 685 q 276 672 289 685 q 262 644 264 658 q 260 607 260 631 l 263 547 z "},"":{"ha":653,"x_min":42,"x_max":646,"o":"m 42 256 l 44 707 q 42 960 44 875 q 139 989 51 979 q 277 999 226 999 q 385 985 328 999 q 495 942 443 972 q 578 853 547 911 q 608 717 608 794 q 556 517 608 615 q 536 476 535 479 q 539 471 538 472 q 646 235 646 364 q 576 65 646 142 q 379 -11 506 -11 q 318 -7 376 -11 q 300 111 300 1 q 301 135 300 125 q 303 154 303 146 q 308 169 304 163 q 313 181 311 176 q 321 190 315 186 q 329 196 326 194 q 340 200 332 197 q 364 206 353 204 q 378 210 375 208 q 411 275 411 235 q 367 380 411 315 q 324 492 324 444 l 324 494 q 348 563 336 543 q 392 619 360 582 q 424 678 424 656 q 381 737 424 714 q 295 760 339 760 q 231 751 251 760 q 225 667 225 714 l 239 131 l 239 83 q 232 5 239 19 q 192 -10 225 -10 l 117 -7 l 82 -8 q 46 3 57 -8 q 42 256 42 129 m 60 8 l 217 7 q 228 126 228 35 q 219 395 228 217 q 211 647 211 574 q 218 757 211 719 q 297 772 233 772 q 399 743 361 772 q 436 681 436 714 q 403 613 436 651 q 360 559 371 574 q 338 490 350 544 q 383 381 339 447 q 426 282 426 315 q 404 214 426 249 q 347 186 390 193 q 323 165 333 185 q 313 99 313 144 q 324 7 313 54 q 363 4 349 4 q 553 66 475 4 q 632 249 632 128 q 613 336 632 297 q 564 415 594 375 q 522 476 533 454 q 542 524 522 493 q 594 696 594 611 q 567 838 594 781 q 492 925 540 894 q 284 985 401 985 q 56 957 167 985 q 58 715 58 796 l 56 278 q 60 8 56 144 z "},"":{"ha":661,"x_min":17,"x_max":622,"o":"m 450 708 l 610 699 l 617 692 l 617 686 q 621 651 621 674 l 618 614 l 618 436 l 622 83 q 579 -12 622 -12 q 551 -7 564 -12 l 443 -7 q 428 -10 432 -10 q 401 29 401 -10 q 404 60 401 40 q 236 -8 325 -8 q 158 8 192 -8 q 58 144 99 36 q 17 380 17 253 q 89 601 17 507 q 274 696 161 696 q 394 651 363 696 l 400 696 l 404 704 q 450 708 415 708 m 608 269 l 604 681 q 603 685 603 682 l 414 692 l 406 636 l 407 628 l 408 628 l 407 628 l 408 626 q 396 624 400 624 l 394 624 q 394 625 394 625 q 393 626 393 625 q 347 671 374 660 q 274 682 319 682 q 99 592 165 682 q 32 368 32 503 q 122 61 32 169 q 236 4 171 4 q 410 83 331 4 q 421 78 413 81 l 415 31 q 426 6 415 11 l 436 6 q 497 11 453 11 q 558 6 542 11 l 593 6 l 601 14 l 608 269 m 199 417 q 246 487 207 463 q 338 511 285 511 q 403 481 390 511 q 415 317 415 450 q 324 183 415 183 q 223 233 258 183 q 188 334 188 282 q 200 418 188 386 l 199 417 m 400 361 l 401 415 q 399 455 401 440 q 385 483 397 469 q 350 497 374 497 q 213 413 228 497 q 201 338 201 389 q 233 242 201 288 q 321 197 264 197 q 401 300 401 197 l 400 361 m 490 815 q 381 803 467 803 q 294 813 294 803 q 223 882 285 833 q 154 944 161 931 l 154 956 q 250 1053 218 1019 l 258 1053 q 395 924 314 1011 q 490 826 476 836 l 490 815 m 304 821 q 381 815 324 815 q 471 824 438 815 q 422 875 453 839 q 254 1039 307 999 l 246 1033 q 164 954 172 960 q 206 918 171 947 q 304 821 292 846 z "},"":{"ha":661,"x_min":17,"x_max":622,"o":"m 450 708 l 610 699 l 617 692 l 617 686 q 621 651 621 674 l 618 614 l 618 436 l 622 83 q 579 -12 622 -12 q 551 -7 564 -12 l 443 -7 q 428 -10 432 -10 q 401 29 401 -10 q 404 60 401 40 q 236 -8 325 -8 q 158 8 192 -8 q 58 144 99 36 q 17 380 17 253 q 89 601 17 507 q 274 696 161 696 q 394 651 363 696 l 400 696 l 404 704 q 450 708 415 708 m 608 269 l 604 681 q 603 685 603 682 l 414 692 l 406 636 l 407 628 l 408 628 l 407 628 l 408 626 q 396 624 400 624 l 394 624 q 394 625 394 625 q 393 626 393 625 q 347 671 374 660 q 274 682 319 682 q 99 592 165 682 q 32 368 32 503 q 122 61 32 169 q 236 4 171 4 q 410 83 331 4 q 421 78 413 81 l 415 31 q 426 6 415 11 l 436 6 q 497 11 453 11 q 558 6 542 11 l 593 6 l 601 14 l 608 269 m 199 417 q 246 487 207 463 q 338 511 285 511 q 403 481 390 511 q 415 317 415 450 q 324 183 415 183 q 223 233 258 183 q 188 334 188 282 q 200 418 188 386 l 199 417 m 400 361 l 401 415 q 399 455 401 440 q 385 483 397 469 q 350 497 374 497 q 213 413 228 497 q 201 338 201 389 q 233 242 201 288 q 321 197 264 197 q 401 300 401 197 l 400 361 m 414 813 q 317 803 404 803 q 217 815 229 803 l 217 826 q 330 938 256 860 q 449 1053 404 1017 q 511 1000 475 1039 q 554 954 547 961 l 554 946 q 508 906 543 935 q 414 813 426 839 m 544 947 l 453 1038 q 335 925 408 1001 q 235 824 261 849 q 327 815 281 815 q 401 821 374 815 q 544 947 424 864 z "},"":{"ha":661,"x_min":17,"x_max":622,"o":"m 450 708 l 610 699 l 617 692 l 617 686 q 621 651 621 674 l 618 614 l 618 436 l 622 83 q 579 -12 622 -12 q 551 -7 564 -12 l 443 -7 q 428 -10 432 -10 q 401 29 401 -10 q 404 60 401 40 q 236 -8 325 -8 q 158 8 192 -8 q 58 144 99 36 q 17 380 17 253 q 89 601 17 507 q 274 696 161 696 q 394 651 363 696 l 400 696 l 404 704 q 450 708 415 708 m 608 269 l 604 681 q 603 685 603 682 l 414 692 l 406 636 l 407 628 l 408 628 l 407 628 l 408 626 q 396 624 400 624 l 394 624 q 394 625 394 625 q 393 626 393 625 q 347 671 374 660 q 274 682 319 682 q 99 592 165 682 q 32 368 32 503 q 122 61 32 169 q 236 4 171 4 q 410 83 331 4 q 421 78 413 81 l 415 31 q 426 6 415 11 l 436 6 q 497 11 453 11 q 558 6 542 11 l 593 6 l 601 14 l 608 269 m 199 417 q 246 487 207 463 q 338 511 285 511 q 403 481 390 511 q 415 317 415 450 q 324 183 415 183 q 223 233 258 183 q 188 334 188 282 q 200 418 188 386 l 199 417 m 356 1056 l 582 831 l 576 819 q 528 813 561 819 q 460 807 496 807 q 404 819 425 807 q 372 850 383 831 q 349 876 360 869 q 343 881 343 876 q 293 829 314 860 q 226 810 281 810 q 125 818 171 810 l 121 831 q 254 973 171 896 q 346 1057 338 1050 q 356 1056 349 1056 m 400 361 l 401 415 q 399 455 401 440 q 385 483 397 469 q 350 497 374 497 q 213 413 228 497 q 201 338 201 389 q 233 242 201 288 q 321 197 264 197 q 401 300 401 197 l 400 361 m 558 832 l 350 1042 l 296 992 q 138 831 183 888 q 224 825 182 825 q 283 835 267 825 q 314 865 300 846 q 342 893 328 883 l 350 893 q 381 862 363 885 q 404 835 400 839 l 417 826 q 483 824 461 824 l 551 831 l 558 832 z "},"":{"ha":661,"x_min":17,"x_max":632,"o":"m 450 708 l 610 699 l 617 692 l 617 686 q 621 651 621 674 l 618 614 l 618 436 l 622 83 q 579 -12 622 -12 q 551 -7 564 -12 l 443 -7 q 428 -10 432 -10 q 401 29 401 -10 q 404 60 401 40 q 236 -8 325 -8 q 158 8 192 -8 q 58 144 99 36 q 17 380 17 253 q 89 601 17 507 q 274 696 161 696 q 394 651 363 696 l 400 696 l 404 704 q 450 708 415 708 m 608 269 l 604 681 q 603 685 603 682 l 414 692 l 406 636 l 407 628 l 408 628 l 407 628 l 408 626 q 396 624 400 624 l 394 624 q 394 625 394 625 q 393 626 393 625 q 347 671 374 660 q 274 682 319 682 q 99 592 165 682 q 32 368 32 503 q 122 61 32 169 q 236 4 171 4 q 410 83 331 4 q 421 78 413 81 l 415 31 q 426 6 415 11 l 436 6 q 497 11 453 11 q 558 6 542 11 l 593 6 l 601 14 l 608 269 m 229 850 l 235 818 l 228 811 q 194 813 218 813 q 160 817 171 813 l 65 815 l 58 824 q 132 987 82 915 q 256 1058 182 1058 q 319 1044 292 1058 q 358 1011 346 1029 q 432 953 394 960 q 501 1036 483 963 q 563 1046 521 1046 l 601 1044 l 622 1046 l 629 1042 q 632 1036 629 1036 q 590 870 632 936 q 465 804 549 804 q 402 820 428 804 q 366 855 376 836 q 337 890 356 874 q 293 906 318 906 q 249 892 268 906 q 229 850 229 878 m 75 829 l 138 833 q 167 829 153 833 q 218 826 200 829 q 215 844 215 838 q 238 899 215 876 q 290 922 261 922 q 335 912 319 922 q 360 885 351 901 q 381 854 369 869 q 472 818 404 818 q 579 878 540 818 q 618 1031 618 939 l 514 1028 q 478 964 507 989 q 433 939 450 939 q 400 952 415 939 q 368 987 385 965 q 340 1017 351 1008 q 265 1043 307 1043 q 194 1027 222 1043 q 151 994 167 1011 q 117 939 135 976 q 75 829 96 894 m 199 417 q 246 487 207 463 q 338 511 285 511 q 403 481 390 511 q 415 317 415 450 q 324 183 415 183 q 223 233 258 183 q 188 334 188 282 q 200 418 188 386 l 199 417 m 400 361 l 401 415 q 399 455 401 440 q 385 483 397 469 q 350 497 374 497 q 213 413 228 497 q 201 338 201 389 q 233 242 201 288 q 321 197 264 197 q 401 300 401 197 l 400 361 z "},"":{"ha":661,"x_min":17,"x_max":622,"o":"m 450 708 l 610 699 l 617 692 l 617 686 q 621 651 621 674 l 618 614 l 618 436 l 622 83 q 579 -12 622 -12 q 551 -7 564 -12 l 443 -7 q 428 -10 432 -10 q 401 29 401 -10 q 404 60 401 40 q 236 -8 325 -8 q 158 8 192 -8 q 58 144 99 36 q 17 380 17 253 q 89 601 17 507 q 274 696 161 696 q 394 651 363 696 l 400 696 l 404 704 q 450 708 415 708 m 608 269 l 604 681 q 603 685 603 682 l 414 692 l 406 636 l 407 628 l 408 628 l 407 628 l 408 626 q 396 624 400 624 l 394 624 q 394 625 394 625 q 393 626 393 625 q 347 671 374 660 q 274 682 319 682 q 99 592 165 682 q 32 368 32 503 q 122 61 32 169 q 236 4 171 4 q 410 83 331 4 q 421 78 413 81 l 415 31 q 426 6 415 11 l 436 6 q 497 11 453 11 q 558 6 542 11 l 593 6 l 601 14 l 608 269 m 199 417 q 246 487 207 463 q 338 511 285 511 q 403 481 390 511 q 415 317 415 450 q 324 183 415 183 q 223 233 258 183 q 188 334 188 282 q 200 418 188 386 l 199 417 m 400 361 l 401 415 q 399 455 401 440 q 385 483 397 469 q 350 497 374 497 q 213 413 228 497 q 201 338 201 389 q 233 242 201 288 q 321 197 264 197 q 401 300 401 197 l 400 361 m 158 865 l 151 1042 q 160 1063 151 1057 q 349 1058 285 1060 l 356 1051 l 356 1004 q 361 940 361 988 l 360 874 q 266 850 360 850 q 158 865 172 850 m 414 865 l 407 1042 q 415 1063 407 1057 q 604 1058 540 1060 l 611 1051 l 611 1004 q 617 940 617 988 l 615 874 q 522 850 615 850 q 414 865 428 850 m 346 876 l 343 997 q 340 1020 340 1004 q 342 1044 340 1036 q 167 1049 253 1047 l 165 1024 l 172 871 l 286 864 q 346 876 332 864 m 601 876 l 599 997 q 596 1020 596 1004 q 597 1044 596 1036 q 422 1049 508 1047 l 421 1024 l 428 871 l 542 864 q 601 876 588 864 z "},"":{"ha":661,"x_min":17,"x_max":622,"o":"m 450 708 l 610 699 l 617 692 l 617 686 q 621 651 621 674 l 618 614 l 618 436 l 622 83 q 579 -12 622 -12 q 551 -7 564 -12 l 443 -7 q 428 -10 432 -10 q 401 29 401 -10 q 404 60 401 40 q 236 -8 325 -8 q 158 8 192 -8 q 58 144 99 36 q 17 380 17 253 q 89 601 17 507 q 274 696 161 696 q 394 651 363 696 l 400 696 l 404 704 q 450 708 415 708 m 608 269 l 604 681 q 603 685 603 682 l 414 692 l 406 636 l 407 628 l 408 628 l 407 628 l 408 626 q 396 624 400 624 l 394 624 q 394 625 394 625 q 393 626 393 625 q 347 671 374 660 q 274 682 319 682 q 99 592 165 682 q 32 368 32 503 q 122 61 32 169 q 236 4 171 4 q 410 83 331 4 q 421 78 413 81 l 415 31 q 426 6 415 11 l 436 6 q 497 11 453 11 q 558 6 542 11 l 593 6 l 601 14 l 608 269 m 460 821 q 346 781 433 781 q 236 810 258 781 q 214 893 214 839 q 217 965 214 947 q 231 1007 219 983 q 354 1051 253 1051 q 453 1024 426 1051 q 481 940 481 997 q 461 822 481 883 l 460 821 m 199 417 q 246 487 207 463 q 338 511 285 511 q 403 481 390 511 q 415 317 415 450 q 324 183 415 183 q 223 233 258 183 q 188 334 188 282 q 200 418 188 386 l 199 417 m 447 826 q 467 940 467 882 q 435 1019 467 999 q 342 1039 404 1039 q 253 1012 279 1039 q 226 911 226 985 q 250 815 226 838 q 349 793 274 793 q 447 826 425 793 m 400 361 l 401 415 q 399 455 401 440 q 385 483 397 469 q 350 497 374 497 q 213 413 228 497 q 201 338 201 389 q 233 242 201 288 q 321 197 264 197 q 401 300 401 197 l 400 361 m 304 982 q 351 992 326 992 q 398 976 376 992 q 419 933 419 961 q 417 889 419 904 q 401 858 415 874 q 346 843 386 843 q 291 860 306 843 q 276 918 276 876 q 303 981 276 960 l 304 982 m 288 911 q 342 857 288 857 q 394 872 383 857 q 406 921 406 888 q 347 978 406 978 q 311 969 325 978 q 288 911 288 946 z "},"":{"ha":976,"x_min":6,"x_max":960,"o":"m 381 385 l 382 451 q 363 519 382 493 q 308 544 343 544 q 248 524 272 544 q 224 471 224 503 q 156 453 206 453 q 94 453 107 453 q 64 458 81 454 q 36 492 36 464 q 124 636 36 583 q 324 689 213 689 q 492 636 436 689 q 693 699 564 699 q 891 624 822 699 q 960 421 960 549 q 956 357 960 389 q 739 332 931 332 q 649 331 675 332 q 619 332 624 331 l 604 336 l 604 322 q 701 161 604 161 q 775 267 775 161 l 783 275 q 806 274 790 274 l 901 279 q 953 263 944 279 q 947 203 950 250 q 921 61 943 85 q 739 -10 860 -10 q 688 -7 710 -10 q 640 -2 667 -4 q 601 1 613 0 q 571 8 590 3 q 540 19 551 13 q 483 72 510 39 q 269 -19 372 -19 q 85 41 165 -19 q 6 194 6 101 q 67 349 6 288 q 217 410 128 410 q 381 385 307 410 m 804 258 l 789 260 q 766 179 789 213 q 701 146 743 146 q 590 321 590 146 l 590 344 l 599 353 q 669 347 617 347 q 942 363 904 347 q 944 421 944 399 q 881 614 944 543 q 694 685 817 685 q 496 621 571 685 l 488 621 q 324 675 433 675 q 133 626 215 675 q 50 494 50 578 q 72 469 50 472 q 140 465 94 465 q 210 475 186 465 q 242 536 211 511 q 314 561 274 561 q 375 524 354 561 q 396 442 396 488 l 394 394 q 396 372 394 379 l 386 365 q 240 396 338 396 q 81 343 143 396 q 19 199 19 290 q 93 51 19 108 q 265 -6 167 -6 q 481 88 364 -6 q 490 86 483 86 q 567 23 525 40 q 688 6 610 6 q 813 17 767 6 q 881 43 858 28 q 915 87 904 58 q 928 138 926 115 q 931 199 929 161 q 938 260 933 236 q 900 264 922 264 l 804 258 m 154 203 q 190 277 154 250 q 272 304 225 304 q 352 283 318 304 q 386 215 386 261 q 353 145 386 168 q 288 122 319 122 q 235 128 256 122 q 154 203 154 142 m 167 192 q 276 138 183 138 q 344 156 317 138 q 371 214 371 174 q 342 272 371 254 q 269 290 313 290 q 197 265 226 290 q 167 192 167 239 m 761 554 q 798 513 778 543 q 818 465 818 483 q 810 442 818 446 q 782 438 801 438 q 754 440 763 438 l 682 440 q 633 436 644 436 q 592 463 592 436 q 624 539 592 508 q 701 569 656 569 q 761 554 731 569 m 735 456 l 800 451 q 754 542 800 510 q 692 551 726 551 q 631 527 657 551 q 606 456 606 503 q 639 450 615 450 l 735 456 z "},"":{"ha":615,"x_min":25,"x_max":594,"o":"m 433 275 l 539 281 q 592 264 583 281 q 584 185 588 239 q 575 100 581 131 q 544 36 569 69 q 471 -9 519 3 q 396 -24 422 -21 q 363 -112 392 -43 q 333 -206 333 -182 q 247 -217 322 -217 l 218 -218 q 169 -201 176 -218 q 196 -117 176 -183 q 232 -19 215 -51 q 104 40 153 -11 q 40 151 56 90 q 25 289 25 213 l 28 407 l 26 475 q 82 666 26 615 q 253 717 138 717 l 303 715 l 361 718 q 489 690 428 718 q 589 544 578 651 q 592 465 592 510 q 594 401 593 421 q 511 386 586 386 q 408 401 436 386 q 398 422 406 406 q 388 444 390 439 q 378 460 385 449 q 365 476 371 472 q 351 486 360 479 q 310 496 338 496 q 238 449 257 496 q 219 264 219 401 q 307 186 219 186 q 368 199 343 186 q 390 240 375 206 q 410 276 404 274 q 433 275 417 275 m 229 -201 l 319 -199 q 352 -110 326 -171 q 383 -15 378 -49 l 390 -10 q 528 39 486 -4 q 567 142 563 75 q 570 203 568 165 q 576 263 572 240 q 540 267 561 267 l 433 260 q 414 261 419 260 q 318 171 397 171 q 238 193 268 171 q 207 256 207 215 l 211 317 l 208 389 q 237 479 208 447 q 305 511 265 511 q 376 484 344 511 q 417 413 408 457 q 500 403 438 403 q 579 407 563 403 q 578 468 578 425 q 564 595 578 560 q 525 651 550 631 q 478 681 500 671 q 329 704 429 704 q 292 703 314 704 l 247 703 q 75 639 122 703 q 40 447 40 590 l 39 346 q 64 128 39 185 q 97 64 76 97 q 243 -7 138 1 q 249 -17 247 -14 l 240 -42 q 185 -199 226 -83 q 229 -201 213 -201 z "},"":{"ha":617,"x_min":19,"x_max":600,"o":"m 436 272 l 540 278 q 593 261 585 278 q 583 166 588 229 q 566 71 578 103 q 533 19 554 39 q 372 -25 486 -25 l 319 -25 q 117 36 169 -25 q 19 350 19 149 q 35 531 19 436 q 131 674 51 626 q 323 721 210 721 q 501 672 436 721 q 600 425 600 597 q 596 360 600 392 q 329 336 572 336 l 263 333 q 224 338 240 333 q 246 203 224 251 q 331 154 268 154 q 404 265 404 154 l 413 274 q 436 272 419 272 m 432 257 l 418 258 q 392 171 418 206 q 326 136 365 136 q 210 347 210 136 l 221 354 q 268 347 233 347 l 329 350 q 582 365 542 350 q 585 424 585 404 q 501 654 585 575 q 307 708 446 708 q 69 593 136 708 q 35 404 35 533 q 53 192 35 275 q 123 49 71 108 q 319 -11 175 -11 l 381 -11 q 525 33 481 -11 q 554 83 543 51 q 567 138 565 114 q 572 200 569 161 q 578 258 575 239 q 538 264 563 264 l 432 257 m 460 815 q 350 803 436 803 q 264 813 264 803 q 188 883 253 832 q 124 944 124 935 l 124 956 q 219 1053 188 1019 l 228 1053 q 365 924 283 1011 q 460 826 446 836 l 460 815 m 274 821 q 350 815 293 815 q 440 824 407 815 q 392 875 422 839 q 224 1038 281 994 l 136 950 q 178 914 142 944 q 274 821 261 844 m 446 457 q 421 444 446 444 q 382 450 396 444 l 306 450 q 256 446 268 446 q 211 472 211 446 q 243 555 211 526 q 318 583 275 583 q 446 457 446 583 m 358 467 l 432 461 q 382 557 432 533 q 315 572 349 572 q 253 543 281 572 q 225 467 225 514 q 265 458 242 458 l 358 467 z "},"":{"ha":617,"x_min":19,"x_max":600,"o":"m 436 272 l 540 278 q 593 261 585 278 q 583 166 588 229 q 566 71 578 103 q 533 19 554 39 q 372 -25 486 -25 l 319 -25 q 117 36 169 -25 q 19 350 19 149 q 35 531 19 436 q 131 674 51 626 q 323 721 210 721 q 501 672 436 721 q 600 425 600 597 q 596 360 600 392 q 329 336 572 336 l 264 333 q 224 338 240 333 q 246 203 224 251 q 331 154 268 154 q 404 265 404 154 l 413 274 q 436 272 419 272 m 432 257 l 418 258 q 392 171 418 206 q 326 136 365 136 q 210 347 210 136 l 221 354 q 268 347 233 347 l 329 350 q 582 365 542 350 q 585 424 585 404 q 501 654 585 575 q 307 708 446 708 q 69 593 136 708 q 35 404 35 533 q 53 192 35 275 q 123 49 71 108 q 319 -11 175 -11 l 381 -11 q 525 33 481 -11 q 554 83 543 51 q 567 138 565 114 q 572 200 569 161 q 578 258 575 239 q 538 264 563 264 l 432 257 m 393 813 q 296 803 383 803 q 196 815 208 803 l 196 826 q 309 938 235 860 q 428 1053 383 1017 q 490 1000 454 1039 q 533 954 526 961 l 533 946 q 488 906 522 935 q 393 813 406 839 m 214 824 q 306 815 260 815 q 381 821 353 815 q 450 892 394 847 q 518 950 506 938 q 432 1038 460 1008 q 314 925 388 1001 q 214 824 240 849 m 446 457 q 421 444 446 444 q 382 450 396 444 l 306 450 q 256 446 268 446 q 211 472 211 446 q 243 555 211 526 q 318 583 275 583 q 446 457 446 583 m 358 467 l 432 461 q 382 557 432 533 q 315 572 349 572 q 253 543 281 572 q 225 467 225 514 q 265 458 242 458 l 358 467 z "},"":{"ha":617,"x_min":19,"x_max":600,"o":"m 436 272 l 540 278 q 593 261 585 278 q 583 166 588 229 q 566 71 578 103 q 533 19 554 39 q 372 -25 486 -25 l 319 -25 q 117 36 169 -25 q 19 350 19 149 q 35 531 19 436 q 131 674 51 626 q 323 721 210 721 q 501 672 436 721 q 600 425 600 597 q 596 360 600 392 q 329 336 572 336 l 264 333 q 224 338 240 333 q 246 203 224 251 q 331 154 268 154 q 404 265 404 154 l 413 274 q 436 272 419 272 m 432 257 l 418 258 q 392 171 418 206 q 326 136 365 136 q 210 347 210 136 l 221 354 q 268 347 233 347 l 329 350 q 582 365 542 350 q 585 424 585 404 q 501 654 585 575 q 307 708 446 708 q 69 593 136 708 q 35 404 35 533 q 53 192 35 275 q 123 49 71 108 q 319 -11 175 -11 l 381 -11 q 525 33 481 -11 q 554 83 543 51 q 567 138 565 114 q 572 200 569 161 q 578 258 575 239 q 538 264 563 264 l 432 257 m 331 1056 l 557 831 l 551 819 q 503 813 536 819 q 440 807 471 807 q 332 868 363 807 l 321 879 q 285 845 303 865 q 252 817 268 825 q 191 810 236 810 q 100 818 146 810 l 96 831 q 229 973 146 896 q 321 1057 313 1050 q 331 1056 324 1056 m 392 826 q 466 824 447 824 q 504 827 485 824 q 535 832 524 831 l 325 1042 l 271 992 q 113 831 158 888 q 199 825 157 825 q 258 835 242 825 q 289 865 275 846 q 317 893 303 883 l 325 893 q 356 862 338 885 q 379 835 375 839 l 392 826 m 446 457 q 421 444 446 444 q 382 450 396 444 l 306 450 q 256 446 268 446 q 211 472 211 446 q 243 555 211 526 q 318 583 275 583 q 446 457 446 583 m 358 467 l 432 461 q 382 557 432 533 q 315 572 349 572 q 253 543 281 572 q 225 467 225 514 q 265 458 242 458 l 358 467 z "},"":{"ha":617,"x_min":19,"x_max":600,"o":"m 436 272 l 540 278 q 593 261 585 278 q 583 166 588 229 q 566 71 578 103 q 533 19 554 39 q 372 -25 486 -25 l 319 -25 q 117 36 169 -25 q 19 350 19 149 q 35 531 19 436 q 131 674 51 626 q 323 721 210 721 q 501 672 436 721 q 600 425 600 597 q 596 360 600 392 q 329 336 572 336 l 263 333 q 224 338 240 333 q 246 203 224 251 q 331 154 268 154 q 404 265 404 154 l 413 274 q 436 272 419 272 m 432 257 l 418 258 q 392 171 418 206 q 326 136 365 136 q 210 347 210 136 l 221 354 q 268 347 233 347 l 329 350 q 582 365 542 350 q 585 424 585 404 q 501 654 585 575 q 307 708 446 708 q 69 593 136 708 q 35 404 35 533 q 53 192 35 275 q 123 49 71 108 q 319 -11 175 -11 l 381 -11 q 525 33 481 -11 q 554 83 543 51 q 567 138 565 114 q 572 200 569 161 q 578 258 575 239 q 538 264 563 264 l 432 257 m 85 865 l 78 1042 q 86 1063 78 1057 q 275 1058 211 1060 l 282 1051 l 282 1004 q 288 940 288 988 l 286 874 q 192 850 286 850 q 85 865 99 850 m 340 865 l 333 1042 q 342 1063 333 1057 q 531 1058 467 1060 l 538 1051 l 538 1004 q 543 940 543 988 l 542 874 q 448 850 542 850 q 340 865 354 850 m 528 876 l 525 997 q 522 1020 522 1004 q 524 1044 522 1036 q 349 1049 433 1047 l 347 1024 l 354 871 l 468 864 q 528 876 514 864 m 272 876 l 269 997 q 267 1020 267 1004 q 268 1044 267 1036 q 93 1049 178 1047 l 92 1024 l 99 871 l 213 864 q 272 876 258 864 m 446 457 q 421 444 446 444 q 382 450 396 444 l 306 450 q 256 446 268 446 q 211 472 211 446 q 243 555 211 526 q 318 583 275 583 q 446 457 446 583 m 358 467 l 432 461 q 382 557 432 533 q 315 572 349 572 q 253 543 281 572 q 225 467 225 514 q 265 458 242 458 l 358 467 z "},"":{"ha":288,"x_min":-82,"x_max":254,"o":"m 250 699 l 243 224 q 249 8 243 104 q 185 -11 249 -11 l 74 -6 q 47 -7 54 -6 l 39 1 q 43 143 43 49 l 39 515 q 47 706 39 706 l 47 701 l 54 710 l 243 706 l 250 699 m 54 8 l 181 1 q 235 11 211 1 q 229 224 229 106 l 236 692 l 61 696 q 54 501 54 614 l 58 169 q 54 8 58 89 m 254 815 q 144 803 231 803 q 58 813 58 803 q -17 883 47 832 q -82 944 -82 935 l -82 956 q 14 1053 -18 1019 l 22 1053 q 159 924 78 1011 q 254 826 240 836 l 254 815 m 68 821 q 144 815 88 815 q 235 824 201 815 q 186 875 217 839 q 18 1038 75 994 l -69 950 q -28 914 -64 944 q 68 821 56 844 z "},"":{"ha":288,"x_min":33,"x_max":371,"o":"m 38 697 l 44 706 l 68 706 l 96 704 q 233 710 96 704 l 240 703 l 249 540 l 243 163 q 249 0 243 72 l 242 -7 l 235 -6 l 235 -7 l 235 -6 l 101 -11 q 39 10 49 -11 q 43 219 43 114 l 38 697 m 94 690 l 68 692 l 51 692 l 56 215 q 53 11 56 79 q 106 3 69 3 l 233 8 q 228 181 228 85 l 232 511 q 226 696 232 613 l 94 690 m 231 813 q 133 803 221 803 q 33 815 46 803 l 33 826 q 147 938 72 860 q 265 1053 221 1017 q 328 1000 292 1039 q 371 954 364 961 l 371 946 q 325 906 360 935 q 231 813 243 839 m 51 824 q 144 815 97 815 q 218 821 190 815 q 288 892 232 847 q 356 950 343 938 q 269 1038 297 1008 q 151 925 225 1001 q 51 824 78 849 z "},"":{"ha":288,"x_min":-79,"x_max":382,"o":"m 250 699 l 243 224 q 249 8 243 104 q 185 -11 249 -11 l 74 -6 q 47 -7 54 -6 l 39 1 q 43 143 43 49 l 39 515 q 47 706 39 706 l 47 701 l 54 710 l 243 706 l 250 699 m 54 8 l 181 1 q 235 11 211 1 q 229 224 229 106 l 236 692 l 61 696 q 54 501 54 614 l 58 169 q 54 8 58 89 m 156 1056 l 382 831 l 376 819 q 328 813 361 819 q 265 807 296 807 q 157 868 188 807 l 146 879 q 110 845 128 865 q 77 817 93 825 q 16 810 61 810 q -75 818 -29 810 l -79 831 q 54 973 -29 896 q 146 1057 138 1050 q 156 1056 149 1056 m 217 826 q 291 824 272 824 q 329 827 310 824 q 360 832 349 831 q 293 898 328 863 q 217 975 258 933 l 150 1042 l 96 992 q -62 831 -17 888 q 24 825 -18 825 q 83 835 67 825 q 114 865 100 846 q 142 893 128 883 l 150 893 q 181 862 163 885 q 204 835 200 839 l 217 826 z "},"":{"ha":288,"x_min":-85,"x_max":382,"o":"m 250 699 l 243 224 q 249 8 243 104 q 185 -11 249 -11 l 74 -6 q 47 -7 54 -6 l 39 1 q 43 143 43 49 l 39 515 q 47 706 39 706 l 47 701 l 54 710 l 243 706 l 250 699 m 54 8 l 181 1 q 235 11 211 1 q 229 224 229 106 l 236 692 l 61 696 q 54 501 54 614 l 58 169 q 54 8 58 89 m -78 865 l -85 1042 q -76 1063 -85 1057 q 113 1058 49 1060 l 121 1058 l 125 940 q 125 901 126 925 q 124 874 124 876 q 30 850 124 850 q -78 865 -64 850 m 178 865 l 171 1042 q 179 1063 171 1057 q 368 1058 304 1060 l 375 1058 l 381 940 q 381 922 381 933 l 379 874 q 285 850 379 850 q 178 865 192 850 m 186 1049 l 185 1024 l 192 871 l 306 864 q 365 876 351 864 l 361 1044 q 186 1049 272 1047 m -69 1049 l -71 1024 l -64 871 l 50 864 q 110 876 96 864 l 106 1044 q -69 1049 17 1047 z "},"":{"ha":738,"x_min":15,"x_max":715,"o":"m 535 1194 l 543 1192 q 606 1137 560 1167 q 667 1092 651 1107 q 608 1044 667 1076 q 542 1007 549 1011 q 685 674 647 917 q 715 378 715 457 q 706 244 715 300 q 673 135 697 189 q 611 43 649 81 q 369 -40 525 -40 q 115 39 214 -40 q 15 282 15 118 q 26 417 15 360 q 64 525 36 474 q 293 633 124 633 q 454 601 386 633 q 444 672 451 618 q 432 751 438 726 q 408 812 426 775 q 358 874 389 849 q 203 769 306 839 l 186 756 q 139 731 154 731 q 128 742 136 732 q 82 781 119 753 q 31 826 44 808 q 102 888 31 839 q 188 947 174 938 q 106 985 160 954 q 36 1024 51 1017 l 32 1031 q 57 1058 32 1043 q 144 1133 93 1094 q 222 1172 194 1172 q 305 1132 251 1167 q 386 1089 358 1097 q 452 1140 394 1094 q 535 1194 510 1186 m 471 593 l 464 583 q 414 597 447 588 q 281 619 347 619 q 159 594 214 619 q 78 525 104 569 q 31 325 31 443 q 43 193 31 249 q 89 83 56 138 q 376 -26 160 -26 q 701 363 701 -26 q 680 606 701 436 q 632 847 658 776 q 526 1001 596 950 l 526 1013 q 591 1053 549 1028 q 650 1089 633 1078 q 593 1129 635 1103 q 535 1178 551 1156 q 456 1125 511 1169 q 388 1075 394 1078 q 298 1119 368 1079 q 217 1158 228 1158 q 83 1069 168 1158 q 49 1033 50 1035 q 115 997 57 1029 q 206 957 172 964 l 208 944 q 46 828 103 872 q 92 791 57 817 q 142 746 126 765 q 263 826 196 779 q 354 888 331 872 l 363 888 q 461 685 447 817 q 465 643 463 675 q 471 593 467 611 m 200 265 q 196 332 196 292 q 224 406 196 372 q 325 439 253 439 q 454 392 397 439 q 511 286 511 346 q 467 197 511 226 q 363 168 422 168 q 258 194 304 168 q 200 265 211 219 m 214 269 q 267 205 224 228 q 364 182 310 182 q 458 208 418 182 q 497 286 497 233 q 442 383 497 339 q 326 428 386 428 q 237 399 265 428 q 208 324 208 371 q 214 269 208 304 z "},"":{"ha":625,"x_min":28,"x_max":607,"o":"m 44 -12 l 39 592 q 51 699 39 692 l 100 694 q 139 699 111 694 q 199 704 167 704 q 238 699 232 704 q 240 631 238 675 q 411 694 326 694 q 561 631 529 694 q 583 563 578 597 q 588 472 588 529 l 581 69 q 585 3 581 36 q 513 -10 578 -10 l 461 -14 q 394 24 394 -14 l 396 213 q 392 306 396 275 q 388 356 389 336 q 385 389 386 376 q 363 447 381 424 l 364 447 l 363 447 q 319 460 350 447 q 231 342 231 460 l 238 108 l 232 4 q 158 -14 222 -14 l 82 -8 l 44 -12 m 567 60 l 574 479 q 569 563 574 532 q 550 624 565 593 q 413 681 522 681 q 239 614 343 681 l 228 618 q 226 653 226 629 q 225 690 226 678 l 111 678 l 58 683 q 54 473 54 572 q 57 214 54 374 q 60 4 60 54 q 101 7 82 7 q 135 3 119 7 q 218 10 194 3 l 222 146 l 214 318 q 235 433 214 393 q 304 472 256 472 q 363 461 353 472 q 408 239 408 451 l 408 153 l 406 60 q 410 4 406 29 l 481 3 q 569 8 531 3 q 567 60 567 42 m 199 850 l 204 818 l 197 811 q 164 813 188 813 q 129 817 140 813 l 35 815 l 28 824 q 101 987 51 915 q 225 1058 151 1058 q 288 1044 261 1058 q 328 1011 315 1029 q 401 953 364 960 q 471 1036 453 963 q 532 1046 490 1046 l 571 1044 l 592 1046 q 607 1044 599 1046 q 563 874 607 944 q 435 804 518 804 q 372 820 397 804 q 335 855 346 836 q 306 890 325 874 q 263 906 288 906 q 218 892 238 906 q 199 850 199 878 m 44 829 l 108 833 q 136 829 124 833 q 188 826 169 829 q 185 844 185 838 q 208 899 185 876 q 260 922 231 922 q 305 912 289 922 q 330 885 321 901 q 350 854 339 869 q 442 818 374 818 q 549 878 510 818 q 588 1031 588 939 l 483 1028 q 448 964 476 989 q 402 939 419 939 q 369 952 385 939 q 338 987 354 965 q 310 1017 321 1008 q 234 1043 276 1043 q 164 1027 192 1043 q 120 994 136 1011 q 86 939 104 976 q 44 829 65 894 z "},"":{"ha":622,"x_min":28,"x_max":599,"o":"m 242 719 l 332 721 q 522 672 444 721 q 599 440 599 624 q 570 90 599 201 q 364 -22 542 -22 q 325 -19 363 -22 q 256 -15 288 -17 q 219 -13 225 -14 q 192 -9 213 -12 q 164 -1 171 -6 q 140 13 157 4 q 111 36 124 22 l 79 67 q 28 272 28 121 l 28 403 q 31 541 28 508 q 44 599 35 574 q 56 635 53 625 q 131 700 71 681 q 242 719 190 719 m 343 707 l 243 706 q 167 697 208 706 q 69 631 83 679 q 58 597 68 622 q 44 531 49 571 q 40 350 40 492 q 56 150 40 208 q 172 13 85 43 q 251 -1 200 3 q 318 -7 303 -4 q 381 -10 333 -10 q 470 5 429 -10 q 532 51 511 19 q 560 112 553 82 q 576 242 568 142 q 585 397 585 343 q 539 640 585 569 q 445 694 486 682 q 343 707 404 707 m 210 294 l 208 371 q 232 475 208 451 q 318 513 263 513 q 425 336 425 513 q 401 214 425 253 q 326 175 376 175 q 242 195 276 175 q 208 251 208 215 l 210 294 m 224 288 l 221 251 q 251 206 221 222 q 326 189 281 189 q 390 224 371 189 q 410 342 410 260 q 388 461 410 425 q 317 497 365 497 q 242 465 269 497 q 222 363 222 446 l 224 288 m 442 815 q 332 803 418 803 q 246 813 246 803 q 170 883 235 832 q 106 944 106 935 l 106 956 q 201 1053 169 1019 l 210 1053 q 347 924 265 1011 q 442 826 428 836 l 442 815 m 256 821 q 332 815 275 815 q 422 824 389 815 q 374 875 404 839 q 206 1038 263 994 l 118 950 q 161 914 124 944 q 256 821 243 844 z "},"":{"ha":622,"x_min":28,"x_max":599,"o":"m 242 719 l 332 721 q 522 672 444 721 q 599 440 599 624 q 570 90 599 201 q 364 -22 542 -22 q 325 -19 363 -22 q 256 -15 288 -17 q 219 -13 225 -14 q 192 -9 213 -12 q 164 -1 171 -6 q 140 13 157 4 q 111 36 124 22 l 79 67 q 28 272 28 121 l 28 403 q 31 541 28 508 q 44 599 35 574 q 56 635 53 625 q 131 700 71 681 q 242 719 190 719 m 343 707 l 243 706 q 167 697 208 706 q 69 631 83 679 q 58 597 68 622 q 44 531 49 571 q 40 350 40 492 q 56 150 40 208 q 172 13 85 43 q 251 -1 200 3 q 318 -7 303 -4 q 381 -10 333 -10 q 470 5 429 -10 q 532 51 511 19 q 560 112 553 82 q 576 242 568 142 q 585 397 585 343 q 539 640 585 569 q 445 694 486 682 q 343 707 404 707 m 210 294 l 208 371 q 232 475 208 451 q 318 513 263 513 q 425 336 425 513 q 401 214 425 253 q 326 175 376 175 q 242 195 276 175 q 208 251 208 215 l 210 294 m 224 288 l 221 251 q 251 206 221 222 q 326 189 281 189 q 390 224 371 189 q 410 342 410 260 q 388 461 410 425 q 317 497 365 497 q 242 465 269 497 q 222 363 222 446 l 224 288 m 393 813 q 296 803 383 803 q 196 815 208 803 l 196 826 q 309 938 235 860 q 428 1053 383 1017 q 490 1000 454 1039 q 533 954 526 961 l 533 946 q 488 906 522 935 q 393 813 406 839 m 214 824 q 306 815 260 815 q 381 821 353 815 q 450 892 394 847 q 518 950 506 938 q 432 1038 460 1008 q 314 925 388 1001 q 214 824 240 849 z "},"":{"ha":622,"x_min":28,"x_max":599,"o":"m 242 719 l 332 721 q 522 672 444 721 q 599 440 599 624 q 570 90 599 201 q 364 -22 542 -22 q 325 -19 363 -22 q 256 -15 288 -17 q 219 -13 225 -14 q 192 -9 213 -12 q 164 -1 171 -6 q 140 13 157 4 q 111 36 124 22 l 79 67 q 28 272 28 121 l 28 403 q 31 541 28 508 q 44 599 35 574 q 56 635 53 625 q 131 700 71 681 q 242 719 190 719 m 343 707 l 243 706 q 167 697 208 706 q 69 631 83 679 q 58 597 68 622 q 44 531 49 571 q 40 350 40 492 q 56 150 40 208 q 172 13 85 43 q 251 -1 200 3 q 318 -7 303 -4 q 381 -10 333 -10 q 470 5 429 -10 q 532 51 511 19 q 560 112 553 82 q 576 242 568 142 q 585 397 585 343 q 539 640 585 569 q 445 694 486 682 q 343 707 404 707 m 210 294 l 208 371 q 232 475 208 451 q 318 513 267 513 q 425 336 425 513 q 401 214 425 253 q 326 175 376 175 q 242 195 276 175 q 208 251 208 215 l 210 294 m 328 1056 l 554 831 l 549 819 q 501 813 533 819 q 438 807 468 807 q 329 868 360 807 l 318 879 q 283 845 300 865 q 249 817 265 825 q 188 810 233 810 q 97 818 143 810 l 93 831 q 226 973 143 896 q 318 1057 310 1050 q 328 1056 321 1056 m 224 288 l 221 251 q 251 206 221 222 q 326 189 281 189 q 390 224 371 189 q 410 342 410 260 q 388 461 410 425 q 317 497 365 497 q 242 465 269 497 q 222 363 222 446 l 224 288 m 389 826 q 463 824 444 824 q 501 827 482 824 q 532 832 521 831 l 322 1042 l 268 992 q 110 831 156 888 q 197 825 154 825 q 256 835 239 825 q 286 865 272 846 q 314 893 300 883 l 322 893 q 353 862 335 885 q 376 835 372 839 l 389 826 z "},"":{"ha":622,"x_min":25,"x_max":599,"o":"m 242 719 l 332 721 q 522 672 444 721 q 599 440 599 624 q 570 90 599 201 q 364 -22 542 -22 q 325 -19 363 -22 q 256 -15 288 -17 q 219 -13 225 -14 q 192 -9 213 -12 q 164 -1 171 -6 q 140 13 157 4 q 111 36 124 22 l 79 67 q 28 272 28 121 l 28 403 q 31 541 28 508 q 44 599 35 574 q 56 635 53 625 q 131 700 71 681 q 242 719 190 719 m 343 707 l 243 706 q 167 697 208 706 q 69 631 83 679 q 58 597 68 622 q 44 531 49 571 q 40 350 40 492 q 56 150 40 208 q 172 13 85 43 q 251 -1 200 3 q 318 -7 303 -4 q 381 -10 333 -10 q 470 5 429 -10 q 532 51 511 19 q 560 112 553 82 q 576 242 568 142 q 585 397 585 343 q 539 640 585 569 q 445 694 486 682 q 343 707 404 707 m 196 850 l 201 818 l 194 811 q 161 813 185 813 q 126 817 138 813 l 32 815 l 25 824 q 99 987 49 915 q 222 1058 149 1058 q 285 1044 258 1058 q 325 1011 313 1029 q 399 953 361 960 q 468 1036 450 963 q 529 1046 488 1046 l 568 1044 l 589 1046 l 596 1042 q 599 1036 596 1036 q 557 870 599 936 q 432 804 515 804 q 369 820 394 804 q 333 855 343 836 q 303 890 322 874 q 260 906 285 906 q 215 892 235 906 q 196 850 196 878 m 42 829 l 104 833 q 133 829 119 833 q 185 826 167 829 q 182 844 182 838 q 205 899 182 876 q 257 922 228 922 q 302 912 286 922 q 327 885 318 901 q 347 854 336 869 q 439 818 371 818 q 546 878 507 818 q 585 1031 585 939 l 481 1028 q 445 964 474 989 q 399 939 417 939 q 367 952 382 939 q 335 987 351 965 q 307 1017 318 1008 q 231 1043 274 1043 q 161 1027 189 1043 q 117 994 133 1011 q 83 939 101 976 q 42 829 63 894 m 210 294 l 208 371 q 232 475 208 451 q 318 513 263 513 q 425 336 425 513 q 401 214 425 253 q 326 175 376 175 q 242 195 276 175 q 208 251 208 215 l 210 294 m 224 288 l 221 251 q 251 206 221 222 q 326 189 281 189 q 390 224 371 189 q 410 342 410 260 q 388 461 410 425 q 317 497 365 497 q 242 465 269 497 q 222 363 222 446 l 224 288 z "},"":{"ha":622,"x_min":28,"x_max":599,"o":"m 242 719 l 332 721 q 522 672 444 721 q 599 440 599 624 q 570 90 599 201 q 364 -22 542 -22 q 325 -19 363 -22 q 256 -15 288 -17 q 219 -13 225 -14 q 192 -9 213 -12 q 164 -1 171 -6 q 140 13 157 4 q 111 36 124 22 l 79 67 q 28 272 28 121 l 28 403 q 31 541 28 508 q 44 599 35 574 q 56 635 53 625 q 131 700 71 681 q 242 719 190 719 m 343 707 l 243 706 q 167 697 208 706 q 69 631 83 679 q 58 597 68 622 q 44 531 49 571 q 40 350 40 492 q 56 150 40 208 q 172 13 85 43 q 251 -1 200 3 q 318 -7 303 -4 q 381 -10 333 -10 q 470 5 429 -10 q 532 51 511 19 q 560 112 553 82 q 576 242 568 142 q 585 397 585 343 q 539 640 585 569 q 445 694 486 682 q 343 707 404 707 m 210 294 l 208 371 q 232 475 208 451 q 318 513 263 513 q 425 336 425 513 q 401 214 425 253 q 326 175 376 175 q 242 195 276 175 q 208 251 208 215 l 210 294 m 224 288 l 221 251 q 251 206 221 222 q 326 189 281 189 q 390 224 371 189 q 410 342 410 260 q 388 461 410 425 q 317 497 365 497 q 242 465 269 497 q 222 363 222 446 l 224 288 m 335 865 l 328 1042 q 336 1063 328 1057 q 525 1058 461 1060 l 532 1051 l 532 1004 q 538 940 538 988 l 536 874 q 442 850 536 850 q 335 865 349 850 m 79 865 l 72 1042 q 81 1063 72 1057 q 269 1058 206 1060 l 276 1051 l 276 1004 q 282 940 282 988 l 281 874 q 187 850 281 850 q 79 865 93 850 m 522 876 l 519 997 q 517 1020 517 1004 q 518 1044 517 1036 q 343 1049 428 1047 l 342 1024 l 349 871 l 463 864 q 522 876 508 864 m 267 876 l 264 997 q 261 1020 261 1004 q 263 1044 261 1036 q 88 1049 172 1047 l 86 1024 l 93 871 l 207 864 q 267 876 253 864 z "},"":{"ha":647,"x_min":21,"x_max":625,"o":"m 24 239 l 21 326 q 33 406 21 393 l 615 406 l 622 399 l 619 301 q 625 233 619 263 l 618 224 l 31 231 l 24 239 m 606 296 l 608 392 l 39 392 q 35 336 35 372 q 38 244 35 300 q 324 241 133 244 q 610 238 514 238 q 606 296 606 267 m 397 -7 l 238 -6 l 233 -6 q 219 53 219 0 l 225 161 l 229 169 q 331 183 260 183 q 413 163 401 183 q 404 0 404 111 l 397 -7 m 397 460 l 238 461 l 233 461 q 219 519 219 467 l 225 628 l 229 636 q 331 650 260 650 q 413 629 401 650 q 404 467 404 578 l 397 460 m 238 8 l 390 7 q 397 161 390 119 q 331 169 368 169 q 239 158 294 169 l 232 50 q 238 8 232 24 m 238 475 l 390 474 q 397 628 390 576 q 336 635 378 635 q 239 625 294 635 l 232 517 q 238 475 232 490 z "},"":{"ha":488,"x_min":25,"x_max":461,"o":"m 458 414 q 457 263 458 414 q 397 28 457 88 q 325 -14 368 -1 q 275 -19 317 -17 q 171 -40 168 -26 q 117 -46 149 -46 q 31 -31 31 -46 q 57 53 31 -6 q 25 328 25 201 l 35 483 q 236 688 35 688 q 276 686 264 688 q 288 707 276 707 l 315 704 l 379 707 q 432 692 417 707 q 423 661 432 681 q 414 635 414 642 q 415 625 414 628 q 461 467 461 569 q 458 414 461 447 m 443 264 l 444 413 l 444 415 q 447 485 447 449 q 439 546 447 522 q 415 594 431 569 q 400 631 400 619 q 408 662 400 643 q 418 688 417 681 q 389 692 403 692 l 322 686 q 290 693 303 686 l 290 679 q 282 671 289 675 q 214 675 253 675 q 142 660 175 675 q 92 629 108 646 q 65 576 75 613 q 53 523 54 540 q 49 465 51 506 l 42 385 l 42 267 q 56 131 42 189 q 71 56 71 74 l 72 53 q 71 49 71 50 l 69 47 q 57 9 64 35 q 44 -29 50 -17 l 118 -32 q 164 -28 142 -32 l 176 -15 q 239 -4 188 -4 l 264 -6 q 349 13 314 -6 q 403 56 385 32 q 431 122 421 81 q 443 264 443 176 m 332 375 l 339 244 q 317 151 339 186 q 235 106 294 115 l 229 111 l 226 117 q 267 238 238 142 q 319 378 297 335 l 332 375 m 140 258 q 135 299 135 265 q 141 362 135 333 q 147 397 147 390 q 172 517 151 488 q 238 549 193 547 l 244 542 q 236 509 244 532 q 222 467 228 486 q 190 373 215 447 q 153 258 165 299 l 140 258 m 313 167 q 322 235 322 206 q 322 279 322 264 q 319 313 321 294 q 318 342 318 332 l 243 121 q 313 167 292 132 m 163 429 l 164 404 q 154 342 164 361 q 151 316 154 333 q 149 293 149 299 q 174 369 157 319 q 228 535 208 471 q 175 501 188 528 q 163 429 163 475 z "}}}
